<?xml version="1.0" encoding="utf-8"?>
<!-- Generator: Adobe Illustrator 25.1.0, SVG Export Plug-In . SVG Version: 6.00 Build 0)  -->
<svg version="1.1" xmlns="http://www.w3.org/2000/svg" xmlns:xlink="http://www.w3.org/1999/xlink" x="0px" y="0px"
	 viewBox="0 0 1920 1080" style="enable-background:new 0 0 1920 1080;" xml:space="preserve">
<style type="text/css">
	.st0{fill:#B0ACB0;}
	.st1{fill:#666666;}
	.st2{fill:none;stroke:#666666;stroke-width:5;stroke-linejoin:round;stroke-miterlimit:10;}
	.st3{fill:#808080;}
	.st4{fill:#4D4D4D;}
	.st5{fill:#B3B3B3;}
	.st6{opacity:0.4;}
	.st7{opacity:0.5;fill:#DDC72C;enable-background:new    ;}
	.st8{fill:#F2F2F2;}
	.st9{fill:url(#SVGID_1_);}
	.st10{fill:url(#SVGID_2_);}
	.st11{fill:url(#SVGID_3_);}
	.st12{fill:url(#SVGID_4_);}
	.st13{fill:#29ABE2;}
	.st14{fill:none;stroke:#4D4D4D;stroke-miterlimit:10;}
	.st15{fill:#333333;}
	.st16{fill:#DDC72C;}
	.st17{fill:#00FFFF;}
	.st18{fill:#FFF19F;}
	.st19{fill:#D9E021;}
	.st20{fill:#04A39F;}
	.st21{fill:none;stroke:#000000;stroke-miterlimit:10;}
	.st22{fill:none;stroke:#333333;stroke-width:2;stroke-miterlimit:10;}
	.st23{fill:#00FF00;}
	.st24{fill:#FF00FF;}
	.st25{fill:#F7931E;}
	.st26{fill:#E6E6E6;}
	.st27{fill:#FFFF00;}
	.st28{fill:#CCCCCC;}
	.st29{fill:#662D91;}
	.st30{opacity:0.5;fill:#29ABE2;enable-background:new    ;}
	.st31{fill:none;stroke:#B0ACB0;stroke-width:2;stroke-miterlimit:10;}
	.st32{fill:none;stroke:#4D4D4D;stroke-width:4;stroke-linejoin:round;stroke-miterlimit:10;}
</style>
<!-- sassy asses-->
<g id="Layer_1">
	<g id="layer_x5F_4">
		<polygon class="st0" points="572,212 384,268 384,952 608,952 		"/>
		<rect x="1716" y="296" class="st0" width="288" height="660"/>
		<rect x="956" y="120" class="st0" width="268" height="880"/>
		<g>
			<polygon class="st0" points="1677.4,123 1434.9,36 1434.9,957 1677.4,957 			"/>
			<rect x="1412" y="155" class="st0" width="283.7" height="22.9"/>
		</g>
		<path class="st0" d="M162.4,57.7c-74,0-134,27.9-134,62.3v880h268V120C296.4,85.6,236.4,57.7,162.4,57.7z"/>
		<rect x="1009.9" y="83" class="st0" width="28.7" height="28.7"/>
		<rect x="1097.8" y="87" class="st0" width="24.1" height="34"/>
		<rect x="1009.9" y="103.9" class="st0" width="4.1" height="21.8"/>
		<rect x="1029.9" y="103.9" class="st0" width="4.1" height="21.8"/>
	</g>
	<g id="layer_x5F_3">
		<rect x="1612" y="244" class="st1" width="264" height="712"/>
		<rect x="1760.2" y="211.6" class="st1" width="44.1" height="22.3"/>
		<rect x="1797" y="228.9" class="st1" width="7.3" height="20.1"/>
		<rect x="1767" y="228.9" class="st1" width="7.3" height="20.1"/>
		<rect x="1660.8" y="212.6" class="st1" width="32.4" height="32.4"/>
		<polyline class="st2" points="1689.8,222.8 1709.4,222.8 1709.4,253.5 		"/>
	</g>
	<g id="bart_x5F_rail_x5F_bg">
		<rect x="1508" y="648" class="st3" width="1660" height="8"/>
	</g>
	<g id="bart_x5F_bg">
		<rect x="2472" y="596" class="st4" width="12" height="52"/>
		<rect x="2644" y="596" class="st4" width="12" height="52"/>
		<rect x="2952" y="596" class="st4" width="12" height="52"/>
		<rect x="3124" y="596" class="st4" width="12" height="52"/>
		<rect x="3436" y="596" class="st4" width="12" height="52"/>
		<g>
			<path class="st4" d="M2409.4,596.6c0.9-0.4,1.8-0.8,2.7-1.1C2411.2,595.8,2410.3,596.2,2409.4,596.6z"/>
			<path class="st4" d="M2415.4,594.3c4.1-1.3,8.3-2,12.6-2.2C2423.7,592.3,2419.5,593,2415.4,594.3z"/>
			<path class="st4" d="M2412.4,595.3c0.9-0.4,1.9-0.7,2.8-1C2414.3,594.6,2413.4,595,2412.4,595.3z"/>
			<path class="st4" d="M2406.5,598c0.9-0.5,1.7-0.9,2.6-1.3C2408.2,597.1,2407.3,597.6,2406.5,598z"/>
			<path class="st4" d="M2403.5,599.7c0.9-0.5,1.7-1,2.6-1.5C2405.3,598.6,2404.4,599.1,2403.5,599.7z"/>
			<path class="st4" d="M2430.6,592c-0.9,0-1.8,0-2.6,0.1V616h-51l5.9-3.6l-10,6.1c-5.7,3.5-9.5,9.2-10.6,15.8L2360,652h72h44v-60
				H2430.6z"/>
		</g>
		<g>
			<path class="st4" d="M3506.9,596.7c0.9,0.4,1.8,0.8,2.6,1.3C3508.7,597.6,3507.8,597.1,3506.9,596.7z"/>
			<path class="st4" d="M3503.9,595.4c0.9,0.3,1.8,0.7,2.7,1.1C3505.7,596.2,3504.8,595.8,3503.9,595.4z"/>
			<path class="st4" d="M3509.8,598.2c0.9,0.5,1.8,1,2.6,1.5C3511.6,599.1,3510.7,598.6,3509.8,598.2z"/>
			<path class="st4" d="M3553.7,634.3c-1.1-6.6-5-12.3-10.6-15.8l-10-6.1l5.9,3.6h-51v-23.9c-0.9,0-1.7-0.1-2.6-0.1H3440v60h44h72
				L3553.7,634.3z"/>
			<path class="st4" d="M3488,592.1c4.3,0.2,8.5,1,12.6,2.2C3496.5,593,3492.3,592.3,3488,592.1z"/>
			<path class="st4" d="M3500.8,594.3c1,0.3,1.9,0.6,2.8,1C3502.6,595,3501.7,594.6,3500.8,594.3z"/>
		</g>
		<path class="st4" d="M2480,592v60h168v-60H2480z M2536,616h-52v-20h52V616z M2584,640h-40v-44h40V640z M2644,616h-52v-20h52V616z"
			/>
		<rect x="2544" y="640" class="st5" width="40" height="4"/>
		<path class="st4" d="M2960,592v60h168v-60H2960z M3016,616h-52v-20h52V616z M3064,640h-40v-44h40V640z M3124,616h-52v-20h52V616z"
			/>
		<rect x="3024" y="640" class="st5" width="40" height="4"/>
		<path class="st4" d="M2652,592v60h304v-60H2652z M2776,616h-120v-20h120V616z M2824,640h-40v-44h40V640z M2952,616h-120v-20h120
			V616z"/>
		<rect x="2784" y="640" class="st5" width="40" height="4"/>
		<path class="st4" d="M3132,592v60h304v-60H3132z M3256,616h-120v-20h120V616z M3304,640h-40v-44h40V640z M3432,616h-120v-20h120
			V616z"/>
		<rect x="3264" y="640" class="st5" width="40" height="4"/>
		<g>
			<rect x="2544" y="596" class="st4" width="20" height="48"/>
			<rect x="2564" y="596" class="st4" width="20" height="48"/>
		</g>
		<g>
			<rect x="2784" y="596" class="st4" width="20" height="48"/>
			<rect x="2804" y="596" class="st4" width="20" height="48"/>
		</g>
		<g>
			<rect x="3024" y="596" class="st4" width="20" height="48"/>
			<rect x="3044" y="596" class="st4" width="20" height="48"/>
		</g>
		<g>
			<rect x="3264" y="596" class="st4" width="20" height="48"/>
			<rect x="3284" y="596" class="st4" width="20" height="48"/>
		</g>
		<g class="st6">
			<path class="st7" d="M2403.5,599.7L2377,616h51v-23.9C2419.4,592.5,2410.9,595.1,2403.5,599.7z"/>
			<path class="st7" d="M3512.5,599.7L3539,616h-51v-23.9C3496.6,592.5,3505.1,595.1,3512.5,599.7z"/>
			<rect x="2484" y="596" class="st7" width="52" height="20"/>
			<rect x="2592" y="596" class="st7" width="52" height="20"/>
			<rect x="2964" y="596" class="st7" width="52" height="20"/>
			<rect x="3072" y="596" class="st7" width="52" height="20"/>
			<rect x="2656" y="596" class="st7" width="120" height="20"/>
			<rect x="2832" y="596" class="st7" width="120" height="20"/>
			<rect x="3136" y="596" class="st7" width="120" height="20"/>
			<rect x="3312" y="596" class="st7" width="120" height="20"/>
		</g>
		<g>
			<path class="st8" d="M2428,592.1"/>
		</g>
	</g>
	<g id="layer_x5F_2">
		
			<linearGradient id="SVGID_1_" gradientUnits="userSpaceOnUse" x1="1358.9003" y1="167.3441" x2="1358.9003" y2="396.3441" gradientTransform="matrix(0.8284 0.5601 -0.5601 0.8284 375.4389 -686.6064)">
			<stop  offset="0" style="stop-color:#6CB5E4;stop-opacity:0"/>
			<stop  offset="0.1612" style="stop-color:#63B0DF;stop-opacity:0.1612"/>
			<stop  offset="0.4292" style="stop-color:#49A1D1;stop-opacity:0.4292"/>
			<stop  offset="0.7687" style="stop-color:#2089BA;stop-opacity:0.7687"/>
			<stop  offset="1" style="stop-color:#0077A9"/>
		</linearGradient>
		<polygon class="st9" points="1424.4,224.6 1390.5,201.7 1262.3,391.4 1296.1,414.3 		"/>
		
			<linearGradient id="SVGID_2_" gradientUnits="userSpaceOnUse" x1="1358.9003" y1="167.3441" x2="1358.9003" y2="396.3441" gradientTransform="matrix(-0.8284 0.5601 0.5601 0.8284 2172.6199 -686.6064)">
			<stop  offset="0" style="stop-color:#6CB5E4;stop-opacity:0"/>
			<stop  offset="0.1612" style="stop-color:#63B0DF;stop-opacity:0.1612"/>
			<stop  offset="0.4292" style="stop-color:#49A1D1;stop-opacity:0.4292"/>
			<stop  offset="0.7687" style="stop-color:#2089BA;stop-opacity:0.7687"/>
			<stop  offset="1" style="stop-color:#0077A9"/>
		</linearGradient>
		<polygon class="st10" points="1123.7,224.6 1157.5,201.7 1285.8,391.4 1251.9,414.3 		"/>
		
			<linearGradient id="SVGID_3_" gradientUnits="userSpaceOnUse" x1="1646.9436" y1="-131.7064" x2="1646.9436" y2="97.2936" gradientTransform="matrix(-2.1501 0.6602 0.2935 0.9559 4303.0986 -849.4172)">
			<stop  offset="0" style="stop-color:#6CB5E4;stop-opacity:0"/>
			<stop  offset="0.1612" style="stop-color:#63B0DF;stop-opacity:0.1612"/>
			<stop  offset="0.4292" style="stop-color:#49A1D1;stop-opacity:0.4292"/>
			<stop  offset="0.7687" style="stop-color:#2089BA;stop-opacity:0.7687"/>
			<stop  offset="1" style="stop-color:#0077A9"/>
		</linearGradient>
		<polygon class="st11" points="679.5,125.5 767.3,98.5 834.5,317.4 746.7,344.4 		"/>
		
			<linearGradient id="SVGID_4_" gradientUnits="userSpaceOnUse" x1="1806.0847" y1="-206.9864" x2="1806.0847" y2="22.0136" gradientTransform="matrix(-1.4013 -0.9474 -0.8774 1.2978 2853.782 2033.1923)">
			<stop  offset="0" style="stop-color:#6CB5E4;stop-opacity:0"/>
			<stop  offset="0.1612" style="stop-color:#63B0DF;stop-opacity:0.1612"/>
			<stop  offset="0.4292" style="stop-color:#49A1D1;stop-opacity:0.4292"/>
			<stop  offset="0.7687" style="stop-color:#2089BA;stop-opacity:0.7687"/>
			<stop  offset="1" style="stop-color:#0077A9"/>
		</linearGradient>
		<polygon class="st12" points="475.8,34.1 533.1,72.8 332.2,369.9 274.9,331.2 		"/>
		<rect x="1500" y="656" class="st4" width="1248" height="36"/>
		<rect x="488" y="384" class="st4" width="284" height="572"/>
		<rect x="128" y="202" class="st4" width="212" height="754"/>
		<rect x="744" y="248" class="st1" width="248" height="708"/>
		<rect x="1508" y="577" class="st4" width="28" height="12"/>
		<path class="st4" d="M1008,384v572h500V384H1008z M1094.6,645.6H1031V412.4h63.6V645.6z M1172.7,646.4h-63.6V413.2h63.6V646.4z
			 M1250.8,647.2h-63.6V414h63.6V647.2z M1328.8,648h-63.6V414.8h63.6V648z M1406.9,648.8h-63.6V415.6h63.6V648.8z M1485,649.6
			h-63.6V416.4h63.6V649.6z"/>
		<g class="st6">
			<rect x="1421.4" y="416.4" class="st13" width="63.6" height="233.1"/>
			<rect x="1343.3" y="415.6" class="st13" width="63.6" height="233.1"/>
			<rect x="1265.2" y="414.8" class="st13" width="63.6" height="233.1"/>
			<rect x="1187.2" y="414" class="st13" width="63.6" height="233.1"/>
			<rect x="1109.1" y="413.2" class="st13" width="63.6" height="233.1"/>
			<rect x="1031" y="412.4" class="st13" width="63.6" height="233.1"/>
		</g>
		<line class="st14" x1="1031" y1="451.2" x2="1485" y2="451.2"/>
		<line class="st14" x1="1031" y1="491.2" x2="1485" y2="491.2"/>
		<line class="st14" x1="1031" y1="531.2" x2="1485" y2="531.2"/>
		<line class="st14" x1="1031" y1="571.2" x2="1485" y2="571.2"/>
		<line class="st14" x1="1031" y1="611.2" x2="1485" y2="611.2"/>
		<circle class="st4" cx="287.2" cy="184.8" r="12.3"/>
		<rect x="287.2" y="190.4" class="st4" width="6.1" height="21.6"/>
	</g>
	<g id="layer_x5F_1">
		<rect x="1112" y="568" class="st15" width="284" height="388"/>
		<rect x="804" y="512" class="st15" width="224" height="444"/>
		<rect x="320" y="460" class="st15" width="224" height="496.3"/>
		<rect x="568" y="600" class="st15" width="212" height="356"/>
		<rect x="1028" y="744" class="st15" width="84" height="8"/>
		<rect x="1064" y="592" class="st15" width="48" height="4"/>
		<rect x="1072" y="596" class="st15" width="4" height="12"/>
		<rect x="1096" y="596" class="st15" width="4" height="12"/>
		<rect x="1064" y="608" class="st15" width="44" height="72"/>
		<rect x="760" y="592" class="st15" width="4" height="8"/>
		<rect x="736" y="592" class="st15" width="4" height="8"/>
		<rect x="724" y="520" class="st15" width="52" height="72"/>
		<rect x="824" y="500" class="st15" width="4" height="12"/>
		<rect x="892" y="500" class="st15" width="4" height="12"/>
		<rect x="812" y="460" class="st15" width="96" height="40"/>
		<rect x="344" y="448" class="st15" width="4" height="12"/>
		<rect x="412" y="448" class="st15" width="4" height="12"/>
		<rect x="332" y="408" class="st15" width="96" height="40"/>
		<rect x="-24" y="308" class="st15" width="240" height="648"/>
		<rect x="936" y="508" class="st15" width="4" height="4"/>
		<rect x="948" y="508" class="st15" width="4" height="4"/>
		<rect x="932" y="496" class="st15" width="24" height="12"/>
		<polygon class="st15" points="980,500 980,504 976,504 976,508 976,512 980,512 980,508 984,508 984,504 984,500 		"/>
		<polygon class="st15" points="492,460 512,460 512,436 492,432 		"/>
		<rect x="636" y="576" class="st15" width="4" height="24"/>
		<rect x="632" y="580" class="st15" width="12" height="4"/>
		<rect x="632" y="588" class="st15" width="12" height="4"/>
		<path class="st15" d="M602,580h-8c-5.5,0-10,4.5-10,10v10h28v-10C612,584.5,607.5,580,602,580z"/>
		<polygon class="st15" points="480,436 472,436 468,436 468,440 468,444 472,444 472,440 480,440 480,460 484,460 484,440 484,436 
					"/>
		<path class="st15" d="M212,556v52h112v-52H212z M264,596h-44v-36h44V596z M316,596h-44v-36h44V596z"/>
		<g>
			<g>
				<rect x="1126" y="582" class="st16" width="36.1" height="23.2"/>
				<rect x="1126" y="612.5" class="st16" width="36.1" height="23.2"/>
				<rect x="1126" y="643.1" class="st16" width="36.1" height="23.2"/>
				<rect x="1126" y="673.6" class="st16" width="36.1" height="23.2"/>
				<rect x="1126" y="704.1" class="st16" width="36.1" height="23.2"/>
				<rect x="1126" y="734.7" class="st16" width="36.1" height="23.2"/>
				<rect x="1126" y="765.2" class="st16" width="36.1" height="23.2"/>
				<rect x="1126" y="795.8" class="st16" width="36.1" height="23.2"/>
				<rect x="1126" y="826.3" class="st16" width="36.1" height="23.2"/>
				<rect x="1126" y="856.8" class="st16" width="36.1" height="23.2"/>
			</g>
			<g>
				<rect x="1177.6" y="582" class="st16" width="36.1" height="23.2"/>
				<rect x="1177.6" y="612.5" class="st16" width="36.1" height="23.2"/>
				<rect x="1177.6" y="643.1" class="st16" width="36.1" height="23.2"/>
				<rect x="1177.6" y="673.6" class="st16" width="36.1" height="23.2"/>
				<rect x="1177.6" y="704.1" class="st16" width="36.1" height="23.2"/>
				<rect x="1177.6" y="734.7" class="st16" width="36.1" height="23.2"/>
				<rect x="1177.6" y="765.2" class="st16" width="36.1" height="23.2"/>
				<rect x="1177.6" y="795.8" class="st16" width="36.1" height="23.2"/>
				<rect x="1177.6" y="826.3" class="st16" width="36.1" height="23.2"/>
				<rect x="1177.6" y="856.8" class="st16" width="36.1" height="23.2"/>
			</g>
			<g>
				<rect x="1347.9" y="582" class="st16" width="36.1" height="23.2"/>
				<rect x="1347.9" y="612.5" class="st16" width="36.1" height="23.2"/>
				<rect x="1347.9" y="643.1" class="st16" width="36.1" height="23.2"/>
				<rect x="1347.9" y="673.6" class="st16" width="36.1" height="23.2"/>
				<rect x="1347.9" y="704.1" class="st16" width="36.1" height="23.2"/>
				<rect x="1347.9" y="734.7" class="st16" width="36.1" height="23.2"/>
				<rect x="1347.9" y="765.2" class="st16" width="36.1" height="23.2"/>
				<rect x="1347.9" y="795.8" class="st16" width="36.1" height="23.2"/>
				<rect x="1347.9" y="826.3" class="st16" width="36.1" height="23.2"/>
				<rect x="1347.9" y="856.8" class="st16" width="36.1" height="23.2"/>
			</g>
			<g>
				<rect x="1296.3" y="582" class="st16" width="36.1" height="23.2"/>
				<rect x="1296.3" y="612.5" class="st16" width="36.1" height="23.2"/>
				<rect x="1296.3" y="643.1" class="st16" width="36.1" height="23.2"/>
				<rect x="1296.3" y="673.6" class="st16" width="36.1" height="23.2"/>
				<rect x="1296.3" y="704.1" class="st16" width="36.1" height="23.2"/>
				<rect x="1296.3" y="734.7" class="st16" width="36.1" height="23.2"/>
				<rect x="1296.3" y="765.2" class="st16" width="36.1" height="23.2"/>
				<rect x="1296.3" y="795.8" class="st16" width="36.1" height="23.2"/>
				<rect x="1296.3" y="826.3" class="st16" width="36.1" height="23.2"/>
				<rect x="1296.3" y="856.8" class="st16" width="36.1" height="23.2"/>
			</g>
			<g>
				<rect x="1229.2" y="582" class="st16" width="51.6" height="23.2"/>
				<rect x="1229.2" y="612.5" class="st16" width="51.6" height="23.2"/>
				<rect x="1229.2" y="643.1" class="st16" width="51.6" height="23.2"/>
				<rect x="1229.2" y="673.6" class="st16" width="51.6" height="23.2"/>
				<rect x="1229.2" y="704.1" class="st16" width="51.6" height="23.2"/>
				<rect x="1229.2" y="734.7" class="st16" width="51.6" height="23.2"/>
				<rect x="1229.2" y="765.2" class="st16" width="51.6" height="23.2"/>
				<rect x="1229.2" y="795.8" class="st16" width="51.6" height="23.2"/>
				<rect x="1229.2" y="826.3" class="st16" width="51.6" height="23.2"/>
				<rect x="1229.2" y="856.8" class="st16" width="51.6" height="23.2"/>
			</g>
		</g>
		<g>
			<rect x="580" y="612" class="st16" width="28" height="19.3"/>
			<rect x="580" y="637.4" class="st17" width="28" height="19.3"/>
			<rect x="580" y="662.8" class="st16" width="28" height="19.3"/>
			<rect x="580" y="688.2" class="st17" width="28" height="19.3"/>
			<rect x="580" y="713.6" class="st16" width="28" height="19.3"/>
			<rect x="580" y="739.1" class="st16" width="28" height="19.3"/>
			<rect x="580" y="764.5" class="st16" width="28" height="19.3"/>
			<rect x="580" y="789.9" class="st17" width="28" height="19.3"/>
			<rect x="580" y="815.3" class="st16" width="28" height="19.3"/>
			<rect x="580" y="840.7" class="st16" width="28" height="19.3"/>
		</g>
		<g>
			<rect x="620" y="612" class="st16" width="28" height="19.3"/>
			<rect x="620" y="637.4" class="st17" width="28" height="19.3"/>
			<rect x="620" y="662.8" class="st16" width="28" height="19.3"/>
			<rect x="620" y="688.2" class="st16" width="28" height="19.3"/>
			<rect x="620" y="713.6" class="st17" width="28" height="19.3"/>
			<rect x="620" y="739.1" class="st16" width="28" height="19.3"/>
			<rect x="620" y="764.5" class="st17" width="28" height="19.3"/>
			<rect x="620" y="789.9" class="st16" width="28" height="19.3"/>
			<rect x="620" y="815.3" class="st16" width="28" height="19.3"/>
			<rect x="620" y="840.7" class="st17" width="28" height="19.3"/>
		</g>
		<g>
			<rect x="700" y="612" class="st17" width="28" height="19.3"/>
			<rect x="700" y="637.4" class="st16" width="28" height="19.3"/>
			<rect x="700" y="662.8" class="st17" width="28" height="19.3"/>
			<rect x="700" y="688.2" class="st16" width="28" height="19.3"/>
			<rect x="700" y="713.6" class="st16" width="28" height="19.3"/>
			<rect x="700" y="739.1" class="st17" width="28" height="19.3"/>
			<rect x="700" y="764.5" class="st16" width="28" height="19.3"/>
			<rect x="700" y="789.9" class="st17" width="28" height="19.3"/>
			<rect x="700" y="815.3" class="st16" width="28" height="19.3"/>
			<rect x="700" y="840.7" class="st16" width="28" height="19.3"/>
		</g>
		<g>
			<rect x="660" y="612" class="st16" width="28" height="19.3"/>
			<rect x="660" y="637.4" class="st16" width="28" height="19.3"/>
			<rect x="660" y="662.8" class="st17" width="28" height="19.3"/>
			<rect x="660" y="688.2" class="st16" width="28" height="19.3"/>
			<rect x="660" y="713.6" class="st16" width="28" height="19.3"/>
			<rect x="660" y="739.1" class="st17" width="28" height="19.3"/>
			<rect x="660" y="764.5" class="st16" width="28" height="19.3"/>
			<rect x="660" y="789.9" class="st16" width="28" height="19.3"/>
			<rect x="660" y="815.3" class="st17" width="28" height="19.3"/>
			<rect x="660" y="840.7" class="st16" width="28" height="19.3"/>
		</g>
		<g>
			<rect x="436" y="468" class="st5" width="100" height="29.9"/>
			<rect x="436" y="507.3" class="st5" width="100" height="29.9"/>
			<rect x="436" y="546.7" class="st18" width="100" height="29.9"/>
			<rect x="436" y="586" class="st5" width="100" height="29.9"/>
			<rect x="436" y="625.4" class="st5" width="100" height="29.9"/>
			<rect x="436" y="664.7" class="st18" width="100" height="29.9"/>
			<rect x="436" y="704.1" class="st5" width="100" height="29.9"/>
			<rect x="436" y="743.4" class="st18" width="100" height="29.9"/>
			<rect x="436" y="782.8" class="st18" width="100" height="29.9"/>
			<rect x="436" y="822.1" class="st18" width="100" height="29.9"/>
		</g>
		<g>
			<rect x="1633.3" y="824" class="st15" width="321.4" height="12"/>
			<rect x="1633.3" y="772" class="st15" width="321.4" height="12"/>
			<rect x="1633.3" y="876" class="st15" width="321.4" height="80"/>
			<rect x="1633.3" y="605.2" class="st15" width="321.4" height="22.8"/>
			<rect x="1633.3" y="720" class="st15" width="321.4" height="12"/>
			<rect x="1633.3" y="668" class="st15" width="321.4" height="12"/>
		</g>
		<g>
			<rect x="328" y="468" class="st5" width="100" height="29.9"/>
			<rect x="328" y="507.3" class="st18" width="100" height="29.9"/>
			<rect x="328" y="546.7" class="st5" width="100" height="29.9"/>
			<rect x="328" y="586" class="st18" width="100" height="29.9"/>
			<rect x="328" y="625.4" class="st5" width="100" height="29.9"/>
			<rect x="328" y="664.7" class="st18" width="100" height="29.9"/>
			<rect x="328" y="704.1" class="st5" width="100" height="29.9"/>
			<rect x="328" y="743.4" class="st18" width="100" height="29.9"/>
			<rect x="328" y="782.8" class="st5" width="100" height="29.9"/>
			<rect x="328" y="822.1" class="st5" width="100" height="29.9"/>
		</g>
		<g>
			<rect x="740" y="612" class="st16" width="28" height="19.3"/>
			<rect x="740" y="637.4" class="st16" width="28" height="19.3"/>
			<rect x="740" y="662.8" class="st16" width="28" height="19.3"/>
			<rect x="740" y="688.2" class="st17" width="28" height="19.3"/>
			<rect x="740" y="713.6" class="st16" width="28" height="19.3"/>
			<rect x="740" y="739.1" class="st16" width="28" height="19.3"/>
			<rect x="740" y="764.5" class="st16" width="28" height="19.3"/>
			<rect x="740" y="789.9" class="st16" width="28" height="19.3"/>
			<rect x="740" y="815.3" class="st17" width="28" height="19.3"/>
			<rect x="740" y="840.7" class="st16" width="28" height="19.3"/>
		</g>
		<g>
			<rect x="104" y="320" class="st19" width="40.9" height="18.5"/>
			<rect x="104" y="344.4" class="st19" width="40.9" height="18.5"/>
			<rect x="104" y="368.8" class="st19" width="40.9" height="18.5"/>
			<rect x="104" y="393.2" class="st19" width="40.9" height="18.5"/>
			<rect x="104" y="417.6" class="st19" width="40.9" height="18.5"/>
			<rect x="104" y="441.9" class="st19" width="40.9" height="18.5"/>
			<rect x="104" y="466.3" class="st19" width="40.9" height="18.5"/>
			<rect x="104" y="490.7" class="st19" width="40.9" height="18.5"/>
			<rect x="104" y="515.1" class="st19" width="40.9" height="18.5"/>
			<rect x="104" y="539.5" class="st19" width="40.9" height="18.5"/>
		</g>
		<g>
			<rect x="162.4" y="320" class="st19" width="40.9" height="18.5"/>
			<rect x="162.4" y="344.4" class="st19" width="40.9" height="18.5"/>
			<rect x="162.4" y="368.8" class="st19" width="40.9" height="18.5"/>
			<rect x="162.4" y="393.2" class="st19" width="40.9" height="18.5"/>
			<rect x="162.4" y="417.6" class="st19" width="40.9" height="18.5"/>
			<rect x="162.4" y="441.9" class="st19" width="40.9" height="18.5"/>
			<rect x="162.4" y="466.3" class="st19" width="40.9" height="18.5"/>
			<rect x="162.4" y="490.7" class="st19" width="40.9" height="18.5"/>
			<rect x="162.4" y="515.1" class="st19" width="40.9" height="18.5"/>
			<rect x="162.4" y="539.5" class="st19" width="40.9" height="18.5"/>
		</g>
		<g>
			<rect x="-11.3" y="320" class="st19" width="40.9" height="18.5"/>
			<rect x="-11.3" y="344.4" class="st19" width="40.9" height="18.5"/>
			<rect x="-11.3" y="368.8" class="st19" width="40.9" height="18.5"/>
			<rect x="-11.3" y="393.2" class="st19" width="40.9" height="18.5"/>
			<rect x="-11.3" y="417.6" class="st19" width="40.9" height="18.5"/>
			<rect x="-11.3" y="441.9" class="st19" width="40.9" height="18.5"/>
			<rect x="-11.3" y="466.3" class="st19" width="40.9" height="18.5"/>
			<rect x="-11.3" y="490.7" class="st19" width="40.9" height="18.5"/>
			<rect x="-11.3" y="515.1" class="st19" width="40.9" height="18.5"/>
			<rect x="-11.3" y="539.5" class="st19" width="40.9" height="18.5"/>
		</g>
		<g>
			<rect x="47.1" y="320" class="st19" width="40.9" height="18.5"/>
			<rect x="47.1" y="344.4" class="st19" width="40.9" height="18.5"/>
			<rect x="47.1" y="368.8" class="st19" width="40.9" height="18.5"/>
			<rect x="47.1" y="393.2" class="st19" width="40.9" height="18.5"/>
			<rect x="47.1" y="417.6" class="st19" width="40.9" height="18.5"/>
			<rect x="47.1" y="441.9" class="st19" width="40.9" height="18.5"/>
			<rect x="47.1" y="466.3" class="st19" width="40.9" height="18.5"/>
			<rect x="47.1" y="490.7" class="st19" width="40.9" height="18.5"/>
			<rect x="47.1" y="515.1" class="st19" width="40.9" height="18.5"/>
			<rect x="47.1" y="539.5" class="st19" width="40.9" height="18.5"/>
		</g>
		<g>
			<rect x="104" y="564" class="st19" width="40.9" height="18.5"/>
			<rect x="104" y="588.4" class="st19" width="40.9" height="18.5"/>
			<rect x="104" y="612.8" class="st19" width="40.9" height="18.5"/>
			<rect x="104" y="637.2" class="st19" width="40.9" height="18.5"/>
			<rect x="104" y="661.6" class="st19" width="40.9" height="18.5"/>
			<rect x="104" y="685.9" class="st19" width="40.9" height="18.5"/>
			<rect x="104" y="710.3" class="st19" width="40.9" height="18.5"/>
			<rect x="104" y="734.7" class="st19" width="40.9" height="18.5"/>
			<rect x="104" y="759.1" class="st19" width="40.9" height="18.5"/>
			<rect x="104" y="783.5" class="st19" width="40.9" height="18.5"/>
		</g>
		<g>
			<rect x="162.4" y="564" class="st19" width="40.9" height="18.5"/>
			<rect x="162.4" y="588.4" class="st19" width="40.9" height="18.5"/>
			<rect x="162.4" y="612.8" class="st19" width="40.9" height="18.5"/>
			<rect x="162.4" y="637.2" class="st19" width="40.9" height="18.5"/>
			<rect x="162.4" y="661.6" class="st19" width="40.9" height="18.5"/>
			<rect x="162.4" y="685.9" class="st19" width="40.9" height="18.5"/>
			<rect x="162.4" y="710.3" class="st19" width="40.9" height="18.5"/>
			<rect x="162.4" y="734.7" class="st19" width="40.9" height="18.5"/>
			<rect x="162.4" y="759.1" class="st19" width="40.9" height="18.5"/>
			<rect x="162.4" y="783.5" class="st19" width="40.9" height="18.5"/>
		</g>
		<g>
			<rect x="-11.3" y="564" class="st19" width="40.9" height="18.5"/>
			<rect x="-11.3" y="588.4" class="st19" width="40.9" height="18.5"/>
			<rect x="-11.3" y="612.8" class="st19" width="40.9" height="18.5"/>
			<rect x="-11.3" y="637.2" class="st19" width="40.9" height="18.5"/>
			<rect x="-11.3" y="661.6" class="st19" width="40.9" height="18.5"/>
			<rect x="-11.3" y="685.9" class="st19" width="40.9" height="18.5"/>
			<rect x="-11.3" y="710.3" class="st19" width="40.9" height="18.5"/>
			<rect x="-11.3" y="734.7" class="st19" width="40.9" height="18.5"/>
			<rect x="-11.3" y="759.1" class="st19" width="40.9" height="18.5"/>
			<rect x="-11.3" y="783.5" class="st19" width="40.9" height="18.5"/>
		</g>
		<g>
			<rect x="47.1" y="564" class="st19" width="40.9" height="18.5"/>
			<rect x="47.1" y="588.4" class="st19" width="40.9" height="18.5"/>
			<rect x="47.1" y="612.8" class="st19" width="40.9" height="18.5"/>
			<rect x="47.1" y="637.2" class="st19" width="40.9" height="18.5"/>
			<rect x="47.1" y="661.6" class="st19" width="40.9" height="18.5"/>
			<rect x="47.1" y="685.9" class="st19" width="40.9" height="18.5"/>
			<rect x="47.1" y="710.3" class="st19" width="40.9" height="18.5"/>
			<rect x="47.1" y="734.7" class="st19" width="40.9" height="18.5"/>
			<rect x="47.1" y="759.1" class="st19" width="40.9" height="18.5"/>
			<rect x="47.1" y="783.5" class="st19" width="40.9" height="18.5"/>
		</g>
		<g>
			<rect x="1640" y="628" class="st20" width="308" height="40"/>
		</g>
		<g>
			<rect x="1640" y="680" class="st20" width="308" height="40"/>
		</g>
		<g>
			<rect x="1640" y="732" class="st20" width="308" height="40"/>
		</g>
		<g>
			<rect x="1640" y="784" class="st20" width="308" height="40"/>
		</g>
		<g>
			<rect x="1640" y="836" class="st20" width="308" height="40"/>
		</g>
		<g>
			<rect x="814" y="522" class="st1" width="50" height="30"/>
			<line class="st21" x1="814" y1="528.4" x2="864" y2="528.4"/>
			<line class="st21" x1="855.9" y1="522" x2="855.9" y2="552"/>
			<line class="st21" x1="822.1" y1="522" x2="822.1" y2="552"/>
		</g>
		<g>
			<rect x="968" y="522" class="st17" width="50" height="30"/>
			<line class="st21" x1="968" y1="528.4" x2="1018" y2="528.4"/>
			<line class="st21" x1="1009.9" y1="522" x2="1009.9" y2="552"/>
			<line class="st21" x1="976.1" y1="522" x2="976.1" y2="552"/>
		</g>
		<g>
			<rect x="881" y="522" class="st18" width="50" height="30"/>
			<line class="st21" x1="881" y1="528.4" x2="931" y2="528.4"/>
			<line class="st21" x1="922.9" y1="522" x2="922.9" y2="552"/>
			<line class="st21" x1="889.1" y1="522" x2="889.1" y2="552"/>
		</g>
		<g>
			<rect x="814" y="562" class="st17" width="50" height="30"/>
			<line class="st21" x1="814" y1="568.4" x2="864" y2="568.4"/>
			<line class="st21" x1="855.9" y1="562" x2="855.9" y2="592"/>
			<line class="st21" x1="822.1" y1="562" x2="822.1" y2="592"/>
		</g>
		<g>
			<rect x="968" y="562" class="st18" width="50" height="30"/>
			<line class="st21" x1="968" y1="568.4" x2="1018" y2="568.4"/>
			<line class="st21" x1="1009.9" y1="562" x2="1009.9" y2="592"/>
			<line class="st21" x1="976.1" y1="562" x2="976.1" y2="592"/>
		</g>
		<g>
			<rect x="881" y="562" class="st17" width="50" height="30"/>
			<line class="st21" x1="881" y1="568.4" x2="931" y2="568.4"/>
			<line class="st21" x1="922.9" y1="562" x2="922.9" y2="592"/>
			<line class="st21" x1="889.1" y1="562" x2="889.1" y2="592"/>
		</g>
		<g>
			<rect x="814" y="602" class="st18" width="50" height="30"/>
			<line class="st21" x1="814" y1="608.4" x2="864" y2="608.4"/>
			<line class="st21" x1="855.9" y1="602" x2="855.9" y2="632"/>
			<line class="st21" x1="822.1" y1="602" x2="822.1" y2="632"/>
		</g>
		<g>
			<rect x="968" y="602" class="st1" width="50" height="30"/>
			<line class="st21" x1="968" y1="608.4" x2="1018" y2="608.4"/>
			<line class="st21" x1="1009.9" y1="602" x2="1009.9" y2="632"/>
			<line class="st21" x1="976.1" y1="602" x2="976.1" y2="632"/>
		</g>
		<g>
			<rect x="881" y="602" class="st17" width="50" height="30"/>
			<line class="st21" x1="881" y1="608.4" x2="931" y2="608.4"/>
			<line class="st21" x1="922.9" y1="602" x2="922.9" y2="632"/>
			<line class="st21" x1="889.1" y1="602" x2="889.1" y2="632"/>
		</g>
		<g>
			<rect x="814" y="642" class="st1" width="50" height="30"/>
			<line class="st21" x1="814" y1="648.4" x2="864" y2="648.4"/>
			<line class="st21" x1="855.9" y1="642" x2="855.9" y2="672"/>
			<line class="st21" x1="822.1" y1="642" x2="822.1" y2="672"/>
		</g>
		<g>
			<rect x="968" y="642" class="st17" width="50" height="30"/>
			<line class="st21" x1="968" y1="648.4" x2="1018" y2="648.4"/>
			<line class="st21" x1="1009.9" y1="642" x2="1009.9" y2="672"/>
			<line class="st21" x1="976.1" y1="642" x2="976.1" y2="672"/>
		</g>
		<g>
			<rect x="881" y="642" class="st18" width="50" height="30"/>
			<line class="st21" x1="881" y1="648.4" x2="931" y2="648.4"/>
			<line class="st21" x1="922.9" y1="642" x2="922.9" y2="672"/>
			<line class="st21" x1="889.1" y1="642" x2="889.1" y2="672"/>
		</g>
		<g>
			<rect x="814" y="682" class="st17" width="50" height="30"/>
			<line class="st21" x1="814" y1="688.4" x2="864" y2="688.4"/>
			<line class="st21" x1="855.9" y1="682" x2="855.9" y2="712"/>
			<line class="st21" x1="822.1" y1="682" x2="822.1" y2="712"/>
		</g>
		<g>
			<rect x="968" y="682" class="st1" width="50" height="30"/>
			<line class="st21" x1="968" y1="688.4" x2="1018" y2="688.4"/>
			<line class="st21" x1="1009.9" y1="682" x2="1009.9" y2="712"/>
			<line class="st21" x1="976.1" y1="682" x2="976.1" y2="712"/>
		</g>
		<g>
			<rect x="881" y="682" class="st17" width="50" height="30"/>
			<line class="st21" x1="881" y1="688.4" x2="931" y2="688.4"/>
			<line class="st21" x1="922.9" y1="682" x2="922.9" y2="712"/>
			<line class="st21" x1="889.1" y1="682" x2="889.1" y2="712"/>
		</g>
		<g>
			<rect x="814" y="722" class="st17" width="50" height="30"/>
			<line class="st21" x1="814" y1="728.4" x2="864" y2="728.4"/>
			<line class="st21" x1="855.9" y1="722" x2="855.9" y2="752"/>
			<line class="st21" x1="822.1" y1="722" x2="822.1" y2="752"/>
		</g>
		<g>
			<rect x="968" y="722" class="st18" width="50" height="30"/>
			<line class="st21" x1="968" y1="728.4" x2="1018" y2="728.4"/>
			<line class="st21" x1="1009.9" y1="722" x2="1009.9" y2="752"/>
			<line class="st21" x1="976.1" y1="722" x2="976.1" y2="752"/>
		</g>
		<g>
			<rect x="881" y="722" class="st18" width="50" height="30"/>
			<line class="st21" x1="881" y1="728.4" x2="931" y2="728.4"/>
			<line class="st21" x1="922.9" y1="722" x2="922.9" y2="752"/>
			<line class="st21" x1="889.1" y1="722" x2="889.1" y2="752"/>
		</g>
		<g>
			<rect x="814" y="762" class="st18" width="50" height="30"/>
			<line class="st21" x1="814" y1="768.4" x2="864" y2="768.4"/>
			<line class="st21" x1="855.9" y1="762" x2="855.9" y2="792"/>
			<line class="st21" x1="822.1" y1="762" x2="822.1" y2="792"/>
		</g>
		<g>
			<rect x="968" y="762" class="st18" width="50" height="30"/>
			<line class="st21" x1="968" y1="768.4" x2="1018" y2="768.4"/>
			<line class="st21" x1="1009.9" y1="762" x2="1009.9" y2="792"/>
			<line class="st21" x1="976.1" y1="762" x2="976.1" y2="792"/>
		</g>
		<g>
			<rect x="881" y="762" class="st17" width="50" height="30"/>
			<line class="st21" x1="881" y1="768.4" x2="931" y2="768.4"/>
			<line class="st21" x1="922.9" y1="762" x2="922.9" y2="792"/>
			<line class="st21" x1="889.1" y1="762" x2="889.1" y2="792"/>
		</g>
		<g>
			<rect x="814" y="802" class="st17" width="50" height="30"/>
			<line class="st21" x1="814" y1="808.4" x2="864" y2="808.4"/>
			<line class="st21" x1="855.9" y1="802" x2="855.9" y2="832"/>
			<line class="st21" x1="822.1" y1="802" x2="822.1" y2="832"/>
		</g>
		<g>
			<rect x="968" y="802" class="st1" width="50" height="30"/>
			<line class="st21" x1="968" y1="808.4" x2="1018" y2="808.4"/>
			<line class="st21" x1="1009.9" y1="802" x2="1009.9" y2="832"/>
			<line class="st21" x1="976.1" y1="802" x2="976.1" y2="832"/>
		</g>
		<g>
			<rect x="881" y="802" class="st18" width="50" height="30"/>
			<line class="st21" x1="881" y1="808.4" x2="931" y2="808.4"/>
			<line class="st21" x1="922.9" y1="802" x2="922.9" y2="832"/>
			<line class="st21" x1="889.1" y1="802" x2="889.1" y2="832"/>
		</g>
		<g>
			<rect x="814" y="842" class="st17" width="50" height="30"/>
			<line class="st21" x1="814" y1="848.4" x2="864" y2="848.4"/>
			<line class="st21" x1="855.9" y1="842" x2="855.9" y2="872"/>
			<line class="st21" x1="822.1" y1="842" x2="822.1" y2="872"/>
		</g>
		<g>
			<rect x="968" y="842" class="st17" width="50" height="30"/>
			<line class="st21" x1="968" y1="848.4" x2="1018" y2="848.4"/>
			<line class="st21" x1="1009.9" y1="842" x2="1009.9" y2="872"/>
			<line class="st21" x1="976.1" y1="842" x2="976.1" y2="872"/>
		</g>
		<g>
			<rect x="881" y="842" class="st18" width="50" height="30"/>
			<line class="st21" x1="881" y1="848.4" x2="931" y2="848.4"/>
			<line class="st21" x1="922.9" y1="842" x2="922.9" y2="872"/>
			<line class="st21" x1="889.1" y1="842" x2="889.1" y2="872"/>
		</g>
		<line class="st22" x1="512" y1="822.1" x2="512" y2="852"/>
		<line class="st22" x1="359.8" y1="743.4" x2="359.8" y2="774.2"/>
		<line class="st22" x1="512" y1="664.7" x2="512" y2="694.6"/>
		<line class="st22" x1="368.2" y1="507.3" x2="368.2" y2="538"/>
	</g>
	<g id="neon_x5F_lights">
		<rect x="1068" y="612" class="st23" width="36" height="64"/>
		<rect x="728" y="524" class="st23" width="44" height="64"/>
		<rect x="336" y="412" class="st24" width="88" height="32"/>
		<rect x="816" y="464" class="st25" width="88" height="32"/>
	</g>
	<g id="underground">
		<rect x="-1540" y="1076" class="st4" width="5000" height="4"/>
		<rect x="-1540" y="1068" class="st3" width="5000" height="8"/>
		<rect x="-1540" y="1060" class="st4" width="5000" height="8"/>
		<rect x="-1540" y="984" class="st5" width="5000" height="72"/>
		<path class="st3" d="M1200,1042.9L1200,1042.9c0-4.3,2.2-8.4,5.8-10.8l150.9-101.9c2.2-1.5,4.7-2.2,7.3-2.2h22.9
			c7.2,0,13.1,5.8,13.1,13.1l0,0c0,4.3-2.2,8.4-5.8,10.8l-150.9,101.9c-2.2,1.5-4.7,2.2-7.3,2.2h-22.9
			C1205.8,1056,1200,1050.2,1200,1042.9z"/>
		<path class="st3" d="M296,1042.9L296,1042.9c0-4.3-2.2-8.4-5.8-10.8L139.3,930.2c-2.2-1.5-4.7-2.2-7.3-2.2h-22.9
			c-7.2,0-13.1,5.8-13.1,13.1l0,0c0,4.3,2.2,8.4,5.8,10.8l150.9,101.9c2.2,1.5,4.7,2.2,7.3,2.2h22.9
			C290.2,1056,296,1050.2,296,1042.9z"/>
		<rect x="-1540" y="960" class="st4" width="5000" height="24"/>
		<rect x="-1540" y="1056" class="st26" width="5000" height="4"/>
		<rect x="1084" y="1056" class="st27" width="40" height="4"/>
		<rect x="1084" y="1056" class="st27" width="40" height="4"/>
		<rect x="844" y="1056" class="st27" width="40" height="4"/>
		<rect x="604" y="1056" class="st27" width="40" height="4"/>
		<rect x="364" y="1056" class="st27" width="40" height="4"/>
		<rect x="912" y="996" class="st28" width="148" height="44"/>
		<rect x="916" y="1000" class="st24" width="140" height="36"/>
		<rect x="668" y="996" class="st28" width="148" height="44"/>
		<rect x="672" y="1000" class="st29" width="140" height="36"/>
		<rect x="432" y="996" class="st28" width="148" height="44"/>
		<rect x="436" y="1000" class="st23" width="140" height="36"/>
	</g>
	<g id="bart">
		<rect x="2040" y="1016" class="st4" width="12" height="52"/>
		<rect x="2212" y="1016" class="st4" width="12" height="52"/>
		<rect x="2520" y="1016" class="st4" width="12" height="52"/>
		<rect x="2692" y="1016" class="st4" width="12" height="52"/>
		<rect x="3004" y="1016" class="st4" width="12" height="52"/>
		<g>
			<path class="st13" d="M1977.4,1016.6c0.9-0.4,1.8-0.8,2.7-1.1C1979.2,1015.8,1978.3,1016.2,1977.4,1016.6z"/>
			<path class="st13" d="M1983.4,1014.3c4.1-1.3,8.3-2,12.6-2.2C1991.7,1012.3,1987.5,1013,1983.4,1014.3z"/>
			<path class="st13" d="M1980.4,1015.3c0.9-0.4,1.9-0.7,2.8-1C1982.3,1014.6,1981.4,1015,1980.4,1015.3z"/>
			<path class="st13" d="M1974.5,1018c0.9-0.5,1.7-0.9,2.6-1.3C1976.2,1017.1,1975.3,1017.6,1974.5,1018z"/>
			<path class="st13" d="M1971.5,1019.7c0.9-0.5,1.7-1,2.6-1.5C1973.3,1018.6,1972.4,1019.1,1971.5,1019.7z"/>
			<path class="st13" d="M1998.6,1012c-0.9,0-1.8,0-2.6,0.1v23.9h-51l5.9-3.6l-10,6.1c-5.7,3.5-9.5,9.2-10.6,15.8l-2.3,17.7h72h44
				v-60H1998.6z"/>
		</g>
		<g>
			<path class="st13" d="M3074.9,1016.7c0.9,0.4,1.8,0.8,2.6,1.3C3076.7,1017.6,3075.8,1017.1,3074.9,1016.7z"/>
			<path class="st13" d="M3071.9,1015.4c0.9,0.3,1.8,0.7,2.7,1.1C3073.7,1016.2,3072.8,1015.8,3071.9,1015.4z"/>
			<path class="st13" d="M3077.8,1018.2c0.9,0.5,1.8,1,2.6,1.5C3079.6,1019.1,3078.7,1018.6,3077.8,1018.2z"/>
			<path class="st13" d="M3121.7,1054.3c-1.1-6.6-5-12.3-10.6-15.8l-10-6.1l5.9,3.6h-51v-23.9c-0.9,0-1.7-0.1-2.6-0.1H3008v60h44h72
				L3121.7,1054.3z"/>
			<path class="st13" d="M3056,1012.1c4.3,0.2,8.5,1,12.6,2.2C3064.5,1013,3060.3,1012.3,3056,1012.1z"/>
			<path class="st13" d="M3068.8,1014.3c1,0.3,1.9,0.6,2.8,1C3070.6,1015,3069.7,1014.6,3068.8,1014.3z"/>
		</g>
		<path class="st13" d="M2048,1012v60h168v-60H2048z M2104,1036h-52v-20h52V1036z M2152,1060h-40v-44h40V1060z M2212,1036h-52v-20
			h52V1036z"/>
		<rect x="2112" y="1060" class="st5" width="40" height="4"/>
		<path class="st13" d="M2528,1012v60h168v-60H2528z M2584,1036h-52v-20h52V1036z M2632,1060h-40v-44h40V1060z M2692,1036h-52v-20
			h52V1036z"/>
		<rect x="2592" y="1060" class="st5" width="40" height="4"/>
		<path class="st13" d="M2220,1012v60h304v-60H2220z M2344,1036h-120v-20h120V1036z M2392,1060h-40v-44h40V1060z M2520,1036h-120
			v-20h120V1036z"/>
		<rect x="2352" y="1060" class="st5" width="40" height="4"/>
		<path class="st13" d="M2700,1012v60h304v-60H2700z M2824,1036h-120v-20h120V1036z M2872,1060h-40v-44h40V1060z M3000,1036h-120
			v-20h120V1036z"/>
		<rect x="2832" y="1060" class="st5" width="40" height="4"/>
		<g class="st6">
			<path class="st7" d="M1971.5,1019.7L1945,1036h51v-23.9C1987.4,1012.5,1978.9,1015.1,1971.5,1019.7z"/>
			<path class="st7" d="M3080.5,1019.7l26.5,16.3h-51v-23.9C3064.6,1012.5,3073.1,1015.1,3080.5,1019.7z"/>
			<rect x="2052" y="1016" class="st7" width="52" height="20"/>
			<rect x="2160" y="1016" class="st7" width="52" height="20"/>
			<rect x="2532" y="1016" class="st7" width="52" height="20"/>
			<rect x="2640" y="1016" class="st7" width="52" height="20"/>
			<rect x="2224" y="1016" class="st7" width="120" height="20"/>
			<rect x="2400" y="1016" class="st7" width="120" height="20"/>
			<rect x="2704" y="1016" class="st7" width="120" height="20"/>
			<rect x="2880" y="1016" class="st7" width="120" height="20"/>
		</g>
		<g>
			<path class="st8" d="M3008,1064h115l-1.2-9.7c-0.4-2.2-1.1-4.3-2-6.3H3008V1064z"/>
		</g>
		<polygon class="st8" points="2048,1064 2216,1064 2216,1048 2152,1048 2152,1060 2112,1060 2112,1048 2048,1048 		"/>
		<polygon class="st8" points="2528,1064 2696,1064 2696,1048 2632,1048 2632,1060 2592,1060 2592,1048 2528,1048 		"/>
		<polygon class="st8" points="2220,1064 2524,1064 2524,1048 2392,1048 2392,1060 2352,1060 2352,1048 2220,1048 		"/>
		<polygon class="st8" points="2700,1064 3004,1064 3004,1048 2872,1048 2872,1060 2832,1060 2832,1048 2700,1048 		"/>
		<g>
			<path class="st8" d="M1996,1012.1"/>
			<path class="st8" d="M2044,1064v-16h-111.7c-1,2-1.7,4.1-2,6.3l-1.2,9.7H2044z"/>
		</g>
		<g>
			<rect x="2832" y="1016" class="st13" width="20" height="48"/>
			<rect x="2852" y="1016" class="st13" width="20" height="48"/>
		</g>
		<g>
			<rect x="2112" y="1016" class="st13" width="20" height="48"/>
			<rect x="2132" y="1016" class="st13" width="20" height="48"/>
		</g>
		<g>
			<rect x="2352" y="1016" class="st13" width="20" height="48"/>
			<rect x="2372" y="1016" class="st13" width="20" height="48"/>
		</g>
		<g>
			<rect x="2592" y="1016" class="st13" width="20" height="48"/>
			<rect x="2612" y="1016" class="st13" width="20" height="48"/>
		</g>
	</g>
	<g id="street">
		<rect x="-1540" y="952" class="st15" width="5000" height="8"/>
	</g>
	<g id="subway_x5F_exit">
		<rect x="1300" y="900" class="st30" width="120" height="52"/>
		<rect x="1280" y="892" class="st3" width="148" height="8"/>
		<rect x="1288" y="900" class="st5" width="12" height="52"/>
		<rect x="76" y="900" class="st30" width="120" height="52"/>
		<rect x="68" y="892" class="st3" width="148" height="8"/>
		<rect x="196" y="900" class="st5" width="12" height="52"/>
	</g>
	<g id="sidewalk">
	</g>
	<polyline class="st31" points="1216.2,122.3 1216.2,110 1127.2,110 1127.2,124 	"/>
	<rect x="1076.1" y="108.4" class="st0" width="12.6" height="12.6"/>
	<rect x="232.5" y="190.2" class="st32" width="26.8" height="14.4"/>
</g>
<g id="Layer_2">
</g>
</svg>
