<svg id="Layer_1" data-name="Layer 1" xmlns="http://www.w3.org/2000/svg" xmlns:xlink="http://www.w3.org/1999/xlink" viewBox="0 0 1920 1080">
  <defs>
    <style>
      .cls-1 {
        fill: #b0acb0;
      }

      .cls-2 {
        fill: #666;
      }

      .cls-12, .cls-20, .cls-21, .cls-3, .cls-30, .cls-31 {
        fill: none;
      }

      .cls-3 {
        stroke: #666;
        stroke-width: 5px;
      }

      .cls-3, .cls-31 {
        stroke-linejoin: round;
      }

      .cls-4 {
        fill: gray;
      }

      .cls-5 {
        fill: url(#linear-gradient);
      }

      .cls-6 {
        fill: url(#linear-gradient-2);
      }

      .cls-7 {
        fill: url(#linear-gradient-3);
      }

      .cls-8 {
        fill: url(#linear-gradient-4);
      }

      .cls-9 {
        fill: #4d4d4d;
      }

      .cls-10 {
        opacity: 0.4;
      }

      .cls-11, .cls-29 {
        fill: #29abe2;
      }

      .cls-12, .cls-31 {
        stroke: #4d4d4d;
      }

      .cls-12, .cls-20, .cls-21, .cls-30 {
        stroke-miterlimit: 10;
      }

      .cls-13 {
        fill: #333;
      }

      .cls-14 {
        fill: #ddc72c;
      }

      .cls-15 {
        fill: aqua;
      }

      .cls-16 {
        fill: #b3b3b3;
      }

      .cls-17 {
        fill: #fff19f;
      }

      .cls-18 {
        fill: #d9e021;
      }

      .cls-19 {
        fill: #04a39f;
      }

      .cls-20 {
        stroke: #000;
      }

      .cls-21 {
        stroke: #333;
      }

      .cls-21, .cls-30 {
        stroke-width: 2px;
      }

      .cls-22 {
        fill: lime;
      }

      .cls-23 {
        fill: #f0f;
      }

      .cls-24 {
        fill: #f7931e;
      }

      .cls-25 {
        fill: #e6e6e6;
      }

      .cls-26 {
        fill: #ff0;
      }

      .cls-27 {
        fill: #ccc;
      }

      .cls-28 {
        fill: #662d91;
      }

      .cls-29 {
        opacity: 0.5;
        isolation: isolate;
      }

      .cls-30 {
        stroke: #b0acb0;
      }

      .cls-31 {
        stroke-width: 4px;
      }
    </style>
    <linearGradient id="linear-gradient" x1="1358.93" y1="912.67" x2="1358.93" y2="683.66" gradientTransform="matrix(0.83, 0.56, 0.56, -0.83, -229.47, 208.07)" gradientUnits="userSpaceOnUse">
      <stop offset="0" stop-color="#6cb5e4" stop-opacity="0"/>
      <stop offset="0.16" stop-color="#63b0df" stop-opacity="0.16"/>
      <stop offset="0.43" stop-color="#49a1d1" stop-opacity="0.43"/>
      <stop offset="0.77" stop-color="#2089ba" stop-opacity="0.77"/>
      <stop offset="1" stop-color="#0077a9"/>
    </linearGradient>
    <linearGradient id="linear-gradient-2" x1="1358.94" y1="912.69" x2="1358.94" y2="683.67" gradientTransform="translate(2777.53 208.07) rotate(145.94)" xlink:href="#linear-gradient"/>
    <linearGradient id="linear-gradient-3" x1="1646.92" y1="1211.71" x2="1646.92" y2="982.67" gradientTransform="matrix(-2.15, 0.66, -0.29, -0.96, 4620.08, 182.95)" xlink:href="#linear-gradient"/>
    <linearGradient id="linear-gradient-4" x1="1806.14" y1="1286.99" x2="1806.14" y2="1058.02" gradientTransform="matrix(-1.4, -0.95, 0.88, -1.3, 1906.19, 3434.82)" xlink:href="#linear-gradient"/>
  </defs>
  <g id="Layer_1-2" data-name="Layer 1">
    <g id="layer_4">
      <polygon class="cls-1" points="572 212 384 268 384 952 608 952 572 212"/>
      <rect class="cls-1" x="1716" y="296" width="288" height="660"/>
      <rect class="cls-1" x="956" y="120" width="268" height="880"/>
      <g>
        <polygon class="cls-1" points="1677.4 123 1434.9 36 1434.9 957 1677.4 957 1677.4 123"/>
        <rect class="cls-1" x="1412" y="155" width="283.7" height="22.9"/>
      </g>
      <path class="cls-1" d="M162.4,57.7c-74,0-134,27.9-134,62.3v880h268V120C296.4,85.6,236.4,57.7,162.4,57.7Z"/>
      <rect class="cls-1" x="1009.9" y="83" width="28.7" height="28.7"/>
      <rect class="cls-1" x="1097.8" y="87" width="24.1" height="34"/>
      <rect class="cls-1" x="1009.9" y="103.9" width="4.1" height="21.8"/>
      <rect class="cls-1" x="1029.9" y="103.9" width="4.1" height="21.8"/>
    </g>
    <g id="layer_3">
      <rect class="cls-2" x="1612" y="244" width="264" height="712"/>
      <rect class="cls-2" x="1760.2" y="211.6" width="44.1" height="22.3"/>
      <rect class="cls-2" x="1797" y="228.9" width="7.3" height="20.1"/>
      <rect class="cls-2" x="1767" y="228.9" width="7.3" height="20.1"/>
      <rect class="cls-2" x="1660.8" y="212.6" width="32.4" height="32.4"/>
      <polyline class="cls-3" points="1689.8 222.8 1709.4 222.8 1709.4 253.5"/>
    </g>
    <g id="bart_rail_bg">
      <rect class="cls-4" x="1508" y="648" width="1660" height="8"/>
    </g>
    <g id="layer_2">
      <polygon class="cls-5" points="1424.4 224.6 1390.5 201.7 1262.3 391.4 1296.1 414.3 1424.4 224.6"/>
      <polygon class="cls-6" points="1123.7 224.6 1157.5 201.7 1285.8 391.4 1251.9 414.3 1123.7 224.6"/>
      <polygon class="cls-7" points="679.5 125.5 767.3 98.5 834.5 317.4 746.7 344.4 679.5 125.5"/>
      <polygon class="cls-8" points="475.8 34.1 533.1 72.8 332.2 369.9 274.9 331.2 475.8 34.1"/>
      <rect class="cls-9" x="1500" y="656" width="1248" height="36"/>
      <rect class="cls-9" x="488" y="384" width="284" height="572"/>
      <rect class="cls-9" x="128" y="202" width="212" height="754"/>
      <rect class="cls-2" x="744" y="248" width="248" height="708"/>
      <rect class="cls-9" x="1508" y="577" width="28" height="12"/>
      <path class="cls-9" d="M1008,384V956h500V384Zm86.6,261.6H1031V412.4h63.6Zm78.1.8h-63.6V413.2h63.6Zm78.1.8h-63.6V414h63.6Zm78,.8h-63.6V414.8h63.6Zm78.1.8h-63.6V415.6h63.6Zm78.1.8h-63.6V416.4H1485Z"/>
      <g class="cls-10">
        <rect class="cls-11" x="1421.4" y="416.4" width="63.6" height="233.1"/>
        <rect class="cls-11" x="1343.3" y="415.6" width="63.6" height="233.1"/>
        <rect class="cls-11" x="1265.2" y="414.8" width="63.6" height="233.1"/>
        <rect class="cls-11" x="1187.2" y="414" width="63.6" height="233.1"/>
        <rect class="cls-11" x="1109.1" y="413.2" width="63.6" height="233.1"/>
        <rect class="cls-11" x="1031" y="412.4" width="63.6" height="233.1"/>
      </g>
      <line class="cls-12" x1="1031" y1="451.2" x2="1485" y2="451.2"/>
      <line class="cls-12" x1="1031" y1="491.2" x2="1485" y2="491.2"/>
      <line class="cls-12" x1="1031" y1="531.2" x2="1485" y2="531.2"/>
      <line class="cls-12" x1="1031" y1="571.2" x2="1485" y2="571.2"/>
      <line class="cls-12" x1="1031" y1="611.2" x2="1485" y2="611.2"/>
      <circle class="cls-9" cx="287.2" cy="184.8" r="12.3"/>
      <rect class="cls-9" x="287.2" y="190.4" width="6.1" height="21.6"/>
    </g>
    <g id="layer_1-3" data-name="layer_1">
      <rect class="cls-13" x="1112" y="568" width="284" height="388"/>
      <rect class="cls-13" x="804" y="512" width="224" height="444"/>
      <rect class="cls-13" x="320" y="460" width="224" height="496.3"/>
      <rect class="cls-13" x="568" y="600" width="212" height="356"/>
      <rect class="cls-13" x="1028" y="744" width="84" height="8"/>
      <rect class="cls-13" x="1064" y="592" width="48" height="4"/>
      <rect class="cls-13" x="1072" y="596" width="4" height="12"/>
      <rect class="cls-13" x="1096" y="596" width="4" height="12"/>
      <rect class="cls-13" x="1064" y="608" width="44" height="72"/>
      <rect class="cls-13" x="760" y="592" width="4" height="8"/>
      <rect class="cls-13" x="736" y="592" width="4" height="8"/>
      <rect class="cls-13" x="724" y="520" width="52" height="72"/>
      <rect class="cls-13" x="824" y="500" width="4" height="12"/>
      <rect class="cls-13" x="892" y="500" width="4" height="12"/>
      <rect class="cls-13" x="812" y="460" width="96" height="40"/>
      <rect class="cls-13" x="344" y="448" width="4" height="12"/>
      <rect class="cls-13" x="412" y="448" width="4" height="12"/>
      <rect class="cls-13" x="332" y="408" width="96" height="40"/>
      <rect class="cls-13" x="-24" y="308" width="240" height="648"/>
      <rect class="cls-13" x="936" y="508" width="4" height="4"/>
      <rect class="cls-13" x="948" y="508" width="4" height="4"/>
      <rect class="cls-13" x="932" y="496" width="24" height="12"/>
      <polygon class="cls-13" points="980 500 980 504 976 504 976 508 976 512 980 512 980 508 984 508 984 504 984 500 980 500"/>
      <polygon class="cls-13" points="492 460 512 460 512 436 492 432 492 460"/>
      <rect class="cls-13" x="636" y="576" width="4" height="24"/>
      <rect class="cls-13" x="632" y="580" width="12" height="4"/>
      <rect class="cls-13" x="632" y="588" width="12" height="4"/>
      <path class="cls-13" d="M602,580h-8a10,10,0,0,0-10,10v10h28V590A10,10,0,0,0,602,580Z"/>
      <polygon class="cls-13" points="480 436 472 436 468 436 468 440 468 444 472 444 472 440 480 440 480 460 484 460 484 440 484 436 480 436"/>
      <path class="cls-13" d="M212,556v52H324V556Zm52,40H220V560h44Zm52,0H272V560h44Z"/>
      <g>
        <g>
          <rect class="cls-14" x="1126" y="582" width="36.1" height="23.2"/>
          <rect class="cls-14" x="1126" y="612.5" width="36.1" height="23.2"/>
          <rect class="cls-14" x="1126" y="643.1" width="36.1" height="23.2"/>
          <rect class="cls-14" x="1126" y="673.6" width="36.1" height="23.2"/>
          <rect class="cls-14" x="1126" y="704.1" width="36.1" height="23.2"/>
          <rect class="cls-14" x="1126" y="734.7" width="36.1" height="23.2"/>
          <rect class="cls-14" x="1126" y="765.2" width="36.1" height="23.2"/>
          <rect class="cls-14" x="1126" y="795.8" width="36.1" height="23.2"/>
          <rect class="cls-14" x="1126" y="826.3" width="36.1" height="23.2"/>
          <rect class="cls-14" x="1126" y="856.8" width="36.1" height="23.2"/>
        </g>
        <g>
          <rect class="cls-14" x="1177.6" y="582" width="36.1" height="23.2"/>
          <rect class="cls-14" x="1177.6" y="612.5" width="36.1" height="23.2"/>
          <rect class="cls-14" x="1177.6" y="643.1" width="36.1" height="23.2"/>
          <rect class="cls-14" x="1177.6" y="673.6" width="36.1" height="23.2"/>
          <rect class="cls-14" x="1177.6" y="704.1" width="36.1" height="23.2"/>
          <rect class="cls-14" x="1177.6" y="734.7" width="36.1" height="23.2"/>
          <rect class="cls-14" x="1177.6" y="765.2" width="36.1" height="23.2"/>
          <rect class="cls-14" x="1177.6" y="795.8" width="36.1" height="23.2"/>
          <rect class="cls-14" x="1177.6" y="826.3" width="36.1" height="23.2"/>
          <rect class="cls-14" x="1177.6" y="856.8" width="36.1" height="23.2"/>
        </g>
        <g>
          <rect class="cls-14" x="1347.9" y="582" width="36.1" height="23.2"/>
          <rect class="cls-14" x="1347.9" y="612.5" width="36.1" height="23.2"/>
          <rect class="cls-14" x="1347.9" y="643.1" width="36.1" height="23.2"/>
          <rect class="cls-14" x="1347.9" y="673.6" width="36.1" height="23.2"/>
          <rect class="cls-14" x="1347.9" y="704.1" width="36.1" height="23.2"/>
          <rect class="cls-14" x="1347.9" y="734.7" width="36.1" height="23.2"/>
          <rect class="cls-14" x="1347.9" y="765.2" width="36.1" height="23.2"/>
          <rect class="cls-14" x="1347.9" y="795.8" width="36.1" height="23.2"/>
          <rect class="cls-14" x="1347.9" y="826.3" width="36.1" height="23.2"/>
          <rect class="cls-14" x="1347.9" y="856.8" width="36.1" height="23.2"/>
        </g>
        <g>
          <rect class="cls-14" x="1296.3" y="582" width="36.1" height="23.2"/>
          <rect class="cls-14" x="1296.3" y="612.5" width="36.1" height="23.2"/>
          <rect class="cls-14" x="1296.3" y="643.1" width="36.1" height="23.2"/>
          <rect class="cls-14" x="1296.3" y="673.6" width="36.1" height="23.2"/>
          <rect class="cls-14" x="1296.3" y="704.1" width="36.1" height="23.2"/>
          <rect class="cls-14" x="1296.3" y="734.7" width="36.1" height="23.2"/>
          <rect class="cls-14" x="1296.3" y="765.2" width="36.1" height="23.2"/>
          <rect class="cls-14" x="1296.3" y="795.8" width="36.1" height="23.2"/>
          <rect class="cls-14" x="1296.3" y="826.3" width="36.1" height="23.2"/>
          <rect class="cls-14" x="1296.3" y="856.8" width="36.1" height="23.2"/>
        </g>
        <g>
          <rect class="cls-14" x="1229.2" y="582" width="51.6" height="23.2"/>
          <rect class="cls-14" x="1229.2" y="612.5" width="51.6" height="23.2"/>
          <rect class="cls-14" x="1229.2" y="643.1" width="51.6" height="23.2"/>
          <rect class="cls-14" x="1229.2" y="673.6" width="51.6" height="23.2"/>
          <rect class="cls-14" x="1229.2" y="704.1" width="51.6" height="23.2"/>
          <rect class="cls-14" x="1229.2" y="734.7" width="51.6" height="23.2"/>
          <rect class="cls-14" x="1229.2" y="765.2" width="51.6" height="23.2"/>
          <rect class="cls-14" x="1229.2" y="795.8" width="51.6" height="23.2"/>
          <rect class="cls-14" x="1229.2" y="826.3" width="51.6" height="23.2"/>
          <rect class="cls-14" x="1229.2" y="856.8" width="51.6" height="23.2"/>
        </g>
      </g>
      <g>
        <rect class="cls-14" x="580" y="612" width="28" height="19.3"/>
        <rect class="cls-15" x="580" y="637.4" width="28" height="19.3"/>
        <rect class="cls-14" x="580" y="662.8" width="28" height="19.3"/>
        <rect class="cls-15" x="580" y="688.2" width="28" height="19.3"/>
        <rect class="cls-14" x="580" y="713.6" width="28" height="19.3"/>
        <rect class="cls-14" x="580" y="739.1" width="28" height="19.3"/>
        <rect class="cls-14" x="580" y="764.5" width="28" height="19.3"/>
        <rect class="cls-15" x="580" y="789.9" width="28" height="19.3"/>
        <rect class="cls-14" x="580" y="815.3" width="28" height="19.3"/>
        <rect class="cls-14" x="580" y="840.7" width="28" height="19.3"/>
      </g>
      <g>
        <rect class="cls-14" x="620" y="612" width="28" height="19.3"/>
        <rect class="cls-15" x="620" y="637.4" width="28" height="19.3"/>
        <rect class="cls-14" x="620" y="662.8" width="28" height="19.3"/>
        <rect class="cls-14" x="620" y="688.2" width="28" height="19.3"/>
        <rect class="cls-15" x="620" y="713.6" width="28" height="19.3"/>
        <rect class="cls-14" x="620" y="739.1" width="28" height="19.3"/>
        <rect class="cls-15" x="620" y="764.5" width="28" height="19.3"/>
        <rect class="cls-14" x="620" y="789.9" width="28" height="19.3"/>
        <rect class="cls-14" x="620" y="815.3" width="28" height="19.3"/>
        <rect class="cls-15" x="620" y="840.7" width="28" height="19.3"/>
      </g>
      <g>
        <rect class="cls-15" x="700" y="612" width="28" height="19.3"/>
        <rect class="cls-14" x="700" y="637.4" width="28" height="19.3"/>
        <rect class="cls-15" x="700" y="662.8" width="28" height="19.3"/>
        <rect class="cls-14" x="700" y="688.2" width="28" height="19.3"/>
        <rect class="cls-14" x="700" y="713.6" width="28" height="19.3"/>
        <rect class="cls-15" x="700" y="739.1" width="28" height="19.3"/>
        <rect class="cls-14" x="700" y="764.5" width="28" height="19.3"/>
        <rect class="cls-15" x="700" y="789.9" width="28" height="19.3"/>
        <rect class="cls-14" x="700" y="815.3" width="28" height="19.3"/>
        <rect class="cls-14" x="700" y="840.7" width="28" height="19.3"/>
      </g>
      <g>
        <rect class="cls-14" x="660" y="612" width="28" height="19.3"/>
        <rect class="cls-14" x="660" y="637.4" width="28" height="19.3"/>
        <rect class="cls-15" x="660" y="662.8" width="28" height="19.3"/>
        <rect class="cls-14" x="660" y="688.2" width="28" height="19.3"/>
        <rect class="cls-14" x="660" y="713.6" width="28" height="19.3"/>
        <rect class="cls-15" x="660" y="739.1" width="28" height="19.3"/>
        <rect class="cls-14" x="660" y="764.5" width="28" height="19.3"/>
        <rect class="cls-14" x="660" y="789.9" width="28" height="19.3"/>
        <rect class="cls-15" x="660" y="815.3" width="28" height="19.3"/>
        <rect class="cls-14" x="660" y="840.7" width="28" height="19.3"/>
      </g>
      <g>
        <rect class="cls-16" x="436" y="468" width="100" height="29.9"/>
        <rect class="cls-16" x="436" y="507.3" width="100" height="29.9"/>
        <rect class="cls-17" x="436" y="546.7" width="100" height="29.9"/>
        <rect class="cls-16" x="436" y="586" width="100" height="29.9"/>
        <rect class="cls-16" x="436" y="625.4" width="100" height="29.9"/>
        <rect class="cls-17" x="436" y="664.7" width="100" height="29.9"/>
        <rect class="cls-16" x="436" y="704.1" width="100" height="29.9"/>
        <rect class="cls-17" x="436" y="743.4" width="100" height="29.9"/>
        <rect class="cls-17" x="436" y="782.8" width="100" height="29.9"/>
        <rect class="cls-17" x="436" y="822.1" width="100" height="29.9"/>
      </g>
      <g>
        <rect class="cls-13" x="1633.3" y="824" width="321.4" height="12"/>
        <rect class="cls-13" x="1633.3" y="772" width="321.4" height="12"/>
        <rect class="cls-13" x="1633.3" y="876" width="321.4" height="80"/>
        <rect class="cls-13" x="1633.3" y="605.2" width="321.4" height="22.8"/>
        <rect class="cls-13" x="1633.3" y="720" width="321.4" height="12"/>
        <rect class="cls-13" x="1633.3" y="668" width="321.4" height="12"/>
      </g>
      <g>
        <rect class="cls-16" x="328" y="468" width="100" height="29.9"/>
        <rect class="cls-17" x="328" y="507.3" width="100" height="29.9"/>
        <rect class="cls-16" x="328" y="546.7" width="100" height="29.9"/>
        <rect class="cls-17" x="328" y="586" width="100" height="29.9"/>
        <rect class="cls-16" x="328" y="625.4" width="100" height="29.9"/>
        <rect class="cls-17" x="328" y="664.7" width="100" height="29.9"/>
        <rect class="cls-16" x="328" y="704.1" width="100" height="29.9"/>
        <rect class="cls-17" x="328" y="743.4" width="100" height="29.9"/>
        <rect class="cls-16" x="328" y="782.8" width="100" height="29.9"/>
        <rect class="cls-16" x="328" y="822.1" width="100" height="29.9"/>
      </g>
      <g>
        <rect class="cls-14" x="740" y="612" width="28" height="19.3"/>
        <rect class="cls-14" x="740" y="637.4" width="28" height="19.3"/>
        <rect class="cls-14" x="740" y="662.8" width="28" height="19.3"/>
        <rect class="cls-15" x="740" y="688.2" width="28" height="19.3"/>
        <rect class="cls-14" x="740" y="713.6" width="28" height="19.3"/>
        <rect class="cls-14" x="740" y="739.1" width="28" height="19.3"/>
        <rect class="cls-14" x="740" y="764.5" width="28" height="19.3"/>
        <rect class="cls-14" x="740" y="789.9" width="28" height="19.3"/>
        <rect class="cls-15" x="740" y="815.3" width="28" height="19.3"/>
        <rect class="cls-14" x="740" y="840.7" width="28" height="19.3"/>
      </g>
      <g>
        <rect class="cls-18" x="104" y="320" width="40.9" height="18.5"/>
        <rect class="cls-18" x="104" y="344.4" width="40.9" height="18.5"/>
        <rect class="cls-18" x="104" y="368.8" width="40.9" height="18.5"/>
        <rect class="cls-18" x="104" y="393.2" width="40.9" height="18.5"/>
        <rect class="cls-18" x="104" y="417.6" width="40.9" height="18.5"/>
        <rect class="cls-18" x="104" y="441.9" width="40.9" height="18.5"/>
        <rect class="cls-18" x="104" y="466.3" width="40.9" height="18.5"/>
        <rect class="cls-18" x="104" y="490.7" width="40.9" height="18.5"/>
        <rect class="cls-18" x="104" y="515.1" width="40.9" height="18.5"/>
        <rect class="cls-18" x="104" y="539.5" width="40.9" height="18.5"/>
      </g>
      <g>
        <rect class="cls-18" x="162.4" y="320" width="40.9" height="18.5"/>
        <rect class="cls-18" x="162.4" y="344.4" width="40.9" height="18.5"/>
        <rect class="cls-18" x="162.4" y="368.8" width="40.9" height="18.5"/>
        <rect class="cls-18" x="162.4" y="393.2" width="40.9" height="18.5"/>
        <rect class="cls-18" x="162.4" y="417.6" width="40.9" height="18.5"/>
        <rect class="cls-18" x="162.4" y="441.9" width="40.9" height="18.5"/>
        <rect class="cls-18" x="162.4" y="466.3" width="40.9" height="18.5"/>
        <rect class="cls-18" x="162.4" y="490.7" width="40.9" height="18.5"/>
        <rect class="cls-18" x="162.4" y="515.1" width="40.9" height="18.5"/>
        <rect class="cls-18" x="162.4" y="539.5" width="40.9" height="18.5"/>
      </g>
      <g>
        <rect class="cls-18" x="-11.3" y="320" width="40.9" height="18.5"/>
        <rect class="cls-18" x="-11.3" y="344.4" width="40.9" height="18.5"/>
        <rect class="cls-18" x="-11.3" y="368.8" width="40.9" height="18.5"/>
        <rect class="cls-18" x="-11.3" y="393.2" width="40.9" height="18.5"/>
        <rect class="cls-18" x="-11.3" y="417.6" width="40.9" height="18.5"/>
        <rect class="cls-18" x="-11.3" y="441.9" width="40.9" height="18.5"/>
        <rect class="cls-18" x="-11.3" y="466.3" width="40.9" height="18.5"/>
        <rect class="cls-18" x="-11.3" y="490.7" width="40.9" height="18.5"/>
        <rect class="cls-18" x="-11.3" y="515.1" width="40.9" height="18.5"/>
        <rect class="cls-18" x="-11.3" y="539.5" width="40.9" height="18.5"/>
      </g>
      <g>
        <rect class="cls-18" x="47.1" y="320" width="40.9" height="18.5"/>
        <rect class="cls-18" x="47.1" y="344.4" width="40.9" height="18.5"/>
        <rect class="cls-18" x="47.1" y="368.8" width="40.9" height="18.5"/>
        <rect class="cls-18" x="47.1" y="393.2" width="40.9" height="18.5"/>
        <rect class="cls-18" x="47.1" y="417.6" width="40.9" height="18.5"/>
        <rect class="cls-18" x="47.1" y="441.9" width="40.9" height="18.5"/>
        <rect class="cls-18" x="47.1" y="466.3" width="40.9" height="18.5"/>
        <rect class="cls-18" x="47.1" y="490.7" width="40.9" height="18.5"/>
        <rect class="cls-18" x="47.1" y="515.1" width="40.9" height="18.5"/>
        <rect class="cls-18" x="47.1" y="539.5" width="40.9" height="18.5"/>
      </g>
      <g>
        <rect class="cls-18" x="104" y="564" width="40.9" height="18.5"/>
        <rect class="cls-18" x="104" y="588.4" width="40.9" height="18.5"/>
        <rect class="cls-18" x="104" y="612.8" width="40.9" height="18.5"/>
        <rect class="cls-18" x="104" y="637.2" width="40.9" height="18.5"/>
        <rect class="cls-18" x="104" y="661.6" width="40.9" height="18.5"/>
        <rect class="cls-18" x="104" y="685.9" width="40.9" height="18.5"/>
        <rect class="cls-18" x="104" y="710.3" width="40.9" height="18.5"/>
        <rect class="cls-18" x="104" y="734.7" width="40.9" height="18.5"/>
        <rect class="cls-18" x="104" y="759.1" width="40.9" height="18.5"/>
        <rect class="cls-18" x="104" y="783.5" width="40.9" height="18.5"/>
      </g>
      <g>
        <rect class="cls-18" x="162.4" y="564" width="40.9" height="18.5"/>
        <rect class="cls-18" x="162.4" y="588.4" width="40.9" height="18.5"/>
        <rect class="cls-18" x="162.4" y="612.8" width="40.9" height="18.5"/>
        <rect class="cls-18" x="162.4" y="637.2" width="40.9" height="18.5"/>
        <rect class="cls-18" x="162.4" y="661.6" width="40.9" height="18.5"/>
        <rect class="cls-18" x="162.4" y="685.9" width="40.9" height="18.5"/>
        <rect class="cls-18" x="162.4" y="710.3" width="40.9" height="18.5"/>
        <rect class="cls-18" x="162.4" y="734.7" width="40.9" height="18.5"/>
        <rect class="cls-18" x="162.4" y="759.1" width="40.9" height="18.5"/>
        <rect class="cls-18" x="162.4" y="783.5" width="40.9" height="18.5"/>
      </g>
      <g>
        <rect class="cls-18" x="-11.3" y="564" width="40.9" height="18.5"/>
        <rect class="cls-18" x="-11.3" y="588.4" width="40.9" height="18.5"/>
        <rect class="cls-18" x="-11.3" y="612.8" width="40.9" height="18.5"/>
        <rect class="cls-18" x="-11.3" y="637.2" width="40.9" height="18.5"/>
        <rect class="cls-18" x="-11.3" y="661.6" width="40.9" height="18.5"/>
        <rect class="cls-18" x="-11.3" y="685.9" width="40.9" height="18.5"/>
        <rect class="cls-18" x="-11.3" y="710.3" width="40.9" height="18.5"/>
        <rect class="cls-18" x="-11.3" y="734.7" width="40.9" height="18.5"/>
        <rect class="cls-18" x="-11.3" y="759.1" width="40.9" height="18.5"/>
        <rect class="cls-18" x="-11.3" y="783.5" width="40.9" height="18.5"/>
      </g>
      <g>
        <rect class="cls-18" x="47.1" y="564" width="40.9" height="18.5"/>
        <rect class="cls-18" x="47.1" y="588.4" width="40.9" height="18.5"/>
        <rect class="cls-18" x="47.1" y="612.8" width="40.9" height="18.5"/>
        <rect class="cls-18" x="47.1" y="637.2" width="40.9" height="18.5"/>
        <rect class="cls-18" x="47.1" y="661.6" width="40.9" height="18.5"/>
        <rect class="cls-18" x="47.1" y="685.9" width="40.9" height="18.5"/>
        <rect class="cls-18" x="47.1" y="710.3" width="40.9" height="18.5"/>
        <rect class="cls-18" x="47.1" y="734.7" width="40.9" height="18.5"/>
        <rect class="cls-18" x="47.1" y="759.1" width="40.9" height="18.5"/>
        <rect class="cls-18" x="47.1" y="783.5" width="40.9" height="18.5"/>
      </g>
      <rect class="cls-19" x="1640" y="628" width="308" height="40"/>
      <rect class="cls-19" x="1640" y="680" width="308" height="40"/>
      <rect class="cls-19" x="1640" y="732" width="308" height="40"/>
      <rect class="cls-19" x="1640" y="784" width="308" height="40"/>
      <rect class="cls-19" x="1640" y="836" width="308" height="40"/>
      <g>
        <rect class="cls-2" x="814" y="522" width="50" height="30"/>
        <line class="cls-20" x1="814" y1="528.4" x2="864" y2="528.4"/>
        <line class="cls-20" x1="855.9" y1="522" x2="855.9" y2="552"/>
        <line class="cls-20" x1="822.1" y1="522" x2="822.1" y2="552"/>
      </g>
      <g>
        <rect class="cls-15" x="968" y="522" width="50" height="30"/>
        <line class="cls-20" x1="968" y1="528.4" x2="1018" y2="528.4"/>
        <line class="cls-20" x1="1009.9" y1="522" x2="1009.9" y2="552"/>
        <line class="cls-20" x1="976.1" y1="522" x2="976.1" y2="552"/>
      </g>
      <g>
        <rect class="cls-17" x="881" y="522" width="50" height="30"/>
        <line class="cls-20" x1="881" y1="528.4" x2="931" y2="528.4"/>
        <line class="cls-20" x1="922.9" y1="522" x2="922.9" y2="552"/>
        <line class="cls-20" x1="889.1" y1="522" x2="889.1" y2="552"/>
      </g>
      <g>
        <rect class="cls-15" x="814" y="562" width="50" height="30"/>
        <line class="cls-20" x1="814" y1="568.4" x2="864" y2="568.4"/>
        <line class="cls-20" x1="855.9" y1="562" x2="855.9" y2="592"/>
        <line class="cls-20" x1="822.1" y1="562" x2="822.1" y2="592"/>
      </g>
      <g>
        <rect class="cls-17" x="968" y="562" width="50" height="30"/>
        <line class="cls-20" x1="968" y1="568.4" x2="1018" y2="568.4"/>
        <line class="cls-20" x1="1009.9" y1="562" x2="1009.9" y2="592"/>
        <line class="cls-20" x1="976.1" y1="562" x2="976.1" y2="592"/>
      </g>
      <g>
        <rect class="cls-15" x="881" y="562" width="50" height="30"/>
        <line class="cls-20" x1="881" y1="568.4" x2="931" y2="568.4"/>
        <line class="cls-20" x1="922.9" y1="562" x2="922.9" y2="592"/>
        <line class="cls-20" x1="889.1" y1="562" x2="889.1" y2="592"/>
      </g>
      <g>
        <rect class="cls-17" x="814" y="602" width="50" height="30"/>
        <line class="cls-20" x1="814" y1="608.4" x2="864" y2="608.4"/>
        <line class="cls-20" x1="855.9" y1="602" x2="855.9" y2="632"/>
        <line class="cls-20" x1="822.1" y1="602" x2="822.1" y2="632"/>
      </g>
      <g>
        <rect class="cls-2" x="968" y="602" width="50" height="30"/>
        <line class="cls-20" x1="968" y1="608.4" x2="1018" y2="608.4"/>
        <line class="cls-20" x1="1009.9" y1="602" x2="1009.9" y2="632"/>
        <line class="cls-20" x1="976.1" y1="602" x2="976.1" y2="632"/>
      </g>
      <g>
        <rect class="cls-15" x="881" y="602" width="50" height="30"/>
        <line class="cls-20" x1="881" y1="608.4" x2="931" y2="608.4"/>
        <line class="cls-20" x1="922.9" y1="602" x2="922.9" y2="632"/>
        <line class="cls-20" x1="889.1" y1="602" x2="889.1" y2="632"/>
      </g>
      <g>
        <rect class="cls-2" x="814" y="642" width="50" height="30"/>
        <line class="cls-20" x1="814" y1="648.4" x2="864" y2="648.4"/>
        <line class="cls-20" x1="855.9" y1="642" x2="855.9" y2="672"/>
        <line class="cls-20" x1="822.1" y1="642" x2="822.1" y2="672"/>
      </g>
      <g>
        <rect class="cls-15" x="968" y="642" width="50" height="30"/>
        <line class="cls-20" x1="968" y1="648.4" x2="1018" y2="648.4"/>
        <line class="cls-20" x1="1009.9" y1="642" x2="1009.9" y2="672"/>
        <line class="cls-20" x1="976.1" y1="642" x2="976.1" y2="672"/>
      </g>
      <g>
        <rect class="cls-17" x="881" y="642" width="50" height="30"/>
        <line class="cls-20" x1="881" y1="648.4" x2="931" y2="648.4"/>
        <line class="cls-20" x1="922.9" y1="642" x2="922.9" y2="672"/>
        <line class="cls-20" x1="889.1" y1="642" x2="889.1" y2="672"/>
      </g>
      <g>
        <rect class="cls-15" x="814" y="682" width="50" height="30"/>
        <line class="cls-20" x1="814" y1="688.4" x2="864" y2="688.4"/>
        <line class="cls-20" x1="855.9" y1="682" x2="855.9" y2="712"/>
        <line class="cls-20" x1="822.1" y1="682" x2="822.1" y2="712"/>
      </g>
      <g>
        <rect class="cls-2" x="968" y="682" width="50" height="30"/>
        <line class="cls-20" x1="968" y1="688.4" x2="1018" y2="688.4"/>
        <line class="cls-20" x1="1009.9" y1="682" x2="1009.9" y2="712"/>
        <line class="cls-20" x1="976.1" y1="682" x2="976.1" y2="712"/>
      </g>
      <g>
        <rect class="cls-15" x="881" y="682" width="50" height="30"/>
        <line class="cls-20" x1="881" y1="688.4" x2="931" y2="688.4"/>
        <line class="cls-20" x1="922.9" y1="682" x2="922.9" y2="712"/>
        <line class="cls-20" x1="889.1" y1="682" x2="889.1" y2="712"/>
      </g>
      <g>
        <rect class="cls-15" x="814" y="722" width="50" height="30"/>
        <line class="cls-20" x1="814" y1="728.4" x2="864" y2="728.4"/>
        <line class="cls-20" x1="855.9" y1="722" x2="855.9" y2="752"/>
        <line class="cls-20" x1="822.1" y1="722" x2="822.1" y2="752"/>
      </g>
      <g>
        <rect class="cls-17" x="968" y="722" width="50" height="30"/>
        <line class="cls-20" x1="968" y1="728.4" x2="1018" y2="728.4"/>
        <line class="cls-20" x1="1009.9" y1="722" x2="1009.9" y2="752"/>
        <line class="cls-20" x1="976.1" y1="722" x2="976.1" y2="752"/>
      </g>
      <g>
        <rect class="cls-17" x="881" y="722" width="50" height="30"/>
        <line class="cls-20" x1="881" y1="728.4" x2="931" y2="728.4"/>
        <line class="cls-20" x1="922.9" y1="722" x2="922.9" y2="752"/>
        <line class="cls-20" x1="889.1" y1="722" x2="889.1" y2="752"/>
      </g>
      <g>
        <rect class="cls-17" x="814" y="762" width="50" height="30"/>
        <line class="cls-20" x1="814" y1="768.4" x2="864" y2="768.4"/>
        <line class="cls-20" x1="855.9" y1="762" x2="855.9" y2="792"/>
        <line class="cls-20" x1="822.1" y1="762" x2="822.1" y2="792"/>
      </g>
      <g>
        <rect class="cls-17" x="968" y="762" width="50" height="30"/>
        <line class="cls-20" x1="968" y1="768.4" x2="1018" y2="768.4"/>
        <line class="cls-20" x1="1009.9" y1="762" x2="1009.9" y2="792"/>
        <line class="cls-20" x1="976.1" y1="762" x2="976.1" y2="792"/>
      </g>
      <g>
        <rect class="cls-15" x="881" y="762" width="50" height="30"/>
        <line class="cls-20" x1="881" y1="768.4" x2="931" y2="768.4"/>
        <line class="cls-20" x1="922.9" y1="762" x2="922.9" y2="792"/>
        <line class="cls-20" x1="889.1" y1="762" x2="889.1" y2="792"/>
      </g>
      <g>
        <rect class="cls-15" x="814" y="802" width="50" height="30"/>
        <line class="cls-20" x1="814" y1="808.4" x2="864" y2="808.4"/>
        <line class="cls-20" x1="855.9" y1="802" x2="855.9" y2="832"/>
        <line class="cls-20" x1="822.1" y1="802" x2="822.1" y2="832"/>
      </g>
      <g>
        <rect class="cls-2" x="968" y="802" width="50" height="30"/>
        <line class="cls-20" x1="968" y1="808.4" x2="1018" y2="808.4"/>
        <line class="cls-20" x1="1009.9" y1="802" x2="1009.9" y2="832"/>
        <line class="cls-20" x1="976.1" y1="802" x2="976.1" y2="832"/>
      </g>
      <g>
        <rect class="cls-17" x="881" y="802" width="50" height="30"/>
        <line class="cls-20" x1="881" y1="808.4" x2="931" y2="808.4"/>
        <line class="cls-20" x1="922.9" y1="802" x2="922.9" y2="832"/>
        <line class="cls-20" x1="889.1" y1="802" x2="889.1" y2="832"/>
      </g>
      <g>
        <rect class="cls-15" x="814" y="842" width="50" height="30"/>
        <line class="cls-20" x1="814" y1="848.4" x2="864" y2="848.4"/>
        <line class="cls-20" x1="855.9" y1="842" x2="855.9" y2="872"/>
        <line class="cls-20" x1="822.1" y1="842" x2="822.1" y2="872"/>
      </g>
      <g>
        <rect class="cls-15" x="968" y="842" width="50" height="30"/>
        <line class="cls-20" x1="968" y1="848.4" x2="1018" y2="848.4"/>
        <line class="cls-20" x1="1009.9" y1="842" x2="1009.9" y2="872"/>
        <line class="cls-20" x1="976.1" y1="842" x2="976.1" y2="872"/>
      </g>
      <g>
        <rect class="cls-17" x="881" y="842" width="50" height="30"/>
        <line class="cls-20" x1="881" y1="848.4" x2="931" y2="848.4"/>
        <line class="cls-20" x1="922.9" y1="842" x2="922.9" y2="872"/>
        <line class="cls-20" x1="889.1" y1="842" x2="889.1" y2="872"/>
      </g>
      <line class="cls-21" x1="512" y1="822.1" x2="512" y2="852"/>
      <line class="cls-21" x1="359.8" y1="743.4" x2="359.8" y2="774.2"/>
      <line class="cls-21" x1="512" y1="664.7" x2="512" y2="694.6"/>
      <line class="cls-21" x1="368.2" y1="507.3" x2="368.2" y2="538"/>
    </g>
    <g id="neon_lights">
      <rect class="cls-22" x="1068" y="612" width="36" height="64"/>
      <rect class="cls-22" x="728" y="524" width="44" height="64"/>
      <rect class="cls-23" x="336" y="412" width="88" height="32"/>
      <rect class="cls-24" x="816" y="464" width="88" height="32"/>
    </g>
    <g id="underground">
      <rect class="cls-9" x="-1540" y="1076" width="5000" height="4"/>
      <rect class="cls-4" x="-1540" y="1068" width="5000" height="8"/>
      <rect class="cls-9" x="-1540" y="1060" width="5000" height="8"/>
      <rect class="cls-16" x="-1540" y="984" width="5000" height="72"/>
      <path class="cls-4" d="M1200,1042.9h0a13.07,13.07,0,0,1,5.8-10.8l150.9-101.9a12.78,12.78,0,0,1,7.3-2.2h22.9a13.08,13.08,0,0,1,13.1,13.1h0a13.07,13.07,0,0,1-5.8,10.8l-150.9,101.9a12.78,12.78,0,0,1-7.3,2.2h-22.9A13,13,0,0,1,1200,1042.9Z"/>
      <path class="cls-4" d="M296,1042.9h0a13.07,13.07,0,0,0-5.8-10.8L139.3,930.2A12.78,12.78,0,0,0,132,928H109.1A13.08,13.08,0,0,0,96,941.1h0a13.07,13.07,0,0,0,5.8,10.8l150.9,101.9a12.78,12.78,0,0,0,7.3,2.2h22.9A13,13,0,0,0,296,1042.9Z"/>
      <rect class="cls-9" x="-1540" y="960" width="5000" height="24"/>
      <rect class="cls-25" x="-1540" y="1056" width="5000" height="4"/>
      <rect class="cls-26" x="1084" y="1056" width="40" height="4"/>
      <rect class="cls-26" x="1084" y="1056" width="40" height="4"/>
      <rect class="cls-26" x="844" y="1056" width="40" height="4"/>
      <rect class="cls-26" x="604" y="1056" width="40" height="4"/>
      <rect class="cls-26" x="364" y="1056" width="40" height="4"/>
      <rect class="cls-27" x="912" y="996" width="148" height="44"/>
      <rect class="cls-23" x="916" y="1000" width="140" height="36"/>
      <rect class="cls-27" x="668" y="996" width="148" height="44"/>
      <rect class="cls-28" x="672" y="1000" width="140" height="36"/>
      <rect class="cls-27" x="432" y="996" width="148" height="44"/>
      <rect class="cls-22" x="436" y="1000" width="140" height="36"/>
    </g>
    <g id="street">
      <rect class="cls-13" x="-1540" y="952" width="5000" height="8"/>
    </g>
    <g id="subway_exit">
      <rect class="cls-29" x="1300" y="900" width="120" height="52"/>
      <rect class="cls-4" x="1280" y="892" width="148" height="8"/>
      <rect class="cls-16" x="1288" y="900" width="12" height="52"/>
      <rect class="cls-29" x="76" y="900" width="120" height="52"/>
      <rect class="cls-4" x="68" y="892" width="148" height="8"/>
      <rect class="cls-16" x="196" y="900" width="12" height="52"/>
    </g>
    <polyline class="cls-30" points="1216.2 122.3 1216.2 110 1127.2 110 1127.2 124"/>
    <rect class="cls-1" x="1076.1" y="108.4" width="12.6" height="12.6"/>
    <rect class="cls-31" x="232.5" y="190.2" width="26.8" height="14.4"/>
  </g>
</svg>
