<?xml version="1.0" encoding="utf-8"?>
<!-- Generator: Adobe Illustrator 25.1.0, SVG Export Plug-In . SVG Version: 6.00 Build 0)  -->
<svg version="1.1" xmlns="http://www.w3.org/2000/svg" xmlns:xlink="http://www.w3.org/1999/xlink" x="0px" y="0px"
	 viewBox="0 0 1920 1080" style="enable-background:new 0 0 1920 1080;" xml:space="preserve">
<style type="text/css">
	.st0{fill:#4D4D4D;}
	.st1{fill:#808080;}
	.st2{fill:#B3B3B3;}
	.st3{fill:#E6E6E6;}
	.st4{fill:#FFFF00;}
	.st5{fill:#29ABE2;}
	.st6{fill:#F2F2F2;}
	.st7{fill:#333333;}
	.st8{opacity:0.5;fill:#29ABE2;}
</style>
<g id="underground">
	<rect x="0" y="1076" class="st0" width="1920" height="4"/>
	<rect x="0" y="1068" class="st1" width="1920" height="8"/>
	<rect x="0" y="1060" class="st0" width="1920" height="8"/>
	<rect x="0" y="984" class="st2" width="1920" height="72"/>
	<path class="st1" d="M1200,1042.9L1200,1042.9c0-4.3,2.2-8.4,5.8-10.8l150.9-101.9c2.2-1.5,4.7-2.2,7.3-2.2h22.9
		c7.2,0,13.1,5.8,13.1,13.1l0,0c0,4.3-2.2,8.4-5.8,10.8l-150.9,101.9c-2.2,1.5-4.7,2.2-7.3,2.2h-22.9
		C1205.8,1056,1200,1050.2,1200,1042.9z"/>
	<path class="st1" d="M296,1042.9L296,1042.9c0-4.3-2.2-8.4-5.8-10.8L139.3,930.2c-2.2-1.5-4.7-2.2-7.3-2.2h-22.9
		c-7.2,0-13.1,5.8-13.1,13.1l0,0c0,4.3,2.2,8.4,5.8,10.8l150.9,101.9c2.2,1.5,4.7,2.2,7.3,2.2h22.9
		C290.2,1056,296,1050.2,296,1042.9z"/>
	<rect x="0" y="960" class="st0" width="1920" height="24"/>
	<rect x="0" y="1056" class="st3" width="1920" height="4"/>
	<rect x="1084" y="1056" class="st4" width="40" height="4"/>
	<rect x="1084" y="1056" class="st4" width="40" height="4"/>
	<rect x="844" y="1056" class="st4" width="40" height="4"/>
	<rect x="604" y="1056" class="st4" width="40" height="4"/>
	<rect x="364" y="1056" class="st4" width="40" height="4"/>
</g>
<g id="bart">
	<path class="st5" d="M2000,1072h-72l2.3-17.7c1.1-6.6,5-12.3,10.6-15.8l30.6-18.9c8.1-5,17.5-7.7,27.1-7.7h45.4v60H2000z"/>
	<rect x="2048" y="1012" class="st5" width="168" height="60"/>
	<path class="st6" d="M1971.5,1019.7L1945,1036h51v-23.9C1987.4,1012.5,1978.9,1015.1,1971.5,1019.7z"/>
	<path class="st5" d="M2744,1072h72l-2.3-17.7c-1.1-6.6-5-12.3-10.6-15.8l-30.6-18.9c-8.1-5-17.5-7.7-27.1-7.7H2700v60H2744z"/>
	<path class="st6" d="M2772.5,1019.7l26.5,16.3h-51v-23.9C2756.6,1012.5,2765.1,1015.1,2772.5,1019.7z"/>
	<rect x="2052" y="1016" class="st6" width="52" height="20"/>
	<rect x="2160" y="1016" class="st6" width="52" height="20"/>
	<rect x="2112" y="1016" class="st6" width="40" height="44"/>
	<rect x="2112" y="1060" class="st2" width="40" height="4"/>
	<rect x="2528" y="1012" class="st5" width="168" height="60"/>
	<rect x="2532" y="1016" class="st6" width="52" height="20"/>
	<rect x="2640" y="1016" class="st6" width="52" height="20"/>
	<rect x="2592" y="1016" class="st6" width="40" height="44"/>
	<rect x="2592" y="1060" class="st2" width="40" height="4"/>
	<rect x="2220" y="1012" class="st5" width="304" height="60"/>
	<rect x="2224" y="1016" class="st6" width="120" height="20"/>
	<rect x="2400" y="1016" class="st6" width="120" height="20"/>
	<rect x="2352" y="1016" class="st6" width="40" height="44"/>
	<rect x="2352" y="1060" class="st2" width="40" height="4"/>
</g>
<g id="street">
	<rect x="0" y="952" class="st7" width="1920" height="8"/>
</g>
<g id="subway_x5F_exit">
	<rect x="1300" y="900" class="st8" width="120" height="52"/>
	<rect x="1280" y="892" class="st1" width="148" height="8"/>
	<rect x="1288" y="900" class="st2" width="12" height="52"/>
	<rect x="76" y="900" transform="matrix(-1 -4.488377e-11 4.488377e-11 -1 272 1852)" class="st8" width="120" height="52"/>
	<rect x="68" y="892" transform="matrix(-1 -4.489710e-11 4.489710e-11 -1 284 1792)" class="st1" width="148" height="8"/>
	<rect x="196" y="900" transform="matrix(-1 -4.502011e-11 4.502011e-11 -1 404 1852)" class="st2" width="12" height="52"/>
</g>
<g id="sidewalk">
</g>
<g id="layer_x5F_1">
</g>
<g id="layer_x5F_2">
</g>
<g id="layer_x5F_3">
</g>
</svg>
