<?xml version="1.0" encoding="utf-8"?>
<!-- Generator: Adobe Illustrator 25.0.1, SVG Export Plug-In . SVG Version: 6.00 Build 0)  -->
<svg version="1.1" xmlns="http://www.w3.org/2000/svg" xmlns:xlink="http://www.w3.org/1999/xlink" x="0px" y="0px" width="1920px"
	 height="1080px" viewBox="0 0 1920 1080" style="enable-background:new 0 0 1920 1080;" xml:space="preserve">
<style type="text/css">
	.st0{fill:#FFFFFF;}
	.st1{fill:#808080;}
	.st2{fill:#666666;}
	.st3{fill:#4D4D4D;}
	.st4{fill:#B3B3B3;}
	.st5{opacity:0.4;}
	.st6{opacity:0.5;fill:#DDC72C;}
	.st7{fill:#F2F2F2;}
	.st8{fill:#333333;}
	.st9{fill:#00FFFF;}
	.st10{fill:#DDC72C;}
	.st11{fill:#D9E021;}
	.st12{fill:#00FF00;}
	.st13{fill:#FF00FF;}
	.st14{fill:#F7931E;}
	.st15{fill:#E6E6E6;}
	.st16{fill:#FFFF00;}
	.st17{fill:#CCCCCC;}
	.st18{fill:#662D91;}
	.st19{fill:#29ABE2;}
	.st20{opacity:0.5;fill:#29ABE2;}
</style>
<symbol  id="Deleted_Symbol_2" viewBox="-472 -240 944 480">
	<g>
		<polygon class="st0" points="-431.5,-200.5 -393.2,-200.5 -431.5,-238.8 		"/>
		<path d="M-394.4-201l-36.6-36.6v36.6H-394.4 M-392-200h-40v-40L-392-200L-392-200z"/>
	</g>
	<g>
		<polygon class="st0" points="-430.8,-199.5 -392.4,-161.2 -392.5,-199.5 		"/>
		<path d="M-392.9-162.4L-393-199h-36.6L-392.9-162.4 M-391.9-160l-40.1-40h40L-391.9-160L-391.9-160z"/>
	</g>
	<g>
		<polygon class="st0" points="-391.4,-160.5 -353.1,-160.5 -391.5,-198.8 		"/>
		<path d="M-354.3-161l-36.7-36.6l0.1,36.6H-354.3 M-351.9-160h-40l-0.1-40L-351.9-160L-351.9-160z"/>
	</g>
	<g>
		<polygon class="st0" points="-470.8,-239.5 -432.5,-201.2 -432.5,-239.5 		"/>
		<path d="M-433-202.4V-239h-36.6L-433-202.4 M-432-200l-40-40h40V-200L-432-200z"/>
	</g>
	<g>
		<polygon class="st0" points="-393.2,-200.5 -354.9,-200.5 -393.2,-238.8 		"/>
		<path d="M-356.1-201l-36.6-36.6v36.6H-356.1 M-353.7-200h-40v-40L-353.7-200L-353.7-200z"/>
	</g>
	<g>
		<polygon class="st0" points="-392.5,-199.5 -354.1,-161.2 -354.2,-199.5 		"/>
		<path d="M-354.6-162.4l-0.1-36.6h-36.6L-354.6-162.4 M-353.6-160l-40.1-40h40L-353.6-160L-353.6-160z"/>
	</g>
	<g>
		<polygon class="st0" points="-353.1,-160.5 -314.8,-160.5 -353.2,-198.8 		"/>
		<path d="M-316-161l-36.7-36.6l0.1,36.6H-316 M-313.6-160h-40l-0.1-40L-313.6-160L-313.6-160z"/>
	</g>
	<g>
		<polygon class="st0" points="-432.5,-239.5 -394.2,-201.2 -394.2,-239.5 		"/>
		<path d="M-394.7-202.4V-239h-36.6L-394.7-202.4 M-393.7-200l-40-40h40V-200L-393.7-200z"/>
	</g>
	<g>
		<polygon class="st0" points="-351.5,-120.5 -313.2,-120.5 -351.5,-158.8 		"/>
		<path d="M-314.4-121l-36.6-36.6v36.6H-314.4 M-312-120h-40v-40L-312-120L-312-120z"/>
	</g>
	<g>
		<polygon class="st0" points="-350.8,-119.5 -312.4,-81.2 -312.5,-119.5 		"/>
		<path d="M-312.9-82.4L-313-119h-36.6L-312.9-82.4 M-311.9-80l-40.1-40h40L-311.9-80L-311.9-80z"/>
	</g>
	<g>
		<polygon class="st0" points="-311.4,-80.5 -273.1,-80.5 -311.5,-118.8 		"/>
		<path d="M-274.3-81l-36.7-36.6l0.1,36.6H-274.3 M-271.9-80h-40l-0.1-40L-271.9-80L-271.9-80z"/>
	</g>
	<g>
		<polygon class="st0" points="-390.8,-159.5 -352.5,-121.2 -352.5,-159.5 		"/>
		<path d="M-353-122.4V-159h-36.6L-353-122.4 M-352-120l-40-40h40V-120L-352-120z"/>
	</g>
	<g>
		<polygon class="st0" points="-313.2,-120.5 -274.9,-120.5 -313.2,-158.8 		"/>
		<path d="M-276.1-121l-36.6-36.6v36.6H-276.1 M-273.7-120h-40v-40L-273.7-120L-273.7-120z"/>
	</g>
	<g>
		<polygon class="st0" points="-312.5,-119.5 -274.1,-81.2 -274.2,-119.5 		"/>
		<path d="M-274.6-82.4l-0.1-36.6h-36.6L-274.6-82.4 M-273.6-80l-40.1-40h40L-273.6-80L-273.6-80z"/>
	</g>
	<g>
		<polygon class="st0" points="-273.1,-80.5 -234.8,-80.5 -273.2,-118.8 		"/>
		<path d="M-236-81l-36.7-36.6l0.1,36.6H-236 M-233.6-80h-40l-0.1-40L-233.6-80L-233.6-80z"/>
	</g>
	<g>
		<polygon class="st0" points="-352.5,-159.5 -314.2,-121.2 -314.2,-159.5 		"/>
		<path d="M-314.7-122.4V-159h-36.6L-314.7-122.4 M-313.7-120l-40-40h40V-120L-313.7-120z"/>
	</g>
	<g>
		<polygon class="st0" points="-271.5,-40.5 -233.2,-40.5 -271.5,-78.8 		"/>
		<path d="M-234.4-41L-271-77.6V-41H-234.4 M-232-40h-40v-40L-232-40L-232-40z"/>
	</g>
	<g>
		<polygon class="st0" points="-270.8,-39.5 -232.4,-1.2 -232.5,-39.5 		"/>
		<path d="M-232.9-2.4L-233-39h-36.6L-232.9-2.4 M-231.9,0L-272-40h40L-231.9,0L-231.9,0z"/>
	</g>
	<g>
		<polygon class="st0" points="-231.4,-0.5 -193.1,-0.5 -231.5,-38.8 		"/>
		<path d="M-194.3-1L-231-37.6l0.1,36.6H-194.3 M-191.9,0h-40l-0.1-40L-191.9,0L-191.9,0z"/>
	</g>
	<g>
		<polygon class="st0" points="-310.8,-79.5 -272.5,-41.2 -272.5,-79.5 		"/>
		<path d="M-273-42.4V-79h-36.6L-273-42.4 M-272-40l-40-40h40V-40L-272-40z"/>
	</g>
	<g>
		<polygon class="st0" points="-233.2,-40.5 -194.9,-40.5 -233.2,-78.8 		"/>
		<path d="M-196.1-41l-36.6-36.6V-41H-196.1 M-193.7-40h-40v-40L-193.7-40L-193.7-40z"/>
	</g>
	<g>
		<polygon class="st0" points="-232.5,-39.5 -194.1,-1.2 -194.2,-39.5 		"/>
		<path d="M-194.6-2.4l-0.1-36.6h-36.6L-194.6-2.4 M-193.6,0l-40.1-40h40L-193.6,0L-193.6,0z"/>
	</g>
	<g>
		<polygon class="st0" points="-193.1,-0.5 -154.8,-0.5 -193.2,-38.8 		"/>
		<path d="M-156-1l-36.7-36.6l0.1,36.6H-156 M-153.6,0h-40l-0.1-40L-153.6,0L-153.6,0z"/>
	</g>
	<g>
		<polygon class="st0" points="-272.5,-79.5 -234.2,-41.2 -234.2,-79.5 		"/>
		<path d="M-234.7-42.4V-79h-36.6L-234.7-42.4 M-233.7-40l-40-40h40V-40L-233.7-40z"/>
	</g>
	<g>
		<polygon class="st0" points="-353.9,-200.5 -315.7,-200.5 -353.9,-238.8 		"/>
		<path d="M-316.9-201l-36.6-36.6v36.6H-316.9 M-314.4-200h-40v-40L-314.4-200L-314.4-200z"/>
	</g>
	<g>
		<polygon class="st0" points="-353.2,-199.5 -314.8,-161.2 -314.9,-199.5 		"/>
		<path d="M-315.3-162.4l-0.1-36.6H-352L-315.3-162.4 M-314.3-160l-40.1-40h40L-314.3-160L-314.3-160z"/>
	</g>
	<g>
		<polygon class="st0" points="-313.8,-160.5 -275.5,-160.5 -313.9,-198.8 		"/>
		<path d="M-276.8-161l-36.7-36.6l0.1,36.6H-276.8 M-274.3-160h-40l-0.1-40L-274.3-160L-274.3-160z"/>
	</g>
	<g>
		<polygon class="st0" points="-393.2,-239.5 -354.9,-201.2 -354.9,-239.5 		"/>
		<path d="M-355.4-202.4V-239H-392L-355.4-202.4 M-354.4-200l-40-40h40V-200L-354.4-200z"/>
	</g>
	<g>
		<polygon class="st0" points="-315.6,-200.5 -277.3,-200.5 -315.6,-238.8 		"/>
		<path d="M-278.5-201l-36.6-36.6v36.6H-278.5 M-276.1-200h-40v-40L-276.1-200L-276.1-200z"/>
	</g>
	<g>
		<polygon class="st0" points="-314.9,-199.5 -276.5,-161.2 -276.6,-199.5 		"/>
		<path d="M-277-162.4l-0.1-36.6h-36.6L-277-162.4 M-276-160l-40.1-40h40L-276-160L-276-160z"/>
	</g>
	<g>
		<polygon class="st0" points="-275.5,-160.5 -237.2,-160.5 -275.6,-198.8 		"/>
		<path d="M-238.4-161l-36.7-36.6l0.1,36.6H-238.4 M-236-160h-40l-0.1-40L-236-160L-236-160z"/>
	</g>
	<g>
		<polygon class="st0" points="-354.9,-239.5 -316.6,-201.2 -316.6,-239.5 		"/>
		<path d="M-317.1-202.4V-239h-36.6L-317.1-202.4 M-316.1-200l-40-40h40V-200L-316.1-200z"/>
	</g>
	<g>
		<polygon class="st0" points="-273.9,-120.5 -235.7,-120.5 -273.9,-158.8 		"/>
		<path d="M-236.9-121l-36.6-36.6v36.6H-236.9 M-234.4-120h-40v-40L-234.4-120L-234.4-120z"/>
	</g>
	<g>
		<polygon class="st0" points="-273.2,-119.5 -234.8,-81.2 -234.9,-119.5 		"/>
		<path d="M-235.3-82.4l-0.1-36.6H-272L-235.3-82.4 M-234.3-80l-40.1-40h40L-234.3-80L-234.3-80z"/>
	</g>
	<g>
		<polygon class="st0" points="-233.8,-80.5 -195.5,-80.5 -233.9,-118.8 		"/>
		<path d="M-196.8-81l-36.7-36.6l0.1,36.6H-196.8 M-194.3-80h-40l-0.1-40L-194.3-80L-194.3-80z"/>
	</g>
	<g>
		<polygon class="st0" points="-313.2,-159.5 -274.9,-121.2 -274.9,-159.5 		"/>
		<path d="M-275.4-122.4V-159H-312L-275.4-122.4 M-274.4-120l-40-40h40V-120L-274.4-120z"/>
	</g>
	<g>
		<polygon class="st0" points="-235.6,-120.5 -197.3,-120.5 -235.6,-158.8 		"/>
		<path d="M-198.5-121l-36.6-36.6v36.6H-198.5 M-196.1-120h-40v-40L-196.1-120L-196.1-120z"/>
	</g>
	<g>
		<polygon class="st0" points="-234.9,-119.5 -196.5,-81.2 -196.6,-119.5 		"/>
		<path d="M-197-82.4l-0.1-36.6h-36.6L-197-82.4 M-196-80l-40.1-40h40L-196-80L-196-80z"/>
	</g>
	<g>
		<polygon class="st0" points="-195.5,-80.5 -157.2,-80.5 -195.6,-118.8 		"/>
		<path d="M-158.4-81l-36.7-36.6L-195-81H-158.4 M-156-80h-40l-0.1-40L-156-80L-156-80z"/>
	</g>
	<g>
		<polygon class="st0" points="-274.9,-159.5 -236.6,-121.2 -236.6,-159.5 		"/>
		<path d="M-237.1-122.4V-159h-36.6L-237.1-122.4 M-236.1-120l-40-40h40V-120L-236.1-120z"/>
	</g>
	<g>
		<polygon class="st0" points="-193.9,-40.5 -155.7,-40.5 -193.9,-78.8 		"/>
		<path d="M-156.9-41l-36.6-36.6V-41H-156.9 M-154.4-40h-40v-40L-154.4-40L-154.4-40z"/>
	</g>
	<g>
		<polygon class="st0" points="-193.2,-39.5 -154.8,-1.2 -154.9,-39.5 		"/>
		<path d="M-155.3-2.4l-0.1-36.6H-192L-155.3-2.4 M-154.3,0l-40.1-40h40L-154.3,0L-154.3,0z"/>
	</g>
	<g>
		<polygon class="st0" points="-153.8,-0.5 -115.5,-0.5 -153.9,-38.8 		"/>
		<path d="M-116.8-1l-36.7-36.6l0.1,36.6H-116.8 M-114.3,0h-40l-0.1-40L-114.3,0L-114.3,0z"/>
	</g>
	<g>
		<polygon class="st0" points="-233.2,-79.5 -194.9,-41.2 -194.9,-79.5 		"/>
		<path d="M-195.4-42.4V-79H-232L-195.4-42.4 M-194.4-40l-40-40h40V-40L-194.4-40z"/>
	</g>
	<g>
		<polygon class="st0" points="-155.6,-40.5 -117.3,-40.5 -155.6,-78.8 		"/>
		<path d="M-118.5-41l-36.6-36.6V-41H-118.5 M-116.1-40h-40v-40L-116.1-40L-116.1-40z"/>
	</g>
	<g>
		<polygon class="st0" points="-154.9,-39.5 -116.5,-1.2 -116.6,-39.5 		"/>
		<path d="M-117-2.4l-0.1-36.6h-36.6L-117-2.4 M-116,0l-40.1-40h40L-116,0L-116,0z"/>
	</g>
	<g>
		<polygon class="st0" points="-115.5,-0.5 -77.2,-0.5 -115.6,-38.8 		"/>
		<path d="M-78.4-1l-36.7-36.6L-115-1H-78.4 M-76,0h-40l-0.1-40L-76,0L-76,0z"/>
	</g>
	<g>
		<polygon class="st0" points="-194.9,-79.5 -156.6,-41.2 -156.6,-79.5 		"/>
		<path d="M-157.1-42.4V-79h-36.6L-157.1-42.4 M-156.1-40l-40-40h40V-40L-156.1-40z"/>
	</g>
	<g>
		<polygon class="st0" points="-277.9,-200.5 -239.7,-200.5 -277.9,-238.8 		"/>
		<path d="M-240.9-201l-36.6-36.6v36.6H-240.9 M-238.4-200h-40v-40L-238.4-200L-238.4-200z"/>
	</g>
	<g>
		<polygon class="st0" points="-277.2,-199.5 -238.8,-161.2 -238.9,-199.5 		"/>
		<path d="M-239.3-162.4l-0.1-36.6H-276L-239.3-162.4 M-238.3-160l-40.1-40h40L-238.3-160L-238.3-160z"/>
	</g>
	<g>
		<polygon class="st0" points="-237.8,-160.5 -199.5,-160.5 -237.9,-198.8 		"/>
		<path d="M-200.8-161l-36.7-36.6l0.1,36.6H-200.8 M-198.3-160h-40l-0.1-40L-198.3-160L-198.3-160z"/>
	</g>
	<g>
		<polygon class="st0" points="-317.2,-239.5 -278.9,-201.2 -278.9,-239.5 		"/>
		<path d="M-279.4-202.4V-239H-316L-279.4-202.4 M-278.4-200l-40-40h40V-200L-278.4-200z"/>
	</g>
	<g>
		<polygon class="st0" points="-239.6,-200.5 -201.3,-200.5 -239.6,-238.8 		"/>
		<path d="M-202.5-201l-36.6-36.6v36.6H-202.5 M-200.1-200h-40v-40L-200.1-200L-200.1-200z"/>
	</g>
	<g>
		<polygon class="st0" points="-238.9,-199.5 -200.5,-161.2 -200.6,-199.5 		"/>
		<path d="M-201-162.4l-0.1-36.6h-36.6L-201-162.4 M-200-160l-40.1-40h40L-200-160L-200-160z"/>
	</g>
	<g>
		<polygon class="st0" points="-199.5,-160.5 -161.2,-160.5 -199.6,-198.8 		"/>
		<path d="M-162.4-161l-36.7-36.6l0.1,36.6H-162.4 M-160-160h-40l-0.1-40L-160-160L-160-160z"/>
	</g>
	<g>
		<polygon class="st0" points="-278.9,-239.5 -240.6,-201.2 -240.6,-239.5 		"/>
		<path d="M-241.1-202.4V-239h-36.6L-241.1-202.4 M-240.1-200l-40-40h40V-200L-240.1-200z"/>
	</g>
	<g>
		<polygon class="st0" points="-197.9,-120.5 -159.7,-120.5 -197.9,-158.8 		"/>
		<path d="M-160.9-121l-36.6-36.6v36.6H-160.9 M-158.4-120h-40v-40L-158.4-120L-158.4-120z"/>
	</g>
	<g>
		<polygon class="st0" points="-197.2,-119.5 -158.8,-81.2 -158.9,-119.5 		"/>
		<path d="M-159.3-82.4l-0.1-36.6H-196L-159.3-82.4 M-158.3-80l-40.1-40h40L-158.3-80L-158.3-80z"/>
	</g>
	<g>
		<polygon class="st0" points="-157.8,-80.5 -119.5,-80.5 -157.9,-118.8 		"/>
		<path d="M-120.8-81l-36.7-36.6l0.1,36.6H-120.8 M-118.3-80h-40l-0.1-40L-118.3-80L-118.3-80z"/>
	</g>
	<g>
		<polygon class="st0" points="-237.2,-159.5 -198.9,-121.2 -198.9,-159.5 		"/>
		<path d="M-199.4-122.4V-159H-236L-199.4-122.4 M-198.4-120l-40-40h40V-120L-198.4-120z"/>
	</g>
	<g>
		<polygon class="st0" points="-159.6,-120.5 -121.3,-120.5 -159.6,-158.8 		"/>
		<path d="M-122.5-121l-36.6-36.6v36.6H-122.5 M-120.1-120h-40v-40L-120.1-120L-120.1-120z"/>
	</g>
	<g>
		<polygon class="st0" points="-158.9,-119.5 -120.5,-81.2 -120.6,-119.5 		"/>
		<path d="M-121-82.4l-0.1-36.6h-36.6L-121-82.4 M-120-80l-40.1-40h40L-120-80L-120-80z"/>
	</g>
	<g>
		<polygon class="st0" points="-119.5,-80.5 -81.2,-80.5 -119.6,-118.8 		"/>
		<path d="M-82.4-81l-36.7-36.6L-119-81H-82.4 M-80-80h-40l-0.1-40L-80-80L-80-80z"/>
	</g>
	<g>
		<polygon class="st0" points="-198.9,-159.5 -160.6,-121.2 -160.6,-159.5 		"/>
		<path d="M-161.1-122.4V-159h-36.6L-161.1-122.4 M-160.1-120l-40-40h40V-120L-160.1-120z"/>
	</g>
	<g>
		<polygon class="st0" points="-117.9,-40.5 -79.7,-40.5 -117.9,-78.8 		"/>
		<path d="M-80.9-41l-36.6-36.6V-41H-80.9 M-78.4-40h-40v-40L-78.4-40L-78.4-40z"/>
	</g>
	<g>
		<polygon class="st0" points="-117.2,-39.5 -78.8,-1.2 -78.9,-39.5 		"/>
		<path d="M-79.3-2.4L-79.4-39H-116L-79.3-2.4 M-78.3,0l-40.1-40h40L-78.3,0L-78.3,0z"/>
	</g>
	<g>
		<polygon class="st0" points="-77.8,-0.5 -39.5,-0.5 -77.9,-38.8 		"/>
		<path d="M-40.8-1l-36.7-36.6L-77.3-1H-40.8 M-38.3,0h-40l-0.1-40L-38.3,0L-38.3,0z"/>
	</g>
	<g>
		<polygon class="st0" points="-157.2,-79.5 -118.9,-41.2 -118.9,-79.5 		"/>
		<path d="M-119.4-42.4V-79H-156L-119.4-42.4 M-118.4-40l-40-40h40V-40L-118.4-40z"/>
	</g>
	<g>
		<polygon class="st0" points="-79.6,-40.5 -41.3,-40.5 -79.6,-78.8 		"/>
		<path d="M-42.5-41l-36.6-36.6V-41H-42.5 M-40.1-40h-40v-40L-40.1-40L-40.1-40z"/>
	</g>
	<g>
		<polygon class="st0" points="-78.9,-39.5 -40.5,-1.2 -40.6,-39.5 		"/>
		<path d="M-41-2.4L-41.1-39h-36.6L-41-2.4 M-40,0l-40.1-40h40L-40,0L-40,0z"/>
	</g>
	<g>
		<polygon class="st0" points="-39.5,-0.5 -1.2,-0.5 -39.6,-38.8 		"/>
		<path d="M-2.4-1l-36.7-36.6L-39-1H-2.4 M0,0h-40l-0.1-40L0,0L0,0z"/>
	</g>
	<g>
		<polygon class="st0" points="-118.9,-79.5 -80.6,-41.2 -80.6,-79.5 		"/>
		<path d="M-81.1-42.4V-79h-36.6L-81.1-42.4 M-80.1-40l-40-40h40V-40L-80.1-40z"/>
	</g>
	<g>
		<polygon class="st0" points="-199.5,-200.5 -161.2,-200.5 -199.5,-238.8 		"/>
		<path d="M-162.4-201l-36.6-36.6v36.6H-162.4 M-160-200h-40v-40L-160-200L-160-200z"/>
	</g>
	<g>
		<polygon class="st0" points="-198.8,-199.5 -160.4,-161.2 -160.5,-199.5 		"/>
		<path d="M-160.9-162.4L-161-199h-36.6L-160.9-162.4 M-159.9-160l-40.1-40h40L-159.9-160L-159.9-160z"/>
	</g>
	<g>
		<polygon class="st0" points="-159.4,-160.5 -121.1,-160.5 -159.5,-198.8 		"/>
		<path d="M-122.3-161l-36.7-36.6l0.1,36.6H-122.3 M-119.9-160h-40l-0.1-40L-119.9-160L-119.9-160z"/>
	</g>
	<g>
		<polygon class="st0" points="-238.8,-239.5 -200.5,-201.2 -200.5,-239.5 		"/>
		<path d="M-201-202.4V-239h-36.6L-201-202.4 M-200-200l-40-40h40V-200L-200-200z"/>
	</g>
	<g>
		<polygon class="st0" points="-161.2,-200.5 -122.9,-200.5 -161.2,-238.8 		"/>
		<path d="M-124.1-201l-36.6-36.6v36.6H-124.1 M-121.7-200h-40v-40L-121.7-200L-121.7-200z"/>
	</g>
	<g>
		<polygon class="st0" points="-160.5,-199.5 -122.1,-161.2 -122.2,-199.5 		"/>
		<path d="M-122.6-162.4l-0.1-36.6h-36.6L-122.6-162.4 M-121.6-160l-40.1-40h40L-121.6-160L-121.6-160z"/>
	</g>
	<g>
		<polygon class="st0" points="-121.1,-160.5 -82.8,-160.5 -121.2,-198.8 		"/>
		<path d="M-84-161l-36.7-36.6l0.1,36.6H-84 M-81.6-160h-40l-0.1-40L-81.6-160L-81.6-160z"/>
	</g>
	<g>
		<polygon class="st0" points="-200.5,-239.5 -162.2,-201.2 -162.2,-239.5 		"/>
		<path d="M-162.7-202.4V-239h-36.6L-162.7-202.4 M-161.7-200l-40-40h40V-200L-161.7-200z"/>
	</g>
	<g>
		<polygon class="st0" points="-119.5,-120.5 -81.2,-120.5 -119.5,-158.8 		"/>
		<path d="M-82.4-121l-36.6-36.6v36.6H-82.4 M-80-120h-40v-40L-80-120L-80-120z"/>
	</g>
	<g>
		<polygon class="st0" points="-118.8,-119.5 -80.4,-81.2 -80.5,-119.5 		"/>
		<path d="M-80.9-82.4L-81-119h-36.6L-80.9-82.4 M-79.9-80l-40.1-40h40L-79.9-80L-79.9-80z"/>
	</g>
	<g>
		<polygon class="st0" points="-79.4,-80.5 -41.1,-80.5 -79.5,-118.8 		"/>
		<path d="M-42.3-81L-79-117.6l0.1,36.6H-42.3 M-39.9-80h-40l-0.1-40L-39.9-80L-39.9-80z"/>
	</g>
	<g>
		<polygon class="st0" points="-158.8,-159.5 -120.5,-121.2 -120.5,-159.5 		"/>
		<path d="M-121-122.4V-159h-36.6L-121-122.4 M-120-120l-40-40h40V-120L-120-120z"/>
	</g>
	<g>
		<polygon class="st0" points="-81.2,-120.5 -42.9,-120.5 -81.2,-158.8 		"/>
		<path d="M-44.1-121l-36.6-36.6v36.6H-44.1 M-41.7-120h-40v-40L-41.7-120L-41.7-120z"/>
	</g>
	<g>
		<polygon class="st0" points="-80.5,-119.5 -42.1,-81.2 -42.2,-119.5 		"/>
		<path d="M-42.6-82.4l-0.1-36.6h-36.6L-42.6-82.4 M-41.6-80l-40.1-40h40L-41.6-80L-41.6-80z"/>
	</g>
	<g>
		<polygon class="st0" points="-41.1,-80.5 -2.8,-80.5 -41.2,-118.8 		"/>
		<path d="M-4-81l-36.7-36.6l0.1,36.6H-4 M-1.6-80h-40l-0.1-40L-1.6-80L-1.6-80z"/>
	</g>
	<g>
		<polygon class="st0" points="-120.5,-159.5 -82.2,-121.2 -82.2,-159.5 		"/>
		<path d="M-82.7-122.4V-159h-36.6L-82.7-122.4 M-81.7-120l-40-40h40V-120L-81.7-120z"/>
	</g>
	<g>
		<polygon class="st0" points="-39.5,-40.5 -1.2,-40.5 -39.5,-78.8 		"/>
		<path d="M-2.4-41L-39-77.6V-41H-2.4 M0-40h-40v-40L0-40L0-40z"/>
	</g>
	<g>
		<polygon class="st0" points="-38.8,-39.5 -0.4,-1.2 -0.5,-39.5 		"/>
		<path d="M-0.9-2.4L-1-39h-36.6L-0.9-2.4 M0.1,0L-40-40H0L0.1,0L0.1,0z"/>
	</g>
	<g>
		<polygon class="st0" points="0.6,-0.5 38.9,-0.5 0.5,-38.8 		"/>
		<path d="M37.7-1L1-37.6L1.1-1H37.7 M40.1,0h-40L0-40L40.1,0L40.1,0z"/>
	</g>
	<g>
		<polygon class="st0" points="-78.8,-79.5 -40.5,-41.2 -40.5,-79.5 		"/>
		<path d="M-41-42.4V-79h-36.6L-41-42.4 M-40-40l-40-40h40V-40L-40-40z"/>
	</g>
	<g>
		<polygon class="st0" points="-1.2,-40.5 37.1,-40.5 -1.2,-78.8 		"/>
		<path d="M35.9-41L-0.7-77.6V-41H35.9 M38.3-40h-40v-40L38.3-40L38.3-40z"/>
	</g>
	<g>
		<polygon class="st0" points="-0.5,-39.5 37.9,-1.2 37.8,-39.5 		"/>
		<path d="M37.4-2.4L37.3-39H0.8L37.4-2.4 M38.4,0L-1.7-40h40L38.4,0L38.4,0z"/>
	</g>
	<g>
		<polygon class="st0" points="38.9,-0.5 77.2,-0.5 38.8,-38.8 		"/>
		<path d="M76-1L39.3-37.6L39.4-1H76 M78.4,0h-40l-0.1-40L78.4,0L78.4,0z"/>
	</g>
	<g>
		<polygon class="st0" points="-40.5,-79.5 -2.2,-41.2 -2.2,-79.5 		"/>
		<path d="M-2.7-42.4V-79h-36.6L-2.7-42.4 M-1.7-40l-40-40h40V-40L-1.7-40z"/>
	</g>
	<g>
		<polygon class="st0" points="-121.9,-200.5 -83.7,-200.5 -121.9,-238.8 		"/>
		<path d="M-84.9-201l-36.6-36.6v36.6H-84.9 M-82.4-200h-40v-40L-82.4-200L-82.4-200z"/>
	</g>
	<g>
		<polygon class="st0" points="-121.2,-199.5 -82.8,-161.2 -82.9,-199.5 		"/>
		<path d="M-83.3-162.4l-0.1-36.6H-120L-83.3-162.4 M-82.3-160l-40.1-40h40L-82.3-160L-82.3-160z"/>
	</g>
	<g>
		<polygon class="st0" points="-81.8,-160.5 -43.5,-160.5 -81.9,-198.8 		"/>
		<path d="M-44.8-161l-36.7-36.6l0.1,36.6H-44.8 M-42.3-160h-40l-0.1-40L-42.3-160L-42.3-160z"/>
	</g>
	<g>
		<polygon class="st0" points="-161.2,-239.5 -122.9,-201.2 -122.9,-239.5 		"/>
		<path d="M-123.4-202.4V-239H-160L-123.4-202.4 M-122.4-200l-40-40h40V-200L-122.4-200z"/>
	</g>
	<g>
		<polygon class="st0" points="-83.6,-200.5 -45.3,-200.5 -83.6,-238.8 		"/>
		<path d="M-46.5-201l-36.6-36.6v36.6H-46.5 M-44.1-200h-40v-40L-44.1-200L-44.1-200z"/>
	</g>
	<g>
		<polygon class="st0" points="-82.9,-199.5 -44.5,-161.2 -44.6,-199.5 		"/>
		<path d="M-45-162.4l-0.1-36.6h-36.6L-45-162.4 M-44-160l-40.1-40h40L-44-160L-44-160z"/>
	</g>
	<g>
		<polygon class="st0" points="-43.5,-160.5 -5.2,-160.5 -43.6,-198.8 		"/>
		<path d="M-6.4-161l-36.7-36.6L-43-161H-6.4 M-4-160h-40l-0.1-40L-4-160L-4-160z"/>
	</g>
	<g>
		<polygon class="st0" points="-122.9,-239.5 -84.6,-201.2 -84.6,-239.5 		"/>
		<path d="M-85.1-202.4V-239h-36.6L-85.1-202.4 M-84.1-200l-40-40h40V-200L-84.1-200z"/>
	</g>
	<g>
		<polygon class="st0" points="-41.9,-120.5 -3.7,-120.5 -41.9,-158.8 		"/>
		<path d="M-4.9-121l-36.6-36.6v36.6H-4.9 M-2.4-120h-40v-40L-2.4-120L-2.4-120z"/>
	</g>
	<g>
		<polygon class="st0" points="-41.2,-119.5 -2.8,-81.2 -2.9,-119.5 		"/>
		<path d="M-3.3-82.4L-3.4-119H-40L-3.3-82.4 M-2.3-80l-40.1-40h40L-2.3-80L-2.3-80z"/>
	</g>
	<g>
		<polygon class="st0" points="-1.8,-80.5 36.5,-80.5 -1.9,-118.8 		"/>
		<path d="M35.2-81l-36.7-36.6L-1.3-81H35.2 M37.7-80h-40l-0.1-40L37.7-80L37.7-80z"/>
	</g>
	<g>
		<polygon class="st0" points="-81.2,-159.5 -42.9,-121.2 -42.9,-159.5 		"/>
		<path d="M-43.4-122.4V-159H-80L-43.4-122.4 M-42.4-120l-40-40h40V-120L-42.4-120z"/>
	</g>
	<g>
		<polygon class="st0" points="-3.6,-120.5 34.7,-120.5 -3.6,-158.8 		"/>
		<path d="M33.5-121l-36.6-36.6v36.6H33.5 M35.9-120h-40v-40L35.9-120L35.9-120z"/>
	</g>
	<g>
		<polygon class="st0" points="-2.9,-119.5 35.5,-81.2 35.4,-119.5 		"/>
		<path d="M35-82.4L34.9-119H-1.7L35-82.4 M36-80l-40.1-40h40L36-80L36-80z"/>
	</g>
	<g>
		<polygon class="st0" points="36.5,-80.5 74.8,-80.5 36.4,-118.8 		"/>
		<path d="M73.6-81l-36.7-36.6L37-81H73.6 M76-80H36l-0.1-40L76-80L76-80z"/>
	</g>
	<g>
		<polygon class="st0" points="-42.9,-159.5 -4.6,-121.2 -4.6,-159.5 		"/>
		<path d="M-5.1-122.4V-159h-36.6L-5.1-122.4 M-4.1-120l-40-40h40V-120L-4.1-120z"/>
	</g>
	<g>
		<polygon class="st0" points="38.1,-40.5 76.3,-40.5 38.1,-78.8 		"/>
		<path d="M75.1-41L38.6-77.6V-41H75.1 M77.6-40h-40v-40L77.6-40L77.6-40z"/>
	</g>
	<g>
		<polygon class="st0" points="38.8,-39.5 77.2,-1.2 77.1,-39.5 		"/>
		<path d="M76.7-2.4L76.6-39H40L76.7-2.4 M77.7,0L37.6-40h40L77.7,0L77.7,0z"/>
	</g>
	<g>
		<polygon class="st0" points="78.2,-0.5 116.5,-0.5 78.1,-38.8 		"/>
		<path d="M115.2-1L78.6-37.6L78.7-1H115.2 M117.7,0h-40l-0.1-40L117.7,0L117.7,0z"/>
	</g>
	<g>
		<polygon class="st0" points="-1.2,-79.5 37.1,-41.2 37.1,-79.5 		"/>
		<path d="M36.6-42.4V-79H0L36.6-42.4 M37.6-40l-40-40h40V-40L37.6-40z"/>
	</g>
	<g>
		<polygon class="st0" points="76.4,-40.5 114.7,-40.5 76.4,-78.8 		"/>
		<path d="M113.5-41L76.9-77.6V-41H113.5 M115.9-40h-40v-40L115.9-40L115.9-40z"/>
	</g>
	<g>
		<polygon class="st0" points="77.1,-39.5 115.5,-1.2 115.4,-39.5 		"/>
		<path d="M115-2.4L114.9-39H78.3L115-2.4 M116,0L75.9-40h40L116,0L116,0z"/>
	</g>
	<g>
		<polygon class="st0" points="116.5,-0.5 154.8,-0.5 116.4,-38.8 		"/>
		<path d="M153.6-1l-36.7-36.6L117-1H153.6 M156,0h-40l-0.1-40L156,0L156,0z"/>
	</g>
	<g>
		<polygon class="st0" points="37.1,-79.5 75.4,-41.2 75.4,-79.5 		"/>
		<path d="M74.9-42.4V-79H38.3L74.9-42.4 M75.9-40l-40-40h40V-40L75.9-40z"/>
	</g>
	<g>
		<polygon class="st0" points="-45.9,-200.5 -7.7,-200.5 -45.9,-238.8 		"/>
		<path d="M-8.9-201l-36.6-36.6v36.6H-8.9 M-6.4-200h-40v-40L-6.4-200L-6.4-200z"/>
	</g>
	<g>
		<polygon class="st0" points="-45.2,-199.5 -6.8,-161.2 -6.9,-199.5 		"/>
		<path d="M-7.3-162.4L-7.4-199H-44L-7.3-162.4 M-6.3-160l-40.1-40h40L-6.3-160L-6.3-160z"/>
	</g>
	<g>
		<polygon class="st0" points="-5.8,-160.5 32.5,-160.5 -5.9,-198.8 		"/>
		<path d="M31.2-161l-36.7-36.6l0.1,36.6H31.2 M33.7-160h-40l-0.1-40L33.7-160L33.7-160z"/>
	</g>
	<g>
		<polygon class="st0" points="-85.2,-239.5 -46.9,-201.2 -46.9,-239.5 		"/>
		<path d="M-47.4-202.4V-239H-84L-47.4-202.4 M-46.4-200l-40-40h40V-200L-46.4-200z"/>
	</g>
	<g>
		<polygon class="st0" points="-7.6,-200.5 30.7,-200.5 -7.6,-238.8 		"/>
		<path d="M29.5-201l-36.6-36.6v36.6H29.5 M31.9-200h-40v-40L31.9-200L31.9-200z"/>
	</g>
	<g>
		<polygon class="st0" points="-6.9,-199.5 31.5,-161.2 31.4,-199.5 		"/>
		<path d="M31-162.4L30.9-199H-5.7L31-162.4 M32-160l-40.1-40h40L32-160L32-160z"/>
	</g>
	<g>
		<polygon class="st0" points="32.5,-160.5 70.8,-160.5 32.4,-198.8 		"/>
		<path d="M69.6-161l-36.7-36.6L33-161H69.6 M72-160H32l-0.1-40L72-160L72-160z"/>
	</g>
	<g>
		<polygon class="st0" points="-46.9,-239.5 -8.6,-201.2 -8.6,-239.5 		"/>
		<path d="M-9.1-202.4V-239h-36.6L-9.1-202.4 M-8.1-200l-40-40h40V-200L-8.1-200z"/>
	</g>
	<g>
		<polygon class="st0" points="34.1,-120.5 72.3,-120.5 34.1,-158.8 		"/>
		<path d="M71.1-121l-36.6-36.6v36.6H71.1 M73.6-120h-40v-40L73.6-120L73.6-120z"/>
	</g>
	<g>
		<polygon class="st0" points="34.8,-119.5 73.2,-81.2 73.1,-119.5 		"/>
		<path d="M72.7-82.4L72.6-119H36L72.7-82.4 M73.7-80l-40.1-40h40L73.7-80L73.7-80z"/>
	</g>
	<g>
		<polygon class="st0" points="74.2,-80.5 112.5,-80.5 74.1,-118.8 		"/>
		<path d="M111.2-81l-36.7-36.6L74.7-81H111.2 M113.7-80h-40l-0.1-40L113.7-80L113.7-80z"/>
	</g>
	<g>
		<polygon class="st0" points="-5.2,-159.5 33.1,-121.2 33.1,-159.5 		"/>
		<path d="M32.6-122.4V-159H-4L32.6-122.4 M33.6-120l-40-40h40V-120L33.6-120z"/>
	</g>
	<g>
		<polygon class="st0" points="72.4,-120.5 110.7,-120.5 72.4,-158.8 		"/>
		<path d="M109.5-121l-36.6-36.6v36.6H109.5 M111.9-120h-40v-40L111.9-120L111.9-120z"/>
	</g>
	<g>
		<polygon class="st0" points="73.1,-119.5 111.5,-81.2 111.4,-119.5 		"/>
		<path d="M111-82.4l-0.1-36.6H74.3L111-82.4 M112-80l-40.1-40h40L112-80L112-80z"/>
	</g>
	<g>
		<polygon class="st0" points="112.5,-80.5 150.8,-80.5 112.4,-118.8 		"/>
		<path d="M149.6-81l-36.7-36.6L113-81H149.6 M152-80h-40l-0.1-40L152-80L152-80z"/>
	</g>
	<g>
		<polygon class="st0" points="33.1,-159.5 71.4,-121.2 71.4,-159.5 		"/>
		<path d="M70.9-122.4V-159H34.3L70.9-122.4 M71.9-120l-40-40h40V-120L71.9-120z"/>
	</g>
	<g>
		<polygon class="st0" points="114.1,-40.5 152.3,-40.5 114.1,-78.8 		"/>
		<path d="M151.1-41l-36.6-36.6V-41H151.1 M153.6-40h-40v-40L153.6-40L153.6-40z"/>
	</g>
	<g>
		<polygon class="st0" points="114.8,-39.5 153.2,-1.2 153.1,-39.5 		"/>
		<path d="M152.7-2.4L152.6-39H116L152.7-2.4 M153.7,0l-40.1-40h40L153.7,0L153.7,0z"/>
	</g>
	<g>
		<polygon class="st0" points="154.2,-0.5 192.5,-0.5 154.1,-38.8 		"/>
		<path d="M191.2-1l-36.7-36.6L154.7-1H191.2 M193.7,0h-40l-0.1-40L193.7,0L193.7,0z"/>
	</g>
	<g>
		<polygon class="st0" points="74.8,-79.5 113.1,-41.2 113.1,-79.5 		"/>
		<path d="M112.6-42.4V-79H76L112.6-42.4 M113.6-40l-40-40h40V-40L113.6-40z"/>
	</g>
	<g>
		<polygon class="st0" points="152.4,-40.5 190.7,-40.5 152.4,-78.8 		"/>
		<path d="M189.5-41l-36.6-36.6V-41H189.5 M191.9-40h-40v-40L191.9-40L191.9-40z"/>
	</g>
	<g>
		<polygon class="st0" points="153.1,-39.5 191.5,-1.2 191.4,-39.5 		"/>
		<path d="M191-2.4L190.9-39h-36.6L191-2.4 M192,0l-40.1-40h40L192,0L192,0z"/>
	</g>
	<g>
		<polygon class="st0" points="192.5,-0.5 230.8,-0.5 192.4,-38.8 		"/>
		<path d="M229.6-1l-36.7-36.6L193-1H229.6 M232,0h-40l-0.1-40L232,0L232,0z"/>
	</g>
	<g>
		<polygon class="st0" points="113.1,-79.5 151.4,-41.2 151.4,-79.5 		"/>
		<path d="M150.9-42.4V-79h-36.6L150.9-42.4 M151.9-40l-40-40h40V-40L151.9-40z"/>
	</g>
	<g>
		<polygon class="st0" points="-191.5,39.5 -153.2,39.5 -191.5,1.2 		"/>
		<path d="M-154.4,39L-191,2.4V39H-154.4 M-152,40h-40V0L-152,40L-152,40z"/>
	</g>
	<g>
		<polygon class="st0" points="-190.8,40.5 -152.4,78.8 -152.5,40.5 		"/>
		<path d="M-152.9,77.6L-153,41h-36.6L-152.9,77.6 M-151.9,80L-192,40h40L-151.9,80L-151.9,80z"/>
	</g>
	<g>
		<polygon class="st0" points="-151.4,79.5 -113.1,79.5 -151.5,41.2 		"/>
		<path d="M-114.3,79L-151,42.4l0.1,36.6H-114.3 M-111.9,80h-40l-0.1-40L-111.9,80L-111.9,80z"/>
	</g>
	<g>
		<polygon class="st0" points="-230.8,0.5 -192.5,38.8 -192.5,0.5 		"/>
		<path d="M-193,37.6V1h-36.6L-193,37.6 M-192,40l-40-40h40V40L-192,40z"/>
	</g>
	<g>
		<polygon class="st0" points="-153.2,39.5 -114.9,39.5 -153.2,1.2 		"/>
		<path d="M-116.1,39l-36.6-36.6V39H-116.1 M-113.7,40h-40V0L-113.7,40L-113.7,40z"/>
	</g>
	<g>
		<polygon class="st0" points="-152.5,40.5 -114.1,78.8 -114.2,40.5 		"/>
		<path d="M-114.6,77.6l-0.1-36.6h-36.6L-114.6,77.6 M-113.6,80l-40.1-40h40L-113.6,80L-113.6,80z"/>
	</g>
	<g>
		<polygon class="st0" points="-113.1,79.5 -74.8,79.5 -113.2,41.2 		"/>
		<path d="M-76,79l-36.7-36.6l0.1,36.6H-76 M-73.6,80h-40l-0.1-40L-73.6,80L-73.6,80z"/>
	</g>
	<g>
		<polygon class="st0" points="-192.5,0.5 -154.2,38.8 -154.2,0.5 		"/>
		<path d="M-154.7,37.6V1h-36.6L-154.7,37.6 M-153.7,40l-40-40h40V40L-153.7,40z"/>
	</g>
	<g>
		<polygon class="st0" points="-111.5,119.5 -73.2,119.5 -111.5,81.2 		"/>
		<path d="M-74.4,119L-111,82.4V119H-74.4 M-72,120h-40V80L-72,120L-72,120z"/>
	</g>
	<g>
		<polygon class="st0" points="-110.8,120.5 -72.4,158.8 -72.5,120.5 		"/>
		<path d="M-72.9,157.6L-73,121h-36.6L-72.9,157.6 M-71.9,160l-40.1-40h40L-71.9,160L-71.9,160z"/>
	</g>
	<g>
		<polygon class="st0" points="-71.4,159.5 -33.1,159.5 -71.5,121.2 		"/>
		<path d="M-34.3,159L-71,122.4l0.1,36.6H-34.3 M-31.9,160h-40l-0.1-40L-31.9,160L-31.9,160z"/>
	</g>
	<g>
		<polygon class="st0" points="-150.8,80.5 -112.5,118.8 -112.5,80.5 		"/>
		<path d="M-113,117.6V81h-36.6L-113,117.6 M-112,120l-40-40h40V120L-112,120z"/>
	</g>
	<g>
		<polygon class="st0" points="-73.2,119.5 -34.9,119.5 -73.2,81.2 		"/>
		<path d="M-36.1,119l-36.6-36.6V119H-36.1 M-33.7,120h-40V80L-33.7,120L-33.7,120z"/>
	</g>
	<g>
		<polygon class="st0" points="-72.5,120.5 -34.1,158.8 -34.2,120.5 		"/>
		<path d="M-34.6,157.6l-0.1-36.6h-36.6L-34.6,157.6 M-33.6,160l-40.1-40h40L-33.6,160L-33.6,160z"/>
	</g>
	<g>
		<polygon class="st0" points="-33.1,159.5 5.2,159.5 -33.2,121.2 		"/>
		<path d="M4,159l-36.7-36.6l0.1,36.6H4 M6.4,160h-40l-0.1-40L6.4,160L6.4,160z"/>
	</g>
	<g>
		<polygon class="st0" points="-112.5,80.5 -74.2,118.8 -74.2,80.5 		"/>
		<path d="M-74.7,117.6V81h-36.6L-74.7,117.6 M-73.7,120l-40-40h40V120L-73.7,120z"/>
	</g>
	<g>
		<polygon class="st0" points="-31.5,199.5 6.8,199.5 -31.5,161.2 		"/>
		<path d="M5.6,199L-31,162.4V199H5.6 M8,200h-40v-40L8,200L8,200z"/>
	</g>
	<g>
		<polygon class="st0" points="-30.8,200.5 7.6,238.8 7.5,200.5 		"/>
		<path d="M7.1,237.6L7,201h-36.6L7.1,237.6 M8.1,240L-32,200H8L8.1,240L8.1,240z"/>
	</g>
	<g>
		<polygon class="st0" points="8.6,239.5 46.9,239.5 8.5,201.2 		"/>
		<path d="M45.7,239L9,202.4L9.1,239H45.7 M48.1,240h-40L8,200L48.1,240L48.1,240z"/>
	</g>
	<g>
		<polygon class="st0" points="-70.8,160.5 -32.5,198.8 -32.5,160.5 		"/>
		<path d="M-33,197.6V161h-36.6L-33,197.6 M-32,200l-40-40h40V200L-32,200z"/>
	</g>
	<g>
		<polygon class="st0" points="6.8,199.5 45.1,199.5 6.8,161.2 		"/>
		<path d="M43.9,199L7.3,162.4V199H43.9 M46.3,200h-40v-40L46.3,200L46.3,200z"/>
	</g>
	<g>
		<polygon class="st0" points="7.5,200.5 45.9,238.8 45.8,200.5 		"/>
		<path d="M45.4,237.6L45.3,201H8.8L45.4,237.6 M46.4,240L6.3,200h40L46.4,240L46.4,240z"/>
	</g>
	<g>
		<polygon class="st0" points="46.9,239.5 85.2,239.5 46.8,201.2 		"/>
		<path d="M84,239l-36.7-36.6l0.1,36.6H84 M86.4,240h-40l-0.1-40L86.4,240L86.4,240z"/>
	</g>
	<g>
		<polygon class="st0" points="-32.5,160.5 5.8,198.8 5.8,160.5 		"/>
		<path d="M5.3,197.6V161h-36.6L5.3,197.6 M6.3,200l-40-40h40V200L6.3,200z"/>
	</g>
	<g>
		<polygon class="st0" points="-113.9,39.5 -75.7,39.5 -113.9,1.2 		"/>
		<path d="M-76.9,39l-36.6-36.6V39H-76.9 M-74.4,40h-40V0L-74.4,40L-74.4,40z"/>
	</g>
	<g>
		<polygon class="st0" points="-113.2,40.5 -74.8,78.8 -74.9,40.5 		"/>
		<path d="M-75.3,77.6L-75.4,41H-112L-75.3,77.6 M-74.3,80l-40.1-40h40L-74.3,80L-74.3,80z"/>
	</g>
	<g>
		<polygon class="st0" points="-73.8,79.5 -35.5,79.5 -73.9,41.2 		"/>
		<path d="M-36.8,79l-36.7-36.6l0.1,36.6H-36.8 M-34.3,80h-40l-0.1-40L-34.3,80L-34.3,80z"/>
	</g>
	<g>
		<polygon class="st0" points="-153.2,0.5 -114.9,38.8 -114.9,0.5 		"/>
		<path d="M-115.4,37.6V1H-152L-115.4,37.6 M-114.4,40l-40-40h40V40L-114.4,40z"/>
	</g>
	<g>
		<polygon class="st0" points="-75.6,39.5 -37.3,39.5 -75.6,1.2 		"/>
		<path d="M-38.5,39L-75.1,2.4V39H-38.5 M-36.1,40h-40V0L-36.1,40L-36.1,40z"/>
	</g>
	<g>
		<polygon class="st0" points="-74.9,40.5 -36.5,78.8 -36.6,40.5 		"/>
		<path d="M-37,77.6L-37.1,41h-36.6L-37,77.6 M-36,80l-40.1-40h40L-36,80L-36,80z"/>
	</g>
	<g>
		<polygon class="st0" points="-35.5,79.5 2.8,79.5 -35.6,41.2 		"/>
		<path d="M1.6,79l-36.7-36.6L-35,79H1.6 M4,80h-40l-0.1-40L4,80L4,80z"/>
	</g>
	<g>
		<polygon class="st0" points="-114.9,0.5 -76.6,38.8 -76.6,0.5 		"/>
		<path d="M-77.1,37.6V1h-36.6L-77.1,37.6 M-76.1,40l-40-40h40V40L-76.1,40z"/>
	</g>
	<g>
		<polygon class="st0" points="-33.9,119.5 4.3,119.5 -33.9,81.2 		"/>
		<path d="M3.1,119l-36.6-36.6V119H3.1 M5.6,120h-40V80L5.6,120L5.6,120z"/>
	</g>
	<g>
		<polygon class="st0" points="-33.2,120.5 5.2,158.8 5.1,120.5 		"/>
		<path d="M4.7,157.6L4.6,121H-32L4.7,157.6 M5.7,160l-40.1-40h40L5.7,160L5.7,160z"/>
	</g>
	<g>
		<polygon class="st0" points="6.2,159.5 44.5,159.5 6.1,121.2 		"/>
		<path d="M43.2,159L6.6,122.4L6.7,159H43.2 M45.7,160h-40l-0.1-40L45.7,160L45.7,160z"/>
	</g>
	<g>
		<polygon class="st0" points="-73.2,80.5 -34.9,118.8 -34.9,80.5 		"/>
		<path d="M-35.4,117.6V81H-72L-35.4,117.6 M-34.4,120l-40-40h40V120L-34.4,120z"/>
	</g>
	<g>
		<polygon class="st0" points="4.4,119.5 42.7,119.5 4.4,81.2 		"/>
		<path d="M41.5,119L4.9,82.4V119H41.5 M43.9,120h-40V80L43.9,120L43.9,120z"/>
	</g>
	<g>
		<polygon class="st0" points="5.1,120.5 43.5,158.8 43.4,120.5 		"/>
		<path d="M43,157.6L42.9,121H6.3L43,157.6 M44,160L3.9,120h40L44,160L44,160z"/>
	</g>
	<g>
		<polygon class="st0" points="44.5,159.5 82.8,159.5 44.4,121.2 		"/>
		<path d="M81.6,159l-36.7-36.6L45,159H81.6 M84,160H44l-0.1-40L84,160L84,160z"/>
	</g>
	<g>
		<polygon class="st0" points="-34.9,80.5 3.4,118.8 3.4,80.5 		"/>
		<path d="M2.9,117.6V81h-36.6L2.9,117.6 M3.9,120l-40-40h40V120L3.9,120z"/>
	</g>
	<g>
		<polygon class="st0" points="46.1,199.5 84.3,199.5 46.1,161.2 		"/>
		<path d="M83.1,199l-36.6-36.6V199H83.1 M85.6,200h-40v-40L85.6,200L85.6,200z"/>
	</g>
	<g>
		<polygon class="st0" points="46.8,200.5 85.2,238.8 85.1,200.5 		"/>
		<path d="M84.7,237.6L84.6,201H48L84.7,237.6 M85.7,240l-40.1-40h40L85.7,240L85.7,240z"/>
	</g>
	<g>
		<polygon class="st0" points="86.2,239.5 124.5,239.5 86.1,201.2 		"/>
		<path d="M123.2,239l-36.7-36.6l0.1,36.6H123.2 M125.7,240h-40l-0.1-40L125.7,240L125.7,240z"/>
	</g>
	<g>
		<polygon class="st0" points="6.8,160.5 45.1,198.8 45.1,160.5 		"/>
		<path d="M44.6,197.6V161H8L44.6,197.6 M45.6,200l-40-40h40V200L45.6,200z"/>
	</g>
	<g>
		<polygon class="st0" points="84.4,199.5 122.7,199.5 84.4,161.2 		"/>
		<path d="M121.5,199l-36.6-36.6V199H121.5 M123.9,200h-40v-40L123.9,200L123.9,200z"/>
	</g>
	<g>
		<polygon class="st0" points="85.1,200.5 123.5,238.8 123.4,200.5 		"/>
		<path d="M123,237.6l-0.1-36.6H86.3L123,237.6 M124,240l-40.1-40h40L124,240L124,240z"/>
	</g>
	<g>
		<polygon class="st0" points="124.5,239.5 162.8,239.5 124.4,201.2 		"/>
		<path d="M161.6,239l-36.7-36.6L125,239H161.6 M164,240h-40l-0.1-40L164,240L164,240z"/>
	</g>
	<g>
		<polygon class="st0" points="45.1,160.5 83.4,198.8 83.4,160.5 		"/>
		<path d="M82.9,197.6V161H46.3L82.9,197.6 M83.9,200l-40-40h40V200L83.9,200z"/>
	</g>
	<g>
		<polygon class="st0" points="-37.9,39.5 0.3,39.5 -37.9,1.2 		"/>
		<path d="M-0.9,39L-37.4,2.4V39H-0.9 M1.6,40h-40V0L1.6,40L1.6,40z"/>
	</g>
	<g>
		<polygon class="st0" points="-37.2,40.5 1.2,78.8 1.1,40.5 		"/>
		<path d="M0.7,77.6L0.6,41H-36L0.7,77.6 M1.7,80l-40.1-40h40L1.7,80L1.7,80z"/>
	</g>
	<g>
		<polygon class="st0" points="2.2,79.5 40.5,79.5 2.1,41.2 		"/>
		<path d="M39.2,79L2.6,42.4L2.7,79H39.2 M41.7,80h-40L1.6,40L41.7,80L41.7,80z"/>
	</g>
	<g>
		<polygon class="st0" points="-77.2,0.5 -38.9,38.8 -38.9,0.5 		"/>
		<path d="M-39.4,37.6V1H-76L-39.4,37.6 M-38.4,40l-40-40h40V40L-38.4,40z"/>
	</g>
	<g>
		<polygon class="st0" points="0.4,39.5 38.7,39.5 0.4,1.2 		"/>
		<path d="M37.5,39L0.9,2.4V39H37.5 M39.9,40h-40V0L39.9,40L39.9,40z"/>
	</g>
	<g>
		<polygon class="st0" points="1.1,40.5 39.5,78.8 39.4,40.5 		"/>
		<path d="M39,77.6L38.9,41H2.3L39,77.6 M40,80L-0.1,40h40L40,80L40,80z"/>
	</g>
	<g>
		<polygon class="st0" points="40.5,79.5 78.8,79.5 40.4,41.2 		"/>
		<path d="M77.6,79L40.9,42.4L41,79H77.6 M80,80H40l-0.1-40L80,80L80,80z"/>
	</g>
	<g>
		<polygon class="st0" points="-38.9,0.5 -0.6,38.8 -0.6,0.5 		"/>
		<path d="M-1.1,37.6V1h-36.6L-1.1,37.6 M-0.1,40l-40-40h40V40L-0.1,40z"/>
	</g>
	<g>
		<polygon class="st0" points="42.1,119.5 80.3,119.5 42.1,81.2 		"/>
		<path d="M79.1,119L42.6,82.4V119H79.1 M81.6,120h-40V80L81.6,120L81.6,120z"/>
	</g>
	<g>
		<polygon class="st0" points="42.8,120.5 81.2,158.8 81.1,120.5 		"/>
		<path d="M80.7,157.6L80.6,121H44L80.7,157.6 M81.7,160l-40.1-40h40L81.7,160L81.7,160z"/>
	</g>
	<g>
		<polygon class="st0" points="82.2,159.5 120.5,159.5 82.1,121.2 		"/>
		<path d="M119.2,159l-36.7-36.6l0.1,36.6H119.2 M121.7,160h-40l-0.1-40L121.7,160L121.7,160z"/>
	</g>
	<g>
		<polygon class="st0" points="2.8,80.5 41.1,118.8 41.1,80.5 		"/>
		<path d="M40.6,117.6V81H4L40.6,117.6 M41.6,120l-40-40h40V120L41.6,120z"/>
	</g>
	<g>
		<polygon class="st0" points="80.4,119.5 118.7,119.5 80.4,81.2 		"/>
		<path d="M117.5,119L80.9,82.4V119H117.5 M119.9,120h-40V80L119.9,120L119.9,120z"/>
	</g>
	<g>
		<polygon class="st0" points="81.1,120.5 119.5,158.8 119.4,120.5 		"/>
		<path d="M119,157.6l-0.1-36.6H82.3L119,157.6 M120,160l-40.1-40h40L120,160L120,160z"/>
	</g>
	<g>
		<polygon class="st0" points="120.5,159.5 158.8,159.5 120.4,121.2 		"/>
		<path d="M157.6,159l-36.7-36.6L121,159H157.6 M160,160h-40l-0.1-40L160,160L160,160z"/>
	</g>
	<g>
		<polygon class="st0" points="41.1,80.5 79.4,118.8 79.4,80.5 		"/>
		<path d="M78.9,117.6V81H42.3L78.9,117.6 M79.9,120l-40-40h40V120L79.9,120z"/>
	</g>
	<g>
		<polygon class="st0" points="122.1,199.5 160.3,199.5 122.1,161.2 		"/>
		<path d="M159.1,199l-36.6-36.6V199H159.1 M161.6,200h-40v-40L161.6,200L161.6,200z"/>
	</g>
	<g>
		<polygon class="st0" points="122.8,200.5 161.2,238.8 161.1,200.5 		"/>
		<path d="M160.7,237.6l-0.1-36.6H124L160.7,237.6 M161.7,240l-40.1-40h40L161.7,240L161.7,240z"/>
	</g>
	<g>
		<polygon class="st0" points="162.2,239.5 200.5,239.5 162.1,201.2 		"/>
		<path d="M199.2,239l-36.7-36.6l0.1,36.6H199.2 M201.7,240h-40l-0.1-40L201.7,240L201.7,240z"/>
	</g>
	<g>
		<polygon class="st0" points="82.8,160.5 121.1,198.8 121.1,160.5 		"/>
		<path d="M120.6,197.6V161H84L120.6,197.6 M121.6,200l-40-40h40V200L121.6,200z"/>
	</g>
	<g>
		<polygon class="st0" points="160.4,199.5 198.7,199.5 160.4,161.2 		"/>
		<path d="M197.5,199l-36.6-36.6V199H197.5 M199.9,200h-40v-40L199.9,200L199.9,200z"/>
	</g>
	<g>
		<polygon class="st0" points="161.1,200.5 199.5,238.8 199.4,200.5 		"/>
		<path d="M199,237.6l-0.1-36.6h-36.6L199,237.6 M200,240l-40.1-40h40L200,240L200,240z"/>
	</g>
	<g>
		<polygon class="st0" points="200.5,239.5 238.8,239.5 200.4,201.2 		"/>
		<path d="M237.6,239l-36.7-36.6L201,239H237.6 M240,240h-40l-0.1-40L240,240L240,240z"/>
	</g>
	<g>
		<polygon class="st0" points="121.1,160.5 159.4,198.8 159.4,160.5 		"/>
		<path d="M158.9,197.6V161h-36.6L158.9,197.6 M159.9,200l-40-40h40V200L159.9,200z"/>
	</g>
	<g>
		<polygon class="st0" points="40.5,39.5 78.8,39.5 40.5,1.2 		"/>
		<path d="M77.6,39L41,2.4V39H77.6 M80,40H40V0L80,40L80,40z"/>
	</g>
	<g>
		<polygon class="st0" points="41.2,40.5 79.6,78.8 79.5,40.5 		"/>
		<path d="M79.1,77.6L79,41H42.4L79.1,77.6 M80.1,80L40,40h40L80.1,80L80.1,80z"/>
	</g>
	<g>
		<polygon class="st0" points="80.6,79.5 118.9,79.5 80.5,41.2 		"/>
		<path d="M117.7,79L81,42.4L81.1,79H117.7 M120.1,80h-40L80,40L120.1,80L120.1,80z"/>
	</g>
	<g>
		<polygon class="st0" points="1.2,0.5 39.5,38.8 39.5,0.5 		"/>
		<path d="M39,37.6V1H2.4L39,37.6 M40,40L0,0h40V40L40,40z"/>
	</g>
	<g>
		<polygon class="st0" points="78.8,39.5 117.1,39.5 78.8,1.2 		"/>
		<path d="M115.9,39L79.3,2.4V39H115.9 M118.3,40h-40V0L118.3,40L118.3,40z"/>
	</g>
	<g>
		<polygon class="st0" points="79.5,40.5 117.9,78.8 117.8,40.5 		"/>
		<path d="M117.4,77.6L117.3,41H80.8L117.4,77.6 M118.4,80L78.3,40h40L118.4,80L118.4,80z"/>
	</g>
	<g>
		<polygon class="st0" points="118.9,79.5 157.2,79.5 118.8,41.2 		"/>
		<path d="M156,79l-36.7-36.6l0.1,36.6H156 M158.4,80h-40l-0.1-40L158.4,80L158.4,80z"/>
	</g>
	<g>
		<polygon class="st0" points="39.5,0.5 77.8,38.8 77.8,0.5 		"/>
		<path d="M77.3,37.6V1H40.7L77.3,37.6 M78.3,40l-40-40h40V40L78.3,40z"/>
	</g>
	<g>
		<polygon class="st0" points="120.5,119.5 158.8,119.5 120.5,81.2 		"/>
		<path d="M157.6,119L121,82.4V119H157.6 M160,120h-40V80L160,120L160,120z"/>
	</g>
	<g>
		<polygon class="st0" points="121.2,120.5 159.6,158.8 159.5,120.5 		"/>
		<path d="M159.1,157.6L159,121h-36.6L159.1,157.6 M160.1,160L120,120h40L160.1,160L160.1,160z"/>
	</g>
	<g>
		<polygon class="st0" points="160.6,159.5 198.9,159.5 160.5,121.2 		"/>
		<path d="M197.7,159L161,122.4l0.1,36.6H197.7 M200.1,160h-40l-0.1-40L200.1,160L200.1,160z"/>
	</g>
	<g>
		<polygon class="st0" points="81.2,80.5 119.5,118.8 119.5,80.5 		"/>
		<path d="M119,117.6V81H82.4L119,117.6 M120,120L80,80h40V120L120,120z"/>
	</g>
	<g>
		<polygon class="st0" points="158.8,119.5 197.1,119.5 158.8,81.2 		"/>
		<path d="M195.9,119l-36.6-36.6V119H195.9 M198.3,120h-40V80L198.3,120L198.3,120z"/>
	</g>
	<g>
		<polygon class="st0" points="159.5,120.5 197.9,158.8 197.8,120.5 		"/>
		<path d="M197.4,157.6l-0.1-36.6h-36.6L197.4,157.6 M198.4,160l-40.1-40h40L198.4,160L198.4,160z"/>
	</g>
	<g>
		<polygon class="st0" points="198.9,159.5 237.2,159.5 198.8,121.2 		"/>
		<path d="M236,159l-36.7-36.6l0.1,36.6H236 M238.4,160h-40l-0.1-40L238.4,160L238.4,160z"/>
	</g>
	<g>
		<polygon class="st0" points="119.5,80.5 157.8,118.8 157.8,80.5 		"/>
		<path d="M157.3,117.6V81h-36.6L157.3,117.6 M158.3,120l-40-40h40V120L158.3,120z"/>
	</g>
	<g>
		<polygon class="st0" points="200.5,199.5 238.8,199.5 200.5,161.2 		"/>
		<path d="M237.6,199L201,162.4V199H237.6 M240,200h-40v-40L240,200L240,200z"/>
	</g>
	<g>
		<polygon class="st0" points="201.2,200.5 239.6,238.8 239.5,200.5 		"/>
		<path d="M239.1,237.6L239,201h-36.6L239.1,237.6 M240.1,240L200,200h40L240.1,240L240.1,240z"/>
	</g>
	<g>
		<polygon class="st0" points="240.6,239.5 278.9,239.5 240.5,201.2 		"/>
		<path d="M277.7,239L241,202.4l0.1,36.6H277.7 M280.1,240h-40l-0.1-40L280.1,240L280.1,240z"/>
	</g>
	<g>
		<polygon class="st0" points="161.2,160.5 199.5,198.8 199.5,160.5 		"/>
		<path d="M199,197.6V161h-36.6L199,197.6 M200,200l-40-40h40V200L200,200z"/>
	</g>
	<g>
		<polygon class="st0" points="238.8,199.5 277.1,199.5 238.8,161.2 		"/>
		<path d="M275.9,199l-36.6-36.6V199H275.9 M278.3,200h-40v-40L278.3,200L278.3,200z"/>
	</g>
	<g>
		<polygon class="st0" points="239.5,200.5 277.9,238.8 277.8,200.5 		"/>
		<path d="M277.4,237.6l-0.1-36.6h-36.6L277.4,237.6 M278.4,240l-40.1-40h40L278.4,240L278.4,240z"/>
	</g>
	<g>
		<polygon class="st0" points="278.9,239.5 317.2,239.5 278.8,201.2 		"/>
		<path d="M316,239l-36.7-36.6l0.1,36.6H316 M318.4,240h-40l-0.1-40L318.4,240L318.4,240z"/>
	</g>
	<g>
		<polygon class="st0" points="199.5,160.5 237.8,198.8 237.8,160.5 		"/>
		<path d="M237.3,197.6V161h-36.6L237.3,197.6 M238.3,200l-40-40h40V200L238.3,200z"/>
	</g>
	<g>
		<polygon class="st0" points="118.1,39.5 156.3,39.5 118.1,1.2 		"/>
		<path d="M155.1,39L118.6,2.4V39H155.1 M157.6,40h-40V0L157.6,40L157.6,40z"/>
	</g>
	<g>
		<polygon class="st0" points="118.8,40.5 157.2,78.8 157.1,40.5 		"/>
		<path d="M156.7,77.6L156.6,41H120L156.7,77.6 M157.7,80l-40.1-40h40L157.7,80L157.7,80z"/>
	</g>
	<g>
		<polygon class="st0" points="158.2,79.5 196.5,79.5 158.1,41.2 		"/>
		<path d="M195.2,79l-36.7-36.6l0.1,36.6H195.2 M197.7,80h-40l-0.1-40L197.7,80L197.7,80z"/>
	</g>
	<g>
		<polygon class="st0" points="78.8,0.5 117.1,38.8 117.1,0.5 		"/>
		<path d="M116.6,37.6V1H80L116.6,37.6 M117.6,40l-40-40h40V40L117.6,40z"/>
	</g>
	<g>
		<polygon class="st0" points="156.4,39.5 194.7,39.5 156.4,1.2 		"/>
		<path d="M193.5,39L156.9,2.4V39H193.5 M195.9,40h-40V0L195.9,40L195.9,40z"/>
	</g>
	<g>
		<polygon class="st0" points="157.1,40.5 195.5,78.8 195.4,40.5 		"/>
		<path d="M195,77.6L194.9,41h-36.6L195,77.6 M196,80l-40.1-40h40L196,80L196,80z"/>
	</g>
	<g>
		<polygon class="st0" points="196.5,79.5 234.8,79.5 196.4,41.2 		"/>
		<path d="M233.6,79l-36.7-36.6L197,79H233.6 M236,80h-40l-0.1-40L236,80L236,80z"/>
	</g>
	<g>
		<polygon class="st0" points="117.1,0.5 155.4,38.8 155.4,0.5 		"/>
		<path d="M154.9,37.6V1h-36.6L154.9,37.6 M155.9,40l-40-40h40V40L155.9,40z"/>
	</g>
	<g>
		<polygon class="st0" points="198.1,119.5 236.3,119.5 198.1,81.2 		"/>
		<path d="M235.1,119l-36.6-36.6V119H235.1 M237.6,120h-40V80L237.6,120L237.6,120z"/>
	</g>
	<g>
		<polygon class="st0" points="198.8,120.5 237.2,158.8 237.1,120.5 		"/>
		<path d="M236.7,157.6l-0.1-36.6H200L236.7,157.6 M237.7,160l-40.1-40h40L237.7,160L237.7,160z"/>
	</g>
	<g>
		<polygon class="st0" points="238.2,159.5 276.5,159.5 238.1,121.2 		"/>
		<path d="M275.2,159l-36.7-36.6l0.1,36.6H275.2 M277.7,160h-40l-0.1-40L277.7,160L277.7,160z"/>
	</g>
	<g>
		<polygon class="st0" points="158.8,80.5 197.1,118.8 197.1,80.5 		"/>
		<path d="M196.6,117.6V81H160L196.6,117.6 M197.6,120l-40-40h40V120L197.6,120z"/>
	</g>
	<g>
		<polygon class="st0" points="236.4,119.5 274.7,119.5 236.4,81.2 		"/>
		<path d="M273.5,119l-36.6-36.6V119H273.5 M275.9,120h-40V80L275.9,120L275.9,120z"/>
	</g>
	<g>
		<polygon class="st0" points="237.1,120.5 275.5,158.8 275.4,120.5 		"/>
		<path d="M275,157.6l-0.1-36.6h-36.6L275,157.6 M276,160l-40.1-40h40L276,160L276,160z"/>
	</g>
	<g>
		<polygon class="st0" points="276.5,159.5 314.8,159.5 276.4,121.2 		"/>
		<path d="M313.6,159l-36.7-36.6L277,159H313.6 M316,160h-40l-0.1-40L316,160L316,160z"/>
	</g>
	<g>
		<polygon class="st0" points="197.1,80.5 235.4,118.8 235.4,80.5 		"/>
		<path d="M234.9,117.6V81h-36.6L234.9,117.6 M235.9,120l-40-40h40V120L235.9,120z"/>
	</g>
	<g>
		<polygon class="st0" points="278.1,199.5 316.3,199.5 278.1,161.2 		"/>
		<path d="M315.1,199l-36.6-36.6V199H315.1 M317.6,200h-40v-40L317.6,200L317.6,200z"/>
	</g>
	<g>
		<polygon class="st0" points="278.8,200.5 317.2,238.8 317.1,200.5 		"/>
		<path d="M316.7,237.6l-0.1-36.6H280L316.7,237.6 M317.7,240l-40.1-40h40L317.7,240L317.7,240z"/>
	</g>
	<g>
		<polygon class="st0" points="318.2,239.5 356.5,239.5 318.1,201.2 		"/>
		<path d="M355.2,239l-36.7-36.6l0.1,36.6H355.2 M357.7,240h-40l-0.1-40L357.7,240L357.7,240z"/>
	</g>
	<g>
		<polygon class="st0" points="238.8,160.5 277.1,198.8 277.1,160.5 		"/>
		<path d="M276.6,197.6V161H240L276.6,197.6 M277.6,200l-40-40h40V200L277.6,200z"/>
	</g>
	<g>
		<polygon class="st0" points="316.4,199.5 354.7,199.5 316.4,161.2 		"/>
		<path d="M353.5,199l-36.6-36.6V199H353.5 M355.9,200h-40v-40L355.9,200L355.9,200z"/>
	</g>
	<g>
		<polygon class="st0" points="317.1,200.5 355.5,238.8 355.4,200.5 		"/>
		<path d="M355,237.6l-0.1-36.6h-36.6L355,237.6 M356,240l-40.1-40h40L356,240L356,240z"/>
	</g>
	<g>
		<polygon class="st0" points="356.5,239.5 394.8,239.5 356.4,201.2 		"/>
		<path d="M393.6,239l-36.7-36.6L357,239H393.6 M396,240h-40l-0.1-40L396,240L396,240z"/>
	</g>
	<g>
		<polygon class="st0" points="277.1,160.5 315.4,198.8 315.4,160.5 		"/>
		<path d="M314.9,197.6V161h-36.6L314.9,197.6 M315.9,200l-40-40h40V200L315.9,200z"/>
	</g>
	<g>
		<polygon class="st0" points="194.1,39.5 232.3,39.5 194.1,1.2 		"/>
		<path d="M231.1,39L194.6,2.4V39H231.1 M233.6,40h-40V0L233.6,40L233.6,40z"/>
	</g>
	<g>
		<polygon class="st0" points="194.8,40.5 233.2,78.8 233.1,40.5 		"/>
		<path d="M232.7,77.6L232.6,41H196L232.7,77.6 M233.7,80l-40.1-40h40L233.7,80L233.7,80z"/>
	</g>
	<g>
		<polygon class="st0" points="234.2,79.5 272.5,79.5 234.1,41.2 		"/>
		<path d="M271.2,79l-36.7-36.6l0.1,36.6H271.2 M273.7,80h-40l-0.1-40L273.7,80L273.7,80z"/>
	</g>
	<g>
		<polygon class="st0" points="154.8,0.5 193.1,38.8 193.1,0.5 		"/>
		<path d="M192.6,37.6V1H156L192.6,37.6 M193.6,40l-40-40h40V40L193.6,40z"/>
	</g>
	<g>
		<polygon class="st0" points="232.4,39.5 270.7,39.5 232.4,1.2 		"/>
		<path d="M269.5,39L232.9,2.4V39H269.5 M271.9,40h-40V0L271.9,40L271.9,40z"/>
	</g>
	<g>
		<polygon class="st0" points="233.1,40.5 271.5,78.8 271.4,40.5 		"/>
		<path d="M271,77.6L270.9,41h-36.6L271,77.6 M272,80l-40.1-40h40L272,80L272,80z"/>
	</g>
	<g>
		<polygon class="st0" points="272.5,79.5 310.8,79.5 272.4,41.2 		"/>
		<path d="M309.6,79l-36.7-36.6L273,79H309.6 M312,80h-40l-0.1-40L312,80L312,80z"/>
	</g>
	<g>
		<polygon class="st0" points="193.1,0.5 231.4,38.8 231.4,0.5 		"/>
		<path d="M230.9,37.6V1h-36.6L230.9,37.6 M231.9,40l-40-40h40V40L231.9,40z"/>
	</g>
	<g>
		<polygon class="st0" points="274.1,119.5 312.3,119.5 274.1,81.2 		"/>
		<path d="M311.1,119l-36.6-36.6V119H311.1 M313.6,120h-40V80L313.6,120L313.6,120z"/>
	</g>
	<g>
		<polygon class="st0" points="274.8,120.5 313.2,158.8 313.1,120.5 		"/>
		<path d="M312.7,157.6l-0.1-36.6H276L312.7,157.6 M313.7,160l-40.1-40h40L313.7,160L313.7,160z"/>
	</g>
	<g>
		<polygon class="st0" points="314.2,159.5 352.5,159.5 314.1,121.2 		"/>
		<path d="M351.2,159l-36.7-36.6l0.1,36.6H351.2 M353.7,160h-40l-0.1-40L353.7,160L353.7,160z"/>
	</g>
	<g>
		<polygon class="st0" points="234.8,80.5 273.1,118.8 273.1,80.5 		"/>
		<path d="M272.6,117.6V81H236L272.6,117.6 M273.6,120l-40-40h40V120L273.6,120z"/>
	</g>
	<g>
		<polygon class="st0" points="312.4,119.5 350.7,119.5 312.4,81.2 		"/>
		<path d="M349.5,119l-36.6-36.6V119H349.5 M351.9,120h-40V80L351.9,120L351.9,120z"/>
	</g>
	<g>
		<polygon class="st0" points="313.1,120.5 351.5,158.8 351.4,120.5 		"/>
		<path d="M351,157.6l-0.1-36.6h-36.6L351,157.6 M352,160l-40.1-40h40L352,160L352,160z"/>
	</g>
	<g>
		<polygon class="st0" points="352.5,159.5 390.8,159.5 352.4,121.2 		"/>
		<path d="M389.6,159l-36.7-36.6L353,159H389.6 M392,160h-40l-0.1-40L392,160L392,160z"/>
	</g>
	<g>
		<polygon class="st0" points="273.1,80.5 311.4,118.8 311.4,80.5 		"/>
		<path d="M310.9,117.6V81h-36.6L310.9,117.6 M311.9,120l-40-40h40V120L311.9,120z"/>
	</g>
	<g>
		<polygon class="st0" points="354.1,199.5 392.3,199.5 354.1,161.2 		"/>
		<path d="M391.1,199l-36.6-36.6V199H391.1 M393.6,200h-40v-40L393.6,200L393.6,200z"/>
	</g>
	<g>
		<polygon class="st0" points="354.8,200.5 393.2,238.8 393.1,200.5 		"/>
		<path d="M392.7,237.6l-0.1-36.6H356L392.7,237.6 M393.7,240l-40.1-40h40L393.7,240L393.7,240z"/>
	</g>
	<g>
		<polygon class="st0" points="394.2,239.5 432.5,239.5 394.1,201.2 		"/>
		<path d="M431.2,239l-36.7-36.6l0.1,36.6H431.2 M433.7,240h-40l-0.1-40L433.7,240L433.7,240z"/>
	</g>
	<g>
		<polygon class="st0" points="314.8,160.5 353.1,198.8 353.1,160.5 		"/>
		<path d="M352.6,197.6V161H316L352.6,197.6 M353.6,200l-40-40h40V200L353.6,200z"/>
	</g>
	<g>
		<polygon class="st0" points="392.4,199.5 430.7,199.5 392.4,161.2 		"/>
		<path d="M429.5,199l-36.6-36.6V199H429.5 M431.9,200h-40v-40L431.9,200L431.9,200z"/>
	</g>
	<g>
		<polygon class="st0" points="393.1,200.5 431.5,238.8 431.4,200.5 		"/>
		<path d="M431,237.6l-0.1-36.6h-36.6L431,237.6 M432,240l-40.1-40h40L432,240L432,240z"/>
	</g>
	<g>
		<polygon class="st0" points="432.5,239.5 470.8,239.5 432.4,201.2 		"/>
		<path d="M469.6,239l-36.7-36.6L433,239H469.6 M472,240h-40l-0.1-40L472,240L472,240z"/>
	</g>
	<g>
		<polygon class="st0" points="353.1,160.5 391.4,198.8 391.4,160.5 		"/>
		<path d="M390.9,197.6V161h-36.6L390.9,197.6 M391.9,200l-40-40h40V200L391.9,200z"/>
	</g>
</symbol>
<g id="layer_x5F_4">
	<polygon class="st1" points="572,212 384,268 384,952 608,952 	"/>
	<rect x="1716" y="296" transform="matrix(-1 -2.885127e-11 2.885127e-11 -1 3720 1252)" class="st1" width="288" height="660"/>
	<rect x="816" y="120" transform="matrix(-1 -5.193635e-11 5.193635e-11 -1 1900 1120)" class="st1" width="268" height="880"/>
	<g>
		<polygon class="st1" points="1677.4,123 1434.9,36 1434.9,957 1677.4,957 		"/>
		<rect x="1412" y="155" class="st1" width="283.7" height="22.9"/>
	</g>
</g>
<g id="layer_x5F_3">
	<rect x="1612" y="244" class="st2" width="264" height="712"/>
</g>
<g id="bart_x5F_rail_x5F_bg">
	<rect x="1508" y="648" class="st1" width="1660" height="8"/>
</g>
<g id="bart_x5F_bg">
	<rect x="2472" y="596" class="st3" width="12" height="52"/>
	<rect x="2644" y="596" class="st3" width="12" height="52"/>
	<rect x="2952" y="596" class="st3" width="12" height="52"/>
	<rect x="3124" y="596" class="st3" width="12" height="52"/>
	<rect x="3436" y="596" class="st3" width="12" height="52"/>
	<g>
		<path class="st3" d="M2409.4,596.6c0.9-0.4,1.8-0.8,2.7-1.1C2411.2,595.8,2410.3,596.2,2409.4,596.6z"/>
		<path class="st3" d="M2415.4,594.3c4.1-1.3,8.3-2,12.6-2.2C2423.7,592.3,2419.5,593,2415.4,594.3z"/>
		<path class="st3" d="M2412.4,595.3c0.9-0.4,1.9-0.7,2.8-1C2414.3,594.6,2413.4,595,2412.4,595.3z"/>
		<path class="st3" d="M2406.5,598c0.9-0.5,1.7-0.9,2.6-1.3C2408.2,597.1,2407.3,597.6,2406.5,598z"/>
		<path class="st3" d="M2403.5,599.7c0.9-0.5,1.7-1,2.6-1.5C2405.3,598.6,2404.4,599.1,2403.5,599.7z"/>
		<path class="st3" d="M2430.6,592c-0.9,0-1.8,0-2.6,0.1V616h-51l5.9-3.6l-10,6.1c-5.7,3.5-9.5,9.2-10.6,15.8L2360,652h72h44v-60
			H2430.6z"/>
	</g>
	<g>
		<path class="st3" d="M3506.9,596.7c0.9,0.4,1.8,0.8,2.6,1.3C3508.7,597.6,3507.8,597.1,3506.9,596.7z"/>
		<path class="st3" d="M3503.9,595.4c0.9,0.3,1.8,0.7,2.7,1.1C3505.7,596.2,3504.8,595.8,3503.9,595.4z"/>
		<path class="st3" d="M3509.8,598.2c0.9,0.5,1.8,1,2.6,1.5C3511.6,599.1,3510.7,598.6,3509.8,598.2z"/>
		<path class="st3" d="M3553.7,634.3c-1.1-6.6-5-12.3-10.6-15.8l-10-6.1l5.9,3.6h-51v-23.9c-0.9,0-1.7-0.1-2.6-0.1H3440v60h44h72
			L3553.7,634.3z"/>
		<path class="st3" d="M3488,592.1c4.3,0.2,8.5,1,12.6,2.2C3496.5,593,3492.3,592.3,3488,592.1z"/>
		<path class="st3" d="M3500.8,594.3c1,0.3,1.9,0.6,2.8,1C3502.6,595,3501.7,594.6,3500.8,594.3z"/>
	</g>
	<path class="st3" d="M2480,592v60h168v-60H2480z M2536,616h-52v-20h52V616z M2584,640h-40v-44h40V640z M2644,616h-52v-20h52V616z"
		/>
	<rect x="2544" y="640" class="st4" width="40" height="4"/>
	<path class="st3" d="M2960,592v60h168v-60H2960z M3016,616h-52v-20h52V616z M3064,640h-40v-44h40V640z M3124,616h-52v-20h52V616z"
		/>
	<rect x="3024" y="640" class="st4" width="40" height="4"/>
	<path class="st3" d="M2652,592v60h304v-60H2652z M2776,616h-120v-20h120V616z M2824,640h-40v-44h40V640z M2952,616h-120v-20h120
		V616z"/>
	<rect x="2784" y="640" class="st4" width="40" height="4"/>
	<path class="st3" d="M3132,592v60h304v-60H3132z M3256,616h-120v-20h120V616z M3304,640h-40v-44h40V640z M3432,616h-120v-20h120
		V616z"/>
	<rect x="3264" y="640" class="st4" width="40" height="4"/>
	<g>
		<rect x="2544" y="596" class="st3" width="20" height="48"/>
		<rect x="2564" y="596" class="st3" width="20" height="48"/>
	</g>
	<g>
		<rect x="2784" y="596" class="st3" width="20" height="48"/>
		<rect x="2804" y="596" class="st3" width="20" height="48"/>
	</g>
	<g>
		<rect x="3024" y="596" class="st3" width="20" height="48"/>
		<rect x="3044" y="596" class="st3" width="20" height="48"/>
	</g>
	<g>
		<rect x="3264" y="596" class="st3" width="20" height="48"/>
		<rect x="3284" y="596" class="st3" width="20" height="48"/>
	</g>
	<g class="st5">
		<path class="st6" d="M2403.5,599.7L2377,616h51v-23.9C2419.4,592.5,2410.9,595.1,2403.5,599.7z"/>
		<path class="st6" d="M3512.5,599.7L3539,616h-51v-23.9C3496.6,592.5,3505.1,595.1,3512.5,599.7z"/>
		<rect x="2484" y="596" class="st6" width="52" height="20"/>
		<rect x="2592" y="596" class="st6" width="52" height="20"/>
		<rect x="2964" y="596" class="st6" width="52" height="20"/>
		<rect x="3072" y="596" class="st6" width="52" height="20"/>
		<rect x="2656" y="596" class="st6" width="120" height="20"/>
		<rect x="2832" y="596" class="st6" width="120" height="20"/>
		<rect x="3136" y="596" class="st6" width="120" height="20"/>
		<rect x="3312" y="596" class="st6" width="120" height="20"/>
	</g>
	<g>
		<path class="st7" d="M2428,592.1"/>
	</g>
</g>
<g id="layer_x5F_2">
	<rect x="1008" y="384" class="st3" width="500" height="572"/>
	<rect x="1500" y="656" class="st3" width="1248" height="36"/>
	<rect x="488" y="384" class="st3" width="284" height="572"/>
	<rect x="128" y="202" class="st3" width="212" height="754"/>
	<rect x="744" y="248" class="st3" width="248" height="708"/>
	<rect x="1508" y="552" class="st3" width="28" height="12"/>
</g>
<g id="layer_x5F_1">
	<rect x="1112" y="568" class="st8" width="284" height="388"/>
	<rect x="804" y="512" class="st8" width="224" height="444"/>
	<rect x="320" y="460" class="st8" width="224" height="496.3"/>
	<rect x="568" y="600" class="st8" width="212" height="356"/>
	<rect x="1640" y="628" class="st8" width="308" height="328"/>
	<rect x="1028" y="744" class="st8" width="84" height="8"/>
	<rect x="1064" y="592" class="st8" width="48" height="4"/>
	<rect x="1072" y="596" class="st8" width="4" height="12"/>
	<rect x="1096" y="596" class="st8" width="4" height="12"/>
	<rect x="1064" y="608" class="st8" width="44" height="72"/>
	
		<rect x="760" y="592" transform="matrix(-1 -1.224647e-16 1.224647e-16 -1 1523.9999 1191.9999)" class="st8" width="4" height="8"/>
	
		<rect x="736" y="592" transform="matrix(-1 -1.224647e-16 1.224647e-16 -1 1475.9999 1191.9999)" class="st8" width="4" height="8"/>
	<rect x="724" y="520" transform="matrix(-1 -1.224647e-16 1.224647e-16 -1 1500 1112)" class="st8" width="52" height="72"/>
	<rect x="824" y="500" class="st8" width="4" height="12"/>
	<rect x="892" y="500" class="st8" width="4" height="12"/>
	<rect x="812" y="460" class="st8" width="96" height="40"/>
	<rect x="344" y="448" class="st8" width="4" height="12"/>
	<rect x="412" y="448" class="st8" width="4" height="12"/>
	<rect x="332" y="408" class="st8" width="96" height="40"/>
	<rect x="-24" y="308" class="st8" width="240" height="648"/>
	<rect x="936" y="508" class="st8" width="4" height="4"/>
	<rect x="948" y="508" class="st8" width="4" height="4"/>
	<rect x="932" y="496" class="st8" width="24" height="12"/>
	<polygon class="st8" points="980,500 980,504 976,504 976,508 976,512 980,512 980,508 984,508 984,504 984,500 	"/>
	<polygon class="st8" points="492,460 512,460 512,436 492,432 	"/>
	<rect x="636" y="576" class="st8" width="4" height="24"/>
	<rect x="632" y="580" class="st8" width="12" height="4"/>
	<rect x="632" y="588" class="st8" width="12" height="4"/>
	<path class="st8" d="M602,580h-8c-5.5,0-10,4.5-10,10v10h28v-10C612,584.5,607.5,580,602,580z"/>
	<polygon class="st8" points="480,436 472,436 468,436 468,440 468,444 472,444 472,440 480,440 480,460 484,460 484,440 484,436 	
		"/>
	<path class="st8" d="M212,556v52h112v-52H212z M264,596h-44v-36h44V596z M316,596h-44v-36h44V596z"/>
	<g>
		<g>
			<rect x="816" y="524" class="st9" width="28" height="28"/>
			<rect x="816" y="560.9" class="st9" width="28" height="28"/>
			<rect x="816" y="597.8" class="st9" width="28" height="28"/>
			<rect x="816" y="634.7" class="st9" width="28" height="28"/>
			<rect x="816" y="671.6" class="st9" width="28" height="28"/>
			<rect x="816" y="708.4" class="st9" width="28" height="28"/>
			<rect x="816" y="745.3" class="st9" width="28" height="28"/>
			<rect x="816" y="782.2" class="st9" width="28" height="28"/>
			<rect x="816" y="819.1" class="st9" width="28" height="28"/>
			<rect x="816" y="856" class="st9" width="28" height="28"/>
		</g>
		<g>
			<rect x="856" y="524" class="st9" width="28" height="28"/>
			<rect x="856" y="560.9" class="st9" width="28" height="28"/>
			<rect x="856" y="597.8" class="st9" width="28" height="28"/>
			<rect x="856" y="634.7" class="st9" width="28" height="28"/>
			<rect x="856" y="671.6" class="st9" width="28" height="28"/>
			<rect x="856" y="708.4" class="st9" width="28" height="28"/>
			<rect x="856" y="745.3" class="st9" width="28" height="28"/>
			<rect x="856" y="782.2" class="st9" width="28" height="28"/>
			<rect x="856" y="819.1" class="st9" width="28" height="28"/>
			<rect x="856" y="856" class="st9" width="28" height="28"/>
		</g>
		<g>
			<rect x="988" y="524" class="st9" width="28" height="28"/>
			<rect x="988" y="560.9" class="st9" width="28" height="28"/>
			<rect x="988" y="597.8" class="st9" width="28" height="28"/>
			<rect x="988" y="634.7" class="st9" width="28" height="28"/>
			<rect x="988" y="671.6" class="st9" width="28" height="28"/>
			<rect x="988" y="708.4" class="st9" width="28" height="28"/>
			<rect x="988" y="745.3" class="st9" width="28" height="28"/>
			<rect x="988" y="782.2" class="st9" width="28" height="28"/>
			<rect x="988" y="819.1" class="st9" width="28" height="28"/>
			<rect x="988" y="856" class="st9" width="28" height="28"/>
		</g>
		<g>
			<rect x="948" y="524" class="st9" width="28" height="28"/>
			<rect x="948" y="560.9" class="st9" width="28" height="28"/>
			<rect x="948" y="597.8" class="st9" width="28" height="28"/>
			<rect x="948" y="634.7" class="st9" width="28" height="28"/>
			<rect x="948" y="671.6" class="st9" width="28" height="28"/>
			<rect x="948" y="708.4" class="st9" width="28" height="28"/>
			<rect x="948" y="745.3" class="st9" width="28" height="28"/>
			<rect x="948" y="782.2" class="st9" width="28" height="28"/>
			<rect x="948" y="819.1" class="st9" width="28" height="28"/>
			<rect x="948" y="856" class="st9" width="28" height="28"/>
		</g>
		<g>
			<rect x="896" y="524" class="st9" width="40" height="28"/>
			<rect x="896" y="560.9" class="st9" width="40" height="28"/>
			<rect x="896" y="597.8" class="st9" width="40" height="28"/>
			<rect x="896" y="634.7" class="st9" width="40" height="28"/>
			<rect x="896" y="671.6" class="st9" width="40" height="28"/>
			<rect x="896" y="708.4" class="st9" width="40" height="28"/>
			<rect x="896" y="745.3" class="st9" width="40" height="28"/>
			<rect x="896" y="782.2" class="st9" width="40" height="28"/>
			<rect x="896" y="819.1" class="st9" width="40" height="28"/>
			<rect x="896" y="856" class="st9" width="40" height="28"/>
		</g>
	</g>
	<g>
		<g>
			<rect x="1126" y="582" class="st10" width="36.1" height="23.2"/>
			<rect x="1126" y="612.5" class="st10" width="36.1" height="23.2"/>
			<rect x="1126" y="643.1" class="st10" width="36.1" height="23.2"/>
			<rect x="1126" y="673.6" class="st10" width="36.1" height="23.2"/>
			<rect x="1126" y="704.1" class="st10" width="36.1" height="23.2"/>
			<rect x="1126" y="734.7" class="st10" width="36.1" height="23.2"/>
			<rect x="1126" y="765.2" class="st10" width="36.1" height="23.2"/>
			<rect x="1126" y="795.8" class="st10" width="36.1" height="23.2"/>
			<rect x="1126" y="826.3" class="st10" width="36.1" height="23.2"/>
			<rect x="1126" y="856.8" class="st10" width="36.1" height="23.2"/>
		</g>
		<g>
			<rect x="1177.6" y="582" class="st10" width="36.1" height="23.2"/>
			<rect x="1177.6" y="612.5" class="st10" width="36.1" height="23.2"/>
			<rect x="1177.6" y="643.1" class="st10" width="36.1" height="23.2"/>
			<rect x="1177.6" y="673.6" class="st10" width="36.1" height="23.2"/>
			<rect x="1177.6" y="704.1" class="st10" width="36.1" height="23.2"/>
			<rect x="1177.6" y="734.7" class="st10" width="36.1" height="23.2"/>
			<rect x="1177.6" y="765.2" class="st10" width="36.1" height="23.2"/>
			<rect x="1177.6" y="795.8" class="st10" width="36.1" height="23.2"/>
			<rect x="1177.6" y="826.3" class="st10" width="36.1" height="23.2"/>
			<rect x="1177.6" y="856.8" class="st10" width="36.1" height="23.2"/>
		</g>
		<g>
			<rect x="1347.9" y="582" class="st10" width="36.1" height="23.2"/>
			<rect x="1347.9" y="612.5" class="st10" width="36.1" height="23.2"/>
			<rect x="1347.9" y="643.1" class="st10" width="36.1" height="23.2"/>
			<rect x="1347.9" y="673.6" class="st10" width="36.1" height="23.2"/>
			<rect x="1347.9" y="704.1" class="st10" width="36.1" height="23.2"/>
			<rect x="1347.9" y="734.7" class="st10" width="36.1" height="23.2"/>
			<rect x="1347.9" y="765.2" class="st10" width="36.1" height="23.2"/>
			<rect x="1347.9" y="795.8" class="st10" width="36.1" height="23.2"/>
			<rect x="1347.9" y="826.3" class="st10" width="36.1" height="23.2"/>
			<rect x="1347.9" y="856.8" class="st10" width="36.1" height="23.2"/>
		</g>
		<g>
			<rect x="1296.3" y="582" class="st10" width="36.1" height="23.2"/>
			<rect x="1296.3" y="612.5" class="st10" width="36.1" height="23.2"/>
			<rect x="1296.3" y="643.1" class="st10" width="36.1" height="23.2"/>
			<rect x="1296.3" y="673.6" class="st10" width="36.1" height="23.2"/>
			<rect x="1296.3" y="704.1" class="st10" width="36.1" height="23.2"/>
			<rect x="1296.3" y="734.7" class="st10" width="36.1" height="23.2"/>
			<rect x="1296.3" y="765.2" class="st10" width="36.1" height="23.2"/>
			<rect x="1296.3" y="795.8" class="st10" width="36.1" height="23.2"/>
			<rect x="1296.3" y="826.3" class="st10" width="36.1" height="23.2"/>
			<rect x="1296.3" y="856.8" class="st10" width="36.1" height="23.2"/>
		</g>
		<g>
			<rect x="1229.2" y="582" class="st10" width="51.6" height="23.2"/>
			<rect x="1229.2" y="612.5" class="st10" width="51.6" height="23.2"/>
			<rect x="1229.2" y="643.1" class="st10" width="51.6" height="23.2"/>
			<rect x="1229.2" y="673.6" class="st10" width="51.6" height="23.2"/>
			<rect x="1229.2" y="704.1" class="st10" width="51.6" height="23.2"/>
			<rect x="1229.2" y="734.7" class="st10" width="51.6" height="23.2"/>
			<rect x="1229.2" y="765.2" class="st10" width="51.6" height="23.2"/>
			<rect x="1229.2" y="795.8" class="st10" width="51.6" height="23.2"/>
			<rect x="1229.2" y="826.3" class="st10" width="51.6" height="23.2"/>
			<rect x="1229.2" y="856.8" class="st10" width="51.6" height="23.2"/>
		</g>
	</g>
	<g>
		<rect x="580" y="612" class="st10" width="28" height="19.3"/>
		<rect x="580" y="637.4" class="st10" width="28" height="19.3"/>
		<rect x="580" y="662.8" class="st10" width="28" height="19.3"/>
		<rect x="580" y="688.2" class="st10" width="28" height="19.3"/>
		<rect x="580" y="713.6" class="st10" width="28" height="19.3"/>
		<rect x="580" y="739.1" class="st10" width="28" height="19.3"/>
		<rect x="580" y="764.5" class="st10" width="28" height="19.3"/>
		<rect x="580" y="789.9" class="st10" width="28" height="19.3"/>
		<rect x="580" y="815.3" class="st10" width="28" height="19.3"/>
		<rect x="580" y="840.7" class="st10" width="28" height="19.3"/>
	</g>
	<g>
		<rect x="620" y="612" class="st10" width="28" height="19.3"/>
		<rect x="620" y="637.4" class="st10" width="28" height="19.3"/>
		<rect x="620" y="662.8" class="st10" width="28" height="19.3"/>
		<rect x="620" y="688.2" class="st10" width="28" height="19.3"/>
		<rect x="620" y="713.6" class="st10" width="28" height="19.3"/>
		<rect x="620" y="739.1" class="st10" width="28" height="19.3"/>
		<rect x="620" y="764.5" class="st10" width="28" height="19.3"/>
		<rect x="620" y="789.9" class="st10" width="28" height="19.3"/>
		<rect x="620" y="815.3" class="st10" width="28" height="19.3"/>
		<rect x="620" y="840.7" class="st10" width="28" height="19.3"/>
	</g>
	<g>
		<rect x="700" y="612" class="st10" width="28" height="19.3"/>
		<rect x="700" y="637.4" class="st10" width="28" height="19.3"/>
		<rect x="700" y="662.8" class="st10" width="28" height="19.3"/>
		<rect x="700" y="688.2" class="st10" width="28" height="19.3"/>
		<rect x="700" y="713.6" class="st10" width="28" height="19.3"/>
		<rect x="700" y="739.1" class="st10" width="28" height="19.3"/>
		<rect x="700" y="764.5" class="st10" width="28" height="19.3"/>
		<rect x="700" y="789.9" class="st10" width="28" height="19.3"/>
		<rect x="700" y="815.3" class="st10" width="28" height="19.3"/>
		<rect x="700" y="840.7" class="st10" width="28" height="19.3"/>
	</g>
	<g>
		<rect x="660" y="612" class="st10" width="28" height="19.3"/>
		<rect x="660" y="637.4" class="st10" width="28" height="19.3"/>
		<rect x="660" y="662.8" class="st10" width="28" height="19.3"/>
		<rect x="660" y="688.2" class="st10" width="28" height="19.3"/>
		<rect x="660" y="713.6" class="st10" width="28" height="19.3"/>
		<rect x="660" y="739.1" class="st10" width="28" height="19.3"/>
		<rect x="660" y="764.5" class="st10" width="28" height="19.3"/>
		<rect x="660" y="789.9" class="st10" width="28" height="19.3"/>
		<rect x="660" y="815.3" class="st10" width="28" height="19.3"/>
		<rect x="660" y="840.7" class="st10" width="28" height="19.3"/>
	</g>
	<g>
		<rect x="436" y="468" class="st4" width="100" height="29.9"/>
		<rect x="436" y="507.3" class="st4" width="100" height="29.9"/>
		<rect x="436" y="546.7" class="st4" width="100" height="29.9"/>
		<rect x="436" y="586" class="st4" width="100" height="29.9"/>
		<rect x="436" y="625.4" class="st4" width="100" height="29.9"/>
		<rect x="436" y="664.7" class="st4" width="100" height="29.9"/>
		<rect x="436" y="704.1" class="st4" width="100" height="29.9"/>
		<rect x="436" y="743.4" class="st4" width="100" height="29.9"/>
		<rect x="436" y="782.8" class="st4" width="100" height="29.9"/>
		<rect x="436" y="822.1" class="st4" width="100" height="29.9"/>
	</g>
	<g>
		<rect x="1656" y="644" class="st10" width="280" height="17.1"/>
		<rect x="1656" y="677.8" class="st10" width="280" height="17.1"/>
		<rect x="1656" y="711.6" class="st10" width="280" height="17.1"/>
		<rect x="1656" y="745.4" class="st10" width="280" height="17.1"/>
		<rect x="1656" y="779.3" class="st10" width="280" height="17.1"/>
		<rect x="1656" y="813.1" class="st10" width="280" height="17.1"/>
		<rect x="1656" y="846.9" class="st10" width="280" height="17.1"/>
	</g>
	<g>
		<rect x="328" y="468" class="st4" width="100" height="29.9"/>
		<rect x="328" y="507.3" class="st4" width="100" height="29.9"/>
		<rect x="328" y="546.7" class="st4" width="100" height="29.9"/>
		<rect x="328" y="586" class="st4" width="100" height="29.9"/>
		<rect x="328" y="625.4" class="st4" width="100" height="29.9"/>
		<rect x="328" y="664.7" class="st4" width="100" height="29.9"/>
		<rect x="328" y="704.1" class="st4" width="100" height="29.9"/>
		<rect x="328" y="743.4" class="st4" width="100" height="29.9"/>
		<rect x="328" y="782.8" class="st4" width="100" height="29.9"/>
		<rect x="328" y="822.1" class="st4" width="100" height="29.9"/>
	</g>
	<g>
		<rect x="740" y="612" class="st10" width="28" height="19.3"/>
		<rect x="740" y="637.4" class="st10" width="28" height="19.3"/>
		<rect x="740" y="662.8" class="st10" width="28" height="19.3"/>
		<rect x="740" y="688.2" class="st10" width="28" height="19.3"/>
		<rect x="740" y="713.6" class="st10" width="28" height="19.3"/>
		<rect x="740" y="739.1" class="st10" width="28" height="19.3"/>
		<rect x="740" y="764.5" class="st10" width="28" height="19.3"/>
		<rect x="740" y="789.9" class="st10" width="28" height="19.3"/>
		<rect x="740" y="815.3" class="st10" width="28" height="19.3"/>
		<rect x="740" y="840.7" class="st10" width="28" height="19.3"/>
	</g>
	<g>
		<rect x="104" y="320" class="st11" width="40.9" height="18.5"/>
		<rect x="104" y="344.4" class="st11" width="40.9" height="18.5"/>
		<rect x="104" y="368.8" class="st11" width="40.9" height="18.5"/>
		<rect x="104" y="393.2" class="st11" width="40.9" height="18.5"/>
		<rect x="104" y="417.6" class="st11" width="40.9" height="18.5"/>
		<rect x="104" y="441.9" class="st11" width="40.9" height="18.5"/>
		<rect x="104" y="466.3" class="st11" width="40.9" height="18.5"/>
		<rect x="104" y="490.7" class="st11" width="40.9" height="18.5"/>
		<rect x="104" y="515.1" class="st11" width="40.9" height="18.5"/>
		<rect x="104" y="539.5" class="st11" width="40.9" height="18.5"/>
	</g>
	<g>
		<rect x="162.4" y="320" class="st11" width="40.9" height="18.5"/>
		<rect x="162.4" y="344.4" class="st11" width="40.9" height="18.5"/>
		<rect x="162.4" y="368.8" class="st11" width="40.9" height="18.5"/>
		<rect x="162.4" y="393.2" class="st11" width="40.9" height="18.5"/>
		<rect x="162.4" y="417.6" class="st11" width="40.9" height="18.5"/>
		<rect x="162.4" y="441.9" class="st11" width="40.9" height="18.5"/>
		<rect x="162.4" y="466.3" class="st11" width="40.9" height="18.5"/>
		<rect x="162.4" y="490.7" class="st11" width="40.9" height="18.5"/>
		<rect x="162.4" y="515.1" class="st11" width="40.9" height="18.5"/>
		<rect x="162.4" y="539.5" class="st11" width="40.9" height="18.5"/>
	</g>
	<g>
		<rect x="-11.3" y="320" class="st11" width="40.9" height="18.5"/>
		<rect x="-11.3" y="344.4" class="st11" width="40.9" height="18.5"/>
		<rect x="-11.3" y="368.8" class="st11" width="40.9" height="18.5"/>
		<rect x="-11.3" y="393.2" class="st11" width="40.9" height="18.5"/>
		<rect x="-11.3" y="417.6" class="st11" width="40.9" height="18.5"/>
		<rect x="-11.3" y="441.9" class="st11" width="40.9" height="18.5"/>
		<rect x="-11.3" y="466.3" class="st11" width="40.9" height="18.5"/>
		<rect x="-11.3" y="490.7" class="st11" width="40.9" height="18.5"/>
		<rect x="-11.3" y="515.1" class="st11" width="40.9" height="18.5"/>
		<rect x="-11.3" y="539.5" class="st11" width="40.9" height="18.5"/>
	</g>
	<g>
		<rect x="47.1" y="320" class="st11" width="40.9" height="18.5"/>
		<rect x="47.1" y="344.4" class="st11" width="40.9" height="18.5"/>
		<rect x="47.1" y="368.8" class="st11" width="40.9" height="18.5"/>
		<rect x="47.1" y="393.2" class="st11" width="40.9" height="18.5"/>
		<rect x="47.1" y="417.6" class="st11" width="40.9" height="18.5"/>
		<rect x="47.1" y="441.9" class="st11" width="40.9" height="18.5"/>
		<rect x="47.1" y="466.3" class="st11" width="40.9" height="18.5"/>
		<rect x="47.1" y="490.7" class="st11" width="40.9" height="18.5"/>
		<rect x="47.1" y="515.1" class="st11" width="40.9" height="18.5"/>
		<rect x="47.1" y="539.5" class="st11" width="40.9" height="18.5"/>
	</g>
	<g>
		<rect x="104" y="564" class="st11" width="40.9" height="18.5"/>
		<rect x="104" y="588.4" class="st11" width="40.9" height="18.5"/>
		<rect x="104" y="612.8" class="st11" width="40.9" height="18.5"/>
		<rect x="104" y="637.2" class="st11" width="40.9" height="18.5"/>
		<rect x="104" y="661.6" class="st11" width="40.9" height="18.5"/>
		<rect x="104" y="685.9" class="st11" width="40.9" height="18.5"/>
		<rect x="104" y="710.3" class="st11" width="40.9" height="18.5"/>
		<rect x="104" y="734.7" class="st11" width="40.9" height="18.5"/>
		<rect x="104" y="759.1" class="st11" width="40.9" height="18.5"/>
		<rect x="104" y="783.5" class="st11" width="40.9" height="18.5"/>
	</g>
	<g>
		<rect x="162.4" y="564" class="st11" width="40.9" height="18.5"/>
		<rect x="162.4" y="588.4" class="st11" width="40.9" height="18.5"/>
		<rect x="162.4" y="612.8" class="st11" width="40.9" height="18.5"/>
		<rect x="162.4" y="637.2" class="st11" width="40.9" height="18.5"/>
		<rect x="162.4" y="661.6" class="st11" width="40.9" height="18.5"/>
		<rect x="162.4" y="685.9" class="st11" width="40.9" height="18.5"/>
		<rect x="162.4" y="710.3" class="st11" width="40.9" height="18.5"/>
		<rect x="162.4" y="734.7" class="st11" width="40.9" height="18.5"/>
		<rect x="162.4" y="759.1" class="st11" width="40.9" height="18.5"/>
		<rect x="162.4" y="783.5" class="st11" width="40.9" height="18.5"/>
	</g>
	<g>
		<rect x="-11.3" y="564" class="st11" width="40.9" height="18.5"/>
		<rect x="-11.3" y="588.4" class="st11" width="40.9" height="18.5"/>
		<rect x="-11.3" y="612.8" class="st11" width="40.9" height="18.5"/>
		<rect x="-11.3" y="637.2" class="st11" width="40.9" height="18.5"/>
		<rect x="-11.3" y="661.6" class="st11" width="40.9" height="18.5"/>
		<rect x="-11.3" y="685.9" class="st11" width="40.9" height="18.5"/>
		<rect x="-11.3" y="710.3" class="st11" width="40.9" height="18.5"/>
		<rect x="-11.3" y="734.7" class="st11" width="40.9" height="18.5"/>
		<rect x="-11.3" y="759.1" class="st11" width="40.9" height="18.5"/>
		<rect x="-11.3" y="783.5" class="st11" width="40.9" height="18.5"/>
	</g>
	<g>
		<rect x="47.1" y="564" class="st11" width="40.9" height="18.5"/>
		<rect x="47.1" y="588.4" class="st11" width="40.9" height="18.5"/>
		<rect x="47.1" y="612.8" class="st11" width="40.9" height="18.5"/>
		<rect x="47.1" y="637.2" class="st11" width="40.9" height="18.5"/>
		<rect x="47.1" y="661.6" class="st11" width="40.9" height="18.5"/>
		<rect x="47.1" y="685.9" class="st11" width="40.9" height="18.5"/>
		<rect x="47.1" y="710.3" class="st11" width="40.9" height="18.5"/>
		<rect x="47.1" y="734.7" class="st11" width="40.9" height="18.5"/>
		<rect x="47.1" y="759.1" class="st11" width="40.9" height="18.5"/>
		<rect x="47.1" y="783.5" class="st11" width="40.9" height="18.5"/>
	</g>
</g>
<g id="neon_x5F_lights">
	<rect x="1068" y="612" class="st12" width="36" height="64"/>
	<rect x="728" y="524" transform="matrix(-1 -1.224647e-16 1.224647e-16 -1 1500 1112)" class="st12" width="44" height="64"/>
	<rect x="336" y="412" class="st13" width="88" height="32"/>
	<rect x="816" y="464" class="st14" width="88" height="32"/>
</g>
<g id="underground">
	<rect x="-1540" y="1076" class="st3" width="5000" height="4"/>
	<rect x="-1540" y="1068" class="st1" width="5000" height="8"/>
	<rect x="-1540" y="1060" class="st3" width="5000" height="8"/>
	<rect x="-1540" y="984" class="st4" width="5000" height="72"/>
	<path class="st1" d="M1200,1042.9L1200,1042.9c0-4.3,2.2-8.4,5.8-10.8l150.9-101.9c2.2-1.5,4.7-2.2,7.3-2.2h22.9
		c7.2,0,13.1,5.8,13.1,13.1l0,0c0,4.3-2.2,8.4-5.8,10.8l-150.9,101.9c-2.2,1.5-4.7,2.2-7.3,2.2h-22.9
		C1205.8,1056,1200,1050.2,1200,1042.9z"/>
	<path class="st1" d="M296,1042.9L296,1042.9c0-4.3-2.2-8.4-5.8-10.8L139.3,930.2c-2.2-1.5-4.7-2.2-7.3-2.2h-22.9
		c-7.2,0-13.1,5.8-13.1,13.1l0,0c0,4.3,2.2,8.4,5.8,10.8l150.9,101.9c2.2,1.5,4.7,2.2,7.3,2.2h22.9
		C290.2,1056,296,1050.2,296,1042.9z"/>
	<rect x="-1540" y="960" class="st3" width="5000" height="24"/>
	<rect x="-1540" y="1056" class="st15" width="5000" height="4"/>
	<rect x="1084" y="1056" class="st16" width="40" height="4"/>
	<rect x="1084" y="1056" class="st16" width="40" height="4"/>
	<rect x="844" y="1056" class="st16" width="40" height="4"/>
	<rect x="604" y="1056" class="st16" width="40" height="4"/>
	<rect x="364" y="1056" class="st16" width="40" height="4"/>
	<rect x="912" y="996" class="st17" width="148" height="44"/>
	<rect x="916" y="1000" class="st13" width="140" height="36"/>
	<rect x="668" y="996" transform="matrix(-1 -4.486024e-11 4.486024e-11 -1 1484 2036)" class="st17" width="148" height="44"/>
	<rect x="672" y="1000" transform="matrix(-1 -4.486423e-11 4.486423e-11 -1 1484 2036)" class="st18" width="140" height="36"/>
	<rect x="432" y="996" class="st17" width="148" height="44"/>
	<rect x="436" y="1000" class="st12" width="140" height="36"/>
</g>
<g id="bart">
	<rect x="2040" y="1016" class="st3" width="12" height="52"/>
	<rect x="2212" y="1016" class="st3" width="12" height="52"/>
	<rect x="2520" y="1016" class="st3" width="12" height="52"/>
	<rect x="2692" y="1016" class="st3" width="12" height="52"/>
	<rect x="3004" y="1016" class="st3" width="12" height="52"/>
	<g>
		<path class="st19" d="M1977.4,1016.6c0.9-0.4,1.8-0.8,2.7-1.1C1979.2,1015.8,1978.3,1016.2,1977.4,1016.6z"/>
		<path class="st19" d="M1983.4,1014.3c4.1-1.3,8.3-2,12.6-2.2C1991.7,1012.3,1987.5,1013,1983.4,1014.3z"/>
		<path class="st19" d="M1980.4,1015.3c0.9-0.4,1.9-0.7,2.8-1C1982.3,1014.6,1981.4,1015,1980.4,1015.3z"/>
		<path class="st19" d="M1974.5,1018c0.9-0.5,1.7-0.9,2.6-1.3C1976.2,1017.1,1975.3,1017.6,1974.5,1018z"/>
		<path class="st19" d="M1971.5,1019.7c0.9-0.5,1.7-1,2.6-1.5C1973.3,1018.6,1972.4,1019.1,1971.5,1019.7z"/>
		<path class="st19" d="M1998.6,1012c-0.9,0-1.8,0-2.6,0.1v23.9h-51l5.9-3.6l-10,6.1c-5.7,3.5-9.5,9.2-10.6,15.8l-2.3,17.7h72h44
			v-60H1998.6z"/>
	</g>
	<g>
		<path class="st19" d="M3074.9,1016.7c0.9,0.4,1.8,0.8,2.6,1.3C3076.7,1017.6,3075.8,1017.1,3074.9,1016.7z"/>
		<path class="st19" d="M3071.9,1015.4c0.9,0.3,1.8,0.7,2.7,1.1C3073.7,1016.2,3072.8,1015.8,3071.9,1015.4z"/>
		<path class="st19" d="M3077.8,1018.2c0.9,0.5,1.8,1,2.6,1.5C3079.6,1019.1,3078.7,1018.6,3077.8,1018.2z"/>
		<path class="st19" d="M3121.7,1054.3c-1.1-6.6-5-12.3-10.6-15.8l-10-6.1l5.9,3.6h-51v-23.9c-0.9,0-1.7-0.1-2.6-0.1H3008v60h44h72
			L3121.7,1054.3z"/>
		<path class="st19" d="M3056,1012.1c4.3,0.2,8.5,1,12.6,2.2C3064.5,1013,3060.3,1012.3,3056,1012.1z"/>
		<path class="st19" d="M3068.8,1014.3c1,0.3,1.9,0.6,2.8,1C3070.6,1015,3069.7,1014.6,3068.8,1014.3z"/>
	</g>
	<path class="st19" d="M2048,1012v60h168v-60H2048z M2104,1036h-52v-20h52V1036z M2152,1060h-40v-44h40V1060z M2212,1036h-52v-20h52
		V1036z"/>
	<rect x="2112" y="1060" class="st4" width="40" height="4"/>
	<path class="st19" d="M2528,1012v60h168v-60H2528z M2584,1036h-52v-20h52V1036z M2632,1060h-40v-44h40V1060z M2692,1036h-52v-20h52
		V1036z"/>
	<rect x="2592" y="1060" class="st4" width="40" height="4"/>
	<path class="st19" d="M2220,1012v60h304v-60H2220z M2344,1036h-120v-20h120V1036z M2392,1060h-40v-44h40V1060z M2520,1036h-120v-20
		h120V1036z"/>
	<rect x="2352" y="1060" class="st4" width="40" height="4"/>
	<path class="st19" d="M2700,1012v60h304v-60H2700z M2824,1036h-120v-20h120V1036z M2872,1060h-40v-44h40V1060z M3000,1036h-120v-20
		h120V1036z"/>
	<rect x="2832" y="1060" class="st4" width="40" height="4"/>
	<g>
		<rect x="2112" y="1016" class="st19" width="20" height="48"/>
		<rect x="2132" y="1016" class="st19" width="20" height="48"/>
	</g>
	<g>
		<rect x="2352" y="1016" class="st19" width="20" height="48"/>
		<rect x="2372" y="1016" class="st19" width="20" height="48"/>
	</g>
	<g>
		<rect x="2592" y="1016" class="st19" width="20" height="48"/>
		<rect x="2612" y="1016" class="st19" width="20" height="48"/>
	</g>
	<g>
		<rect x="2832" y="1016" class="st19" width="20" height="48"/>
		<rect x="2852" y="1016" class="st19" width="20" height="48"/>
	</g>
	<g class="st5">
		<path class="st6" d="M1971.5,1019.7L1945,1036h51v-23.9C1987.4,1012.5,1978.9,1015.1,1971.5,1019.7z"/>
		<path class="st6" d="M3080.5,1019.7l26.5,16.3h-51v-23.9C3064.6,1012.5,3073.1,1015.1,3080.5,1019.7z"/>
		<rect x="2052" y="1016" class="st6" width="52" height="20"/>
		<rect x="2160" y="1016" class="st6" width="52" height="20"/>
		<rect x="2532" y="1016" class="st6" width="52" height="20"/>
		<rect x="2640" y="1016" class="st6" width="52" height="20"/>
		<rect x="2224" y="1016" class="st6" width="120" height="20"/>
		<rect x="2400" y="1016" class="st6" width="120" height="20"/>
		<rect x="2704" y="1016" class="st6" width="120" height="20"/>
		<rect x="2880" y="1016" class="st6" width="120" height="20"/>
	</g>
	<g>
		<path class="st7" d="M3008,1064h115l-1.2-9.7c-0.4-2.2-1.1-4.3-2-6.3H3008V1064z"/>
	</g>
	<polygon class="st7" points="2048,1064 2216,1064 2216,1048 2152,1048 2152,1060 2112,1060 2112,1048 2048,1048 	"/>
	<polygon class="st7" points="2528,1064 2696,1064 2696,1048 2632,1048 2632,1060 2592,1060 2592,1048 2528,1048 	"/>
	<polygon class="st7" points="2220,1064 2524,1064 2524,1048 2392,1048 2392,1060 2352,1060 2352,1048 2220,1048 	"/>
	<polygon class="st7" points="2700,1064 3004,1064 3004,1048 2872,1048 2872,1060 2832,1060 2832,1048 2700,1048 	"/>
	<g>
		<path class="st7" d="M1996,1012.1"/>
		<path class="st7" d="M2044,1064v-16h-111.7c-1,2-1.7,4.1-2,6.3l-1.2,9.7H2044z"/>
	</g>
</g>
<g id="street">
	<rect x="-1540" y="952" class="st8" width="5000" height="8"/>
</g>
<g id="subway_x5F_exit">
	<rect x="1300" y="900" class="st20" width="120" height="52"/>
	<rect x="1280" y="892" class="st1" width="148" height="8"/>
	<rect x="1288" y="900" class="st4" width="12" height="52"/>
	<rect x="76" y="900" transform="matrix(-1 -4.488377e-11 4.488377e-11 -1 272 1852)" class="st20" width="120" height="52"/>
	<rect x="68" y="892" transform="matrix(-1 -4.489710e-11 4.489710e-11 -1 284 1792)" class="st1" width="148" height="8"/>
	<rect x="196" y="900" transform="matrix(-1 -4.502011e-11 4.502011e-11 -1 404 1852)" class="st4" width="12" height="52"/>
</g>
<g id="sidewalk">
</g>
</svg>
