<?xml version="1.0" encoding="utf-8"?>
<!-- Generator: Adobe Illustrator 25.1.0, SVG Export Plug-In . SVG Version: 6.00 Build 0)  -->
<svg version="1.1" xmlns="http://www.w3.org/2000/svg" xmlns:xlink="http://www.w3.org/1999/xlink" x="0px" y="0px"
	 viewBox="0 0 1920 1080" style="enable-background:new 0 0 1920 1080;" xml:space="preserve">
<style type="text/css">
	.st0{fill:#666666;}
	.st1{fill:#4D4D4D;}
	.st2{fill:#333333;}
	.st3{fill:#F7931E;}
	.st4{fill:#00FF00;}
	.st5{fill:#FF00FF;}
	.st6{fill:#808080;}
	.st7{fill:#B3B3B3;}
	.st8{fill:#E6E6E6;}
	.st9{fill:#FFFF00;}
	.st10{fill:#CCCCCC;}
	.st11{fill:#29ABE2;}
	.st12{fill:#662D91;}
	.st13{fill:#F2F2F2;}
	.st14{opacity:0.5;fill:#29ABE2;}
</style>
<g id="layer_x5F_3">
	<polygon class="st0" points="128,212 -60,268 -60,952 164,952 	"/>
	<polygon class="st0" points="1512,228 1300,152 1300,796 1512,796 	"/>
	<rect x="1632" y="296" transform="matrix(-1 -2.179602e-11 2.179602e-11 -1 3636 1236)" class="st0" width="372" height="644"/>
	<rect x="432" y="120" transform="matrix(-1 -5.810076e-11 5.810076e-11 -1 1068 888)" class="st0" width="204" height="648"/>
	<rect x="1020" y="344" transform="matrix(-1 -4.489887e-11 4.489887e-11 -1 2288 1392)" class="st0" width="248" height="704"/>
	<rect x="1280" y="256" class="st0" width="248" height="20"/>
</g>
<g id="layer_x5F_2">
	<rect x="1464" y="384" class="st1" width="308" height="568"/>
	<rect x="488" y="384" class="st1" width="212" height="568"/>
	<rect x="246" y="202" class="st1" width="212" height="756"/>
	<rect x="1140" y="304" class="st1" width="264" height="648"/>
	<rect x="744" y="248" class="st1" width="248" height="704"/>
</g>
<g id="layer_x5F_1">
	<rect x="1256" y="568" class="st2" width="284" height="384"/>
	<rect x="948" y="512" class="st2" width="224" height="440"/>
	<rect x="284" y="560" class="st2" width="224" height="392"/>
	<rect x="604" y="600" class="st2" width="212" height="352"/>
	<rect x="1640" y="628" class="st2" width="308" height="324"/>
	<rect x="1172" y="744" class="st2" width="84" height="8"/>
	<rect x="1208" y="592" class="st2" width="48" height="4"/>
	<rect x="1216" y="596" class="st2" width="4" height="12"/>
	<rect x="1240" y="596" class="st2" width="4" height="12"/>
	<rect x="1208" y="608" class="st2" width="44" height="72"/>
	
		<rect x="796" y="592" transform="matrix(-1 -1.224647e-16 1.224647e-16 -1 1595.9999 1191.9999)" class="st2" width="4" height="8"/>
	
		<rect x="772" y="592" transform="matrix(-1 -1.224647e-16 1.224647e-16 -1 1547.9999 1191.9999)" class="st2" width="4" height="8"/>
	<rect x="760" y="520" transform="matrix(-1 -1.224647e-16 1.224647e-16 -1 1572 1112)" class="st2" width="52" height="72"/>
	<rect x="968" y="500" class="st2" width="4" height="12"/>
	<rect x="1036" y="500" class="st2" width="4" height="12"/>
	<rect x="956" y="460" class="st2" width="96" height="40"/>
	<rect x="960" y="464" class="st3" width="88" height="32"/>
	<rect x="308" y="548" class="st2" width="4" height="12"/>
	<rect x="376" y="548" class="st2" width="4" height="12"/>
	<rect x="296" y="508" class="st2" width="96" height="40"/>
	<rect x="-44" y="560" class="st2" width="224" height="392"/>
	<rect x="1080" y="508" class="st2" width="4" height="4"/>
	<rect x="1092" y="508" class="st2" width="4" height="4"/>
	<rect x="1076" y="496" class="st2" width="24" height="12"/>
	<polygon class="st2" points="1124,500 1124,504 1120,504 1120,508 1120,512 1124,512 1124,508 1128,508 1128,504 1128,500 	"/>
</g>
<g id="neon_x5F_lights">
	<rect x="1212" y="612" class="st4" width="36" height="64"/>
	<rect x="764" y="524" transform="matrix(-1 -1.224647e-16 1.224647e-16 -1 1572 1112)" class="st4" width="44" height="64"/>
	<polygon class="st2" points="456,560 476,560 476,536 456,532 	"/>
	<rect x="672" y="576" class="st2" width="4" height="24"/>
	<rect x="668" y="580" class="st2" width="12" height="4"/>
	<rect x="668" y="588" class="st2" width="12" height="4"/>
	<path class="st2" d="M638,580h-8c-5.5,0-10,4.5-10,10v10h28v-10C648,584.5,643.5,580,638,580z"/>
	<polygon class="st2" points="444,536 436,536 432,536 432,540 432,544 436,544 436,540 444,540 444,560 448,560 448,540 448,536 	
		"/>
	<rect x="300" y="512" class="st5" width="88" height="32"/>
	<path class="st2" d="M180,656v52h104v-52H180z M228,696h-44v-36h44V696z M280,696h-44v-36h44V696z"/>
</g>
<g id="underground">
	<rect x="0" y="1076" class="st1" width="1920" height="4"/>
	<rect x="0" y="1068" class="st6" width="1920" height="8"/>
	<rect x="0" y="1060" class="st1" width="1920" height="8"/>
	<rect x="0" y="984" class="st7" width="1920" height="72"/>
	<path class="st6" d="M1200,1042.9L1200,1042.9c0-4.3,2.2-8.4,5.8-10.8l150.9-101.9c2.2-1.5,4.7-2.2,7.3-2.2h22.9
		c7.2,0,13.1,5.8,13.1,13.1l0,0c0,4.3-2.2,8.4-5.8,10.8l-150.9,101.9c-2.2,1.5-4.7,2.2-7.3,2.2h-22.9
		C1205.8,1056,1200,1050.2,1200,1042.9z"/>
	<path class="st6" d="M296,1042.9L296,1042.9c0-4.3-2.2-8.4-5.8-10.8L139.3,930.2c-2.2-1.5-4.7-2.2-7.3-2.2h-22.9
		c-7.2,0-13.1,5.8-13.1,13.1l0,0c0,4.3,2.2,8.4,5.8,10.8l150.9,101.9c2.2,1.5,4.7,2.2,7.3,2.2h22.9
		C290.2,1056,296,1050.2,296,1042.9z"/>
	<rect x="0" y="960" class="st1" width="1920" height="24"/>
	<rect x="0" y="1056" class="st8" width="1920" height="4"/>
	<rect x="1084" y="1056" class="st9" width="40" height="4"/>
	<rect x="1084" y="1056" class="st9" width="40" height="4"/>
	<rect x="844" y="1056" class="st9" width="40" height="4"/>
	<rect x="604" y="1056" class="st9" width="40" height="4"/>
	<rect x="364" y="1056" class="st9" width="40" height="4"/>
	<rect x="912" y="996" class="st10" width="148" height="44"/>
	<rect x="916" y="1000" class="st11" width="140" height="36"/>
	<rect x="668" y="996" transform="matrix(-1 -4.489710e-11 4.489710e-11 -1 1484 2036)" class="st10" width="148" height="44"/>
	<rect x="672" y="1000" transform="matrix(-1 -4.488999e-11 4.488999e-11 -1 1484 2036)" class="st12" width="140" height="36"/>
	<rect x="432" y="996" class="st10" width="148" height="44"/>
	<rect x="436" y="1000" class="st4" width="140" height="36"/>
</g>
<g id="bart">
	<path class="st11" d="M2220,1012v60h304v-60H2220z M2392,1060h-40v-44h40V1060z"/>
	<path class="st11" d="M2528,1012v60h168v-60H2528z M2632,1060h-40v-44h40V1060z"/>
	<path class="st11" d="M2048,1012v60h168v-60H2048z M2152,1060h-40v-44h40V1060z"/>
	<path class="st11" d="M2000,1072h-72l2.3-17.7c1.1-6.6,5-12.3,10.6-15.8l30.6-18.9c8.1-5,17.5-7.7,27.1-7.7h45.4v60H2000z"/>
	<path class="st13" d="M1971.5,1019.7L1945,1036h51v-23.9C1987.4,1012.5,1978.9,1015.1,1971.5,1019.7z"/>
	<path class="st11" d="M3052,1072h72l-2.3-17.7c-1.1-6.6-5-12.3-10.6-15.8l-30.6-18.9c-8.1-5-17.5-7.7-27.1-7.7H3008v60H3052z"/>
	<path class="st13" d="M3080.5,1019.7l26.5,16.3h-51v-23.9C3064.6,1012.5,3073.1,1015.1,3080.5,1019.7z"/>
	<rect x="2052" y="1016" class="st13" width="52" height="20"/>
	<rect x="2160" y="1016" class="st13" width="52" height="20"/>
	<rect x="2112" y="1060" class="st7" width="40" height="4"/>
	<rect x="2532" y="1016" class="st13" width="52" height="20"/>
	<rect x="2640" y="1016" class="st13" width="52" height="20"/>
	<rect x="2592" y="1060" class="st7" width="40" height="4"/>
	<rect x="2224" y="1016" class="st13" width="120" height="20"/>
	<rect x="2400" y="1016" class="st13" width="120" height="20"/>
	<rect x="2352" y="1060" class="st7" width="40" height="4"/>
	<path class="st11" d="M2700,1012v60h304v-60H2700z M2872,1060h-40v-44h40V1060z"/>
	<rect x="2704" y="1016" class="st13" width="120" height="20"/>
	<rect x="2880" y="1016" class="st13" width="120" height="20"/>
	<rect x="2832" y="1060" class="st7" width="40" height="4"/>
</g>
<g id="street">
	<rect x="0" y="952" class="st2" width="1920" height="8"/>
</g>
<g id="subway_x5F_exit">
	<rect x="1300" y="900" class="st14" width="120" height="52"/>
	<rect x="1280" y="892" class="st6" width="148" height="8"/>
	<rect x="1288" y="900" class="st7" width="12" height="52"/>
	<rect x="76" y="900" transform="matrix(-1 -4.488377e-11 4.488377e-11 -1 272 1852)" class="st14" width="120" height="52"/>
	<rect x="68" y="892" transform="matrix(-1 -4.489710e-11 4.489710e-11 -1 284 1792)" class="st6" width="148" height="8"/>
	<rect x="196" y="900" transform="matrix(-1 -4.502011e-11 4.502011e-11 -1 404 1852)" class="st7" width="12" height="52"/>
</g>
<g id="sidewalk">
</g>
</svg>
